STARTFONT 2.1
COMMENT
COMMENT Converted from OpenType font "Comfortaa-Regular.otf" by "otf2bdf 3.0".
COMMENT
FONT -FreeType-Comfortaa-Medium-R-Normal--19-140-100-100-P-109-ISO10646-1
SIZE 14 100 100
FONTBOUNDINGBOX 29 31 -4 -6
STARTPROPERTIES 19
FOUNDRY "FreeType"
FAMILY_NAME "Comfortaa"
WEIGHT_NAME "Medium"
SLANT "R"
SETWIDTH_NAME "Normal"
ADD_STYLE_NAME ""
PIXEL_SIZE 19
POINT_SIZE 140
RESOLUTION_X 100
RESOLUTION_Y 100
SPACING "P"
AVERAGE_WIDTH 109
CHARSET_REGISTRY "ISO10646"
CHARSET_ENCODING "1"
FONT_ASCENT 16
FONT_DESCENT 4
COPYRIGHT "Copyright 2011 The Comfortaa Project Authors (https://github.com/alexeiva/comfortaa), with Reserved Font Name "Comfortaa"."
_OTF_FONTFILE "Comfortaa-Regular.otf"
_OTF_PSNAME "Comfortaa-Regular"
ENDPROPERTIES
CHARS 850
STARTCHAR 0000
ENCODING 0
SWIDTH 0 0
DWIDTH 0 0
BBX 0 0 0 0
BITMAP
ENDCHAR
STARTCHAR 000D
ENCODING 13
SWIDTH 308 0
DWIDTH 6 0
BBX 0 0 0 0
BITMAP
ENDCHAR
STARTCHAR 0020
ENCODING 32
SWIDTH 308 0
DWIDTH 6 0
BBX 0 0 0 0
BITMAP
ENDCHAR
STARTCHAR 0021
ENCODING 33
SWIDTH 257 0
DWIDTH 5 0
BBX 2 15 1 0
BITMAP
C0
C0
C0
C0
C0
C0
C0
C0
C0
C0
C0
00
00
C0
C0
ENDCHAR
STARTCHAR 0022
ENCODING 34
SWIDTH 257 0
DWIDTH 5 0
BBX 4 4 1 11
BITMAP
B0
B0
B0
A0
ENDCHAR
STARTCHAR 0023
ENCODING 35
SWIDTH 720 0
DWIDTH 14 0
BBX 12 15 1 0
BITMAP
0860
0860
0840
0840
7FF0
7FF0
10C0
1080
1080
FFE0
3180
2180
2180
2100
2100
ENDCHAR
STARTCHAR 0024
ENCODING 36
SWIDTH 617 0
DWIDTH 12 0
BBX 10 17 1 -1
BITMAP
0400
3E00
7780
4480
C400
C400
6400
3400
1F00
0580
04C0
04C0
84C0
C4C0
6580
3F00
0400
ENDCHAR
STARTCHAR 0025
ENCODING 37
SWIDTH 874 0
DWIDTH 17 0
BBX 15 15 1 0
BITMAP
7C0C
EE18
8230
8220
8260
C6C0
7D80
0310
037C
06C6
0C82
1882
3086
30EC
6078
ENDCHAR
STARTCHAR 0026
ENCODING 38
SWIDTH 720 0
DWIDTH 14 0
BBX 12 15 1 0
BITMAP
3E00
6200
4300
4300
6200
3600
1800
3C00
6600
C330
81E0
80C0
C1E0
C330
7C10
ENDCHAR
STARTCHAR 0027
ENCODING 39
SWIDTH 154 0
DWIDTH 3 0
BBX 1 4 1 11
BITMAP
80
80
80
80
ENDCHAR
STARTCHAR 0028
ENCODING 40
SWIDTH 257 0
DWIDTH 5 0
BBX 4 19 1 -5
BITMAP
30
20
60
60
40
C0
C0
C0
C0
C0
C0
C0
C0
C0
40
40
60
20
30
ENDCHAR
STARTCHAR 0029
ENCODING 41
SWIDTH 257 0
DWIDTH 5 0
BBX 4 19 0 -5
BITMAP
C0
40
60
60
20
30
30
30
30
30
30
30
30
30
20
60
60
40
C0
ENDCHAR
STARTCHAR 002A
ENCODING 42
SWIDTH 360 0
DWIDTH 7 0
BBX 6 5 1 10
BITMAP
30
A8
FC
30
58
ENDCHAR
STARTCHAR 002B
ENCODING 43
SWIDTH 565 0
DWIDTH 11 0
BBX 9 9 1 2
BITMAP
0800
0800
0800
FF00
FF80
0800
0800
0800
0800
ENDCHAR
STARTCHAR 002C
ENCODING 44
SWIDTH 205 0
DWIDTH 4 0
BBX 2 5 1 -3
BITMAP
C0
C0
40
40
C0
ENDCHAR
STARTCHAR 002D
ENCODING 45
SWIDTH 411 0
DWIDTH 8 0
BBX 6 1 1 5
BITMAP
FC
ENDCHAR
STARTCHAR 002E
ENCODING 46
SWIDTH 205 0
DWIDTH 4 0
BBX 2 2 1 0
BITMAP
C0
C0
ENDCHAR
STARTCHAR 002F
ENCODING 47
SWIDTH 462 0
DWIDTH 9 0
BBX 7 17 1 -2
BITMAP
02
06
06
04
0C
08
18
18
10
30
20
60
60
40
C0
80
80
ENDCHAR
STARTCHAR 0030
ENCODING 48
SWIDTH 565 0
DWIDTH 11 0
BBX 9 15 1 0
BITMAP
3E00
7700
6100
C180
C180
C180
C080
8080
C080
C180
C180
4180
6300
3F00
1C00
ENDCHAR
STARTCHAR 0031
ENCODING 49
SWIDTH 360 0
DWIDTH 7 0
BBX 4 15 1 0
BITMAP
30
F0
10
10
10
10
10
10
10
10
10
10
10
10
10
ENDCHAR
STARTCHAR 0032
ENCODING 50
SWIDTH 565 0
DWIDTH 11 0
BBX 9 15 1 0
BITMAP
3E00
7300
4180
C180
C080
0180
0100
0300
0600
0C00
1800
3000
2000
7F80
FF80
ENDCHAR
STARTCHAR 0033
ENCODING 51
SWIDTH 565 0
DWIDTH 11 0
BBX 9 15 1 0
BITMAP
3E00
6300
4180
4180
0180
0300
0E00
0700
0180
0080
8080
C080
C180
7300
3E00
ENDCHAR
STARTCHAR 0034
ENCODING 52
SWIDTH 668 0
DWIDTH 13 0
BBX 12 15 0 0
BITMAP
0080
0180
0380
0280
0680
0C80
1880
3080
2080
6080
FFF0
0080
0080
0080
0080
ENDCHAR
STARTCHAR 0035
ENCODING 53
SWIDTH 617 0
DWIDTH 12 0
BBX 10 15 1 0
BITMAP
7F80
6000
6000
6000
6000
7E00
7F80
0180
00C0
C040
C040
C0C0
60C0
3F80
1E00
ENDCHAR
STARTCHAR 0036
ENCODING 54
SWIDTH 565 0
DWIDTH 11 0
BBX 9 15 1 0
BITMAP
0600
0600
0C00
0800
1800
3000
3E00
7300
4180
C080
C080
C080
4180
7300
1E00
ENDCHAR
STARTCHAR 0037
ENCODING 55
SWIDTH 565 0
DWIDTH 11 0
BBX 9 15 1 0
BITMAP
FF80
0180
0100
0300
0300
0600
0600
0C00
0C00
0800
1800
1000
3000
2000
6000
ENDCHAR
STARTCHAR 0038
ENCODING 56
SWIDTH 617 0
DWIDTH 12 0
BBX 9 15 1 0
BITMAP
3E00
3300
6100
4100
6100
2300
1E00
7300
4180
C080
C080
C080
4180
7300
3E00
ENDCHAR
STARTCHAR 0039
ENCODING 57
SWIDTH 565 0
DWIDTH 11 0
BBX 9 15 1 0
BITMAP
3E00
6300
C180
8180
8080
8180
C100
7700
3E00
0600
0C00
0800
1800
3000
3000
ENDCHAR
STARTCHAR 003A
ENCODING 58
SWIDTH 205 0
DWIDTH 4 0
BBX 2 10 1 1
BITMAP
C0
80
00
00
00
00
00
00
C0
C0
ENDCHAR
STARTCHAR 003B
ENCODING 59
SWIDTH 205 0
DWIDTH 4 0
BBX 2 13 1 -2
BITMAP
C0
C0
00
00
00
00
00
00
C0
C0
40
40
C0
ENDCHAR
STARTCHAR 003C
ENCODING 60
SWIDTH 565 0
DWIDTH 11 0
BBX 9 10 1 1
BITMAP
0180
0700
1C00
3800
E000
E000
7000
1C00
0700
0380
ENDCHAR
STARTCHAR 003D
ENCODING 61
SWIDTH 514 0
DWIDTH 10 0
BBX 8 6 1 4
BITMAP
FF
FF
00
00
00
FF
ENDCHAR
STARTCHAR 003E
ENCODING 62
SWIDTH 565 0
DWIDTH 11 0
BBX 9 10 1 1
BITMAP
C000
6000
3800
0E00
0300
0380
0E00
1C00
7000
C000
ENDCHAR
STARTCHAR 003F
ENCODING 63
SWIDTH 565 0
DWIDTH 11 0
BBX 9 15 1 0
BITMAP
7E00
C300
C180
8180
8180
0180
0300
0600
0C00
0800
0800
0800
0000
1800
1800
ENDCHAR
STARTCHAR 0040
ENCODING 64
SWIDTH 1080 0
DWIDTH 21 0
BBX 19 20 1 -5
BITMAP
03F800
0F1E00
180380
3001C0
60E0C0
43F860
C60C60
C40620
8C0620
8C0620
8C0620
840620
C60E20
C3FE60
61F3C0
200180
380000
1E0400
07FC00
004000
ENDCHAR
STARTCHAR 0041
ENCODING 65
SWIDTH 720 0
DWIDTH 14 0
BBX 13 15 0 0
BITMAP
0300
0300
0780
0580
0C80
0CC0
0840
1860
1060
3020
3FF0
6010
6018
4018
C008
ENDCHAR
STARTCHAR 0042
ENCODING 66
SWIDTH 720 0
DWIDTH 14 0
BBX 10 15 2 0
BITMAP
FF00
8180
8080
80C0
8080
8180
FF00
FF80
80C0
8040
8040
8040
80C0
8380
FF00
ENDCHAR
STARTCHAR 0043
ENCODING 67
SWIDTH 771 0
DWIDTH 15 0
BBX 13 15 1 0
BITMAP
0FE0
1C38
3000
6000
4000
C000
C000
C000
C000
C000
4000
6000
3018
1C38
07E0
ENDCHAR
STARTCHAR 0044
ENCODING 68
SWIDTH 771 0
DWIDTH 15 0
BBX 12 15 2 0
BITMAP
FF00
8380
80C0
8060
8020
8030
8030
8030
8030
8030
8020
8060
80C0
8380
FE00
ENDCHAR
STARTCHAR 0045
ENCODING 69
SWIDTH 668 0
DWIDTH 13 0
BBX 11 15 2 0
BITMAP
FFE0
8000
8000
8000
8000
8000
8000
FF00
8000
8000
8000
8000
8000
8000
FFE0
ENDCHAR
STARTCHAR 0046
ENCODING 70
SWIDTH 617 0
DWIDTH 12 0
BBX 10 15 1 0
BITMAP
FFC0
8000
8000
8000
8000
8000
8000
FF00
8000
8000
8000
8000
8000
8000
8000
ENDCHAR
STARTCHAR 0047
ENCODING 71
SWIDTH 771 0
DWIDTH 15 0
BBX 13 15 1 0
BITMAP
0FE0
1C38
3000
6000
4000
C000
C000
C0F0
C0F8
C018
4018
6018
3018
1C38
07E0
ENDCHAR
STARTCHAR 0048
ENCODING 72
SWIDTH 822 0
DWIDTH 16 0
BBX 12 15 2 0
BITMAP
8010
8010
8010
8010
8010
8010
8010
FFF0
8010
8010
8010
8010
8010
8010
8010
ENDCHAR
STARTCHAR 0049
ENCODING 73
SWIDTH 257 0
DWIDTH 5 0
BBX 1 15 2 0
BITMAP
80
80
80
80
80
80
80
80
80
80
80
80
80
80
80
ENDCHAR
STARTCHAR 004A
ENCODING 74
SWIDTH 617 0
DWIDTH 12 0
BBX 9 15 1 0
BITMAP
0180
0180
0180
0180
0180
0180
0180
0180
0180
0180
8180
8180
C180
6300
3E00
ENDCHAR
STARTCHAR 004B
ENCODING 75
SWIDTH 668 0
DWIDTH 13 0
BBX 10 15 2 0
BITMAP
80C0
8180
8300
8600
8C00
9800
B000
F800
CC00
8600
8600
8300
8180
8080
80C0
ENDCHAR
STARTCHAR 004C
ENCODING 76
SWIDTH 617 0
DWIDTH 12 0
BBX 10 15 2 0
BITMAP
8000
8000
8000
8000
8000
8000
8000
8000
8000
8000
8000
8000
8000
8000
FFC0
ENDCHAR
STARTCHAR 004D
ENCODING 77
SWIDTH 977 0
DWIDTH 19 0
BBX 15 15 2 0
BITMAP
C002
C006
E006
E00A
B00A
B01A
9812
9832
8C22
8C62
8642
86C2
8382
8382
8102
ENDCHAR
STARTCHAR 004E
ENCODING 78
SWIDTH 822 0
DWIDTH 16 0
BBX 12 15 2 0
BITMAP
C010
C010
E010
B010
9810
8810
8C10
8610
8310
8110
8090
80D0
8070
8030
8010
ENDCHAR
STARTCHAR 004F
ENCODING 79
SWIDTH 925 0
DWIDTH 18 0
BBX 16 15 1 0
BITMAP
0FF0
1C38
300C
6006
4002
C002
C003
C003
C003
C002
4006
6006
300C
1C38
07E0
ENDCHAR
STARTCHAR 0050
ENCODING 80
SWIDTH 617 0
DWIDTH 12 0
BBX 9 15 2 0
BITMAP
FE00
8300
8180
8080
8080
8080
8080
8180
FF00
FC00
8000
8000
8000
8000
8000
ENDCHAR
STARTCHAR 0051
ENCODING 81
SWIDTH 925 0
DWIDTH 18 0
BBX 16 15 1 0
BITMAP
0FF0
1C38
300C
6006
4002
C002
C003
C003
C003
C002
4066
6036
301C
1C3C
07E6
ENDCHAR
STARTCHAR 0052
ENCODING 82
SWIDTH 617 0
DWIDTH 12 0
BBX 10 15 2 0
BITMAP
FE00
8300
8180
8080
8080
8080
8180
8700
FE00
8600
8200
8300
8180
8180
80C0
ENDCHAR
STARTCHAR 0053
ENCODING 83
SWIDTH 668 0
DWIDTH 13 0
BBX 11 15 1 0
BITMAP
3F80
61C0
4040
4000
4000
6000
3E00
0F80
00C0
0040
0060
8060
C040
71C0
3F80
ENDCHAR
STARTCHAR 0054
ENCODING 84
SWIDTH 668 0
DWIDTH 13 0
BBX 12 15 0 0
BITMAP
FFF0
0200
0200
0200
0200
0200
0200
0200
0200
0200
0200
0200
0200
0200
0200
ENDCHAR
STARTCHAR 0055
ENCODING 85
SWIDTH 822 0
DWIDTH 16 0
BBX 12 15 2 0
BITMAP
8030
8030
8030
8030
8030
8030
8030
8030
8030
8030
8030
C030
4020
70E0
1F80
ENDCHAR
STARTCHAR 0056
ENCODING 86
SWIDTH 720 0
DWIDTH 14 0
BBX 14 15 0 0
BITMAP
C00C
4008
6018
2010
3030
3020
1020
1860
0840
0CC0
0480
0580
0780
0300
0300
ENDCHAR
STARTCHAR 0057
ENCODING 87
SWIDTH 925 0
DWIDTH 18 0
BBX 18 15 0 0
BITMAP
C040C0
40C0C0
40C080
60E180
61A180
212100
312100
333300
131300
121200
1A1E00
0E1E00
0C0C00
0C0C00
0C0C00
ENDCHAR
STARTCHAR 0058
ENCODING 88
SWIDTH 720 0
DWIDTH 14 0
BBX 12 15 1 0
BITMAP
C030
6060
6040
30C0
1980
0B00
0F00
0600
0F00
1980
3180
30C0
6060
C020
8030
ENDCHAR
STARTCHAR 0059
ENCODING 89
SWIDTH 668 0
DWIDTH 13 0
BBX 12 15 0 0
BITMAP
C010
4030
6020
3060
30C0
18C0
0980
0D00
0700
0200
0200
0200
0200
0200
0200
ENDCHAR
STARTCHAR 005A
ENCODING 90
SWIDTH 720 0
DWIDTH 14 0
BBX 12 15 1 0
BITMAP
FFF0
0030
0060
00C0
0080
0100
0300
0600
0C00
0800
1000
3000
6000
C000
FFF0
ENDCHAR
STARTCHAR 005B
ENCODING 91
SWIDTH 308 0
DWIDTH 6 0
BBX 5 20 1 -5
BITMAP
F8
C0
C0
C0
C0
C0
C0
C0
C0
C0
C0
C0
C0
C0
C0
C0
C0
C0
F8
70
ENDCHAR
STARTCHAR 005C
ENCODING 92
SWIDTH 462 0
DWIDTH 9 0
BBX 7 17 1 -2
BITMAP
80
C0
C0
60
60
20
30
30
18
18
08
0C
0C
06
06
02
02
ENDCHAR
STARTCHAR 005D
ENCODING 93
SWIDTH 308 0
DWIDTH 6 0
BBX 5 20 0 -5
BITMAP
F8
18
18
18
18
18
18
18
18
18
18
18
18
18
18
18
18
18
F8
F0
ENDCHAR
STARTCHAR 005E
ENCODING 94
SWIDTH 462 0
DWIDTH 9 0
BBX 7 6 1 9
BITMAP
10
38
6C
64
C6
82
ENDCHAR
STARTCHAR 005F
ENCODING 95
SWIDTH 462 0
DWIDTH 9 0
BBX 11 2 -1 -2
BITMAP
FFE0
7FC0
ENDCHAR
STARTCHAR 0060
ENCODING 96
SWIDTH 257 0
DWIDTH 5 0
BBX 3 3 1 11
BITMAP
C0
E0
60
ENDCHAR
STARTCHAR 0061
ENCODING 97
SWIDTH 668 0
DWIDTH 13 0
BBX 11 11 1 0
BITMAP
0E00
3F80
60C0
4060
C060
C020
C060
C060
60E0
31E0
1F20
ENDCHAR
STARTCHAR 0062
ENCODING 98
SWIDTH 720 0
DWIDTH 14 0
BBX 11 15 2 0
BITMAP
8000
8000
8000
8000
8E00
BF80
E0C0
C0C0
8040
8060
8040
C040
C0C0
7180
1F00
ENDCHAR
STARTCHAR 0063
ENCODING 99
SWIDTH 617 0
DWIDTH 12 0
BBX 9 11 1 0
BITMAP
0E00
3F80
6080
4000
C000
C000
C000
C000
6000
3180
1F00
ENDCHAR
STARTCHAR 0064
ENCODING 100
SWIDTH 720 0
DWIDTH 14 0
BBX 11 15 1 0
BITMAP
0060
0060
0060
0060
0E60
3FE0
60E0
4060
C060
C020
C060
C060
60C0
3180
1F00
ENDCHAR
STARTCHAR 0065
ENCODING 101
SWIDTH 617 0
DWIDTH 12 0
BBX 10 11 1 0
BITMAP
0E00
3F80
6080
40C0
C040
FFC0
C000
C000
6000
3180
1F00
ENDCHAR
STARTCHAR 0066
ENCODING 102
SWIDTH 360 0
DWIDTH 7 0
BBX 7 15 0 0
BITMAP
0E
18
10
30
30
FE
30
30
30
30
30
30
30
30
30
ENDCHAR
STARTCHAR 0067
ENCODING 103
SWIDTH 668 0
DWIDTH 13 0
BBX 11 15 1 -4
BITMAP
0E00
3F80
60C0
4060
C060
C020
C060
C060
6060
31A0
1F60
0060
4040
71C0
1F00
ENDCHAR
STARTCHAR 0068
ENCODING 104
SWIDTH 668 0
DWIDTH 13 0
BBX 10 15 2 0
BITMAP
8000
8000
8000
8000
9C00
BF00
C180
8080
80C0
80C0
80C0
80C0
80C0
80C0
80C0
ENDCHAR
STARTCHAR 0069
ENCODING 105
SWIDTH 308 0
DWIDTH 6 0
BBX 2 15 2 0
BITMAP
C0
C0
00
00
80
C0
C0
C0
C0
C0
C0
C0
C0
C0
C0
ENDCHAR
STARTCHAR 006A
ENCODING 106
SWIDTH 308 0
DWIDTH 6 0
BBX 6 20 -2 -5
BITMAP
08
0C
00
00
08
08
08
08
08
08
08
08
08
08
08
08
08
18
F0
40
ENDCHAR
STARTCHAR 006B
ENCODING 107
SWIDTH 565 0
DWIDTH 11 0
BBX 8 15 2 0
BITMAP
80
80
80
80
81
83
8C
98
B0
F0
D8
8C
86
82
83
ENDCHAR
STARTCHAR 006C
ENCODING 108
SWIDTH 257 0
DWIDTH 5 0
BBX 4 15 1 0
BITMAP
C0
C0
C0
C0
C0
C0
C0
C0
C0
C0
C0
C0
C0
60
30
ENDCHAR
STARTCHAR 006D
ENCODING 109
SWIDTH 925 0
DWIDTH 18 0
BBX 15 11 2 0
BITMAP
9C70
FEFC
C384
8306
8106
8106
8106
8106
8106
8106
8106
ENDCHAR
STARTCHAR 006E
ENCODING 110
SWIDTH 668 0
DWIDTH 13 0
BBX 10 11 2 0
BITMAP
9C00
BF00
C180
8080
80C0
80C0
80C0
80C0
80C0
80C0
80C0
ENDCHAR
STARTCHAR 006F
ENCODING 111
SWIDTH 668 0
DWIDTH 13 0
BBX 11 11 1 0
BITMAP
0E00
3F80
60C0
4060
C060
C020
C060
C060
60C0
31C0
1F00
ENDCHAR
STARTCHAR 0070
ENCODING 112
SWIDTH 720 0
DWIDTH 14 0
BBX 11 16 2 -5
BITMAP
0E00
3F80
60C0
C0C0
8040
8060
8040
C040
C0C0
B180
9F00
8000
8000
8000
8000
8000
ENDCHAR
STARTCHAR 0071
ENCODING 113
SWIDTH 720 0
DWIDTH 14 0
BBX 11 16 1 -5
BITMAP
0E00
3F80
60C0
4060
C060
C020
C060
C060
60E0
31E0
1F60
0060
0060
0060
0060
0020
ENDCHAR
STARTCHAR 0072
ENCODING 114
SWIDTH 462 0
DWIDTH 9 0
BBX 6 11 2 0
BITMAP
9C
BC
C0
80
80
80
80
80
80
80
80
ENDCHAR
STARTCHAR 0073
ENCODING 115
SWIDTH 514 0
DWIDTH 10 0
BBX 9 11 1 0
BITMAP
1C00
7F00
4100
4000
6000
3E00
0300
0180
8180
E300
3E00
ENDCHAR
STARTCHAR 0074
ENCODING 116
SWIDTH 411 0
DWIDTH 8 0
BBX 7 14 0 0
BITMAP
30
30
30
30
FE
30
30
30
30
30
30
10
1C
0E
ENDCHAR
STARTCHAR 0075
ENCODING 117
SWIDTH 668 0
DWIDTH 13 0
BBX 9 11 2 0
BITMAP
8080
8080
8080
8080
8080
8080
8080
8080
C180
6380
3E80
ENDCHAR
STARTCHAR 0076
ENCODING 118
SWIDTH 565 0
DWIDTH 11 0
BBX 10 11 0 0
BITMAP
0040
C040
40C0
6080
2180
3100
1300
1B00
0A00
0E00
0400
ENDCHAR
STARTCHAR 0077
ENCODING 119
SWIDTH 720 0
DWIDTH 14 0
BBX 14 11 0 0
BITMAP
0104
C30C
430C
6388
6688
2498
34D0
3C50
1870
1860
1820
ENDCHAR
STARTCHAR 0078
ENCODING 120
SWIDTH 565 0
DWIDTH 11 0
BBX 9 11 1 0
BITMAP
8000
C180
6300
2600
3C00
1800
1C00
3600
6300
C100
8180
ENDCHAR
STARTCHAR 0079
ENCODING 121
SWIDTH 565 0
DWIDTH 11 0
BBX 9 16 1 -5
BITMAP
8080
8080
C180
C100
4300
6300
2200
3600
1400
1C00
0800
1800
1000
3000
2000
2000
ENDCHAR
STARTCHAR 007A
ENCODING 122
SWIDTH 565 0
DWIDTH 11 0
BBX 9 11 1 0
BITMAP
FF80
FF80
0300
0600
0400
0C00
1800
3000
6000
4000
FF80
ENDCHAR
STARTCHAR 007B
ENCODING 123
SWIDTH 360 0
DWIDTH 7 0
BBX 6 20 1 -5
BITMAP
1C
10
30
30
30
30
30
30
30
E0
70
30
30
30
30
30
30
30
1C
04
ENDCHAR
STARTCHAR 007C
ENCODING 124
SWIDTH 411 0
DWIDTH 8 0
BBX 2 20 3 -5
BITMAP
C0
C0
C0
C0
C0
C0
C0
C0
C0
C0
C0
C0
C0
C0
C0
C0
C0
C0
C0
80
ENDCHAR
STARTCHAR 007D
ENCODING 125
SWIDTH 360 0
DWIDTH 7 0
BBX 6 20 0 -5
BITMAP
E0
30
30
10
10
10
10
10
10
1C
18
10
10
10
10
10
10
30
F0
40
ENDCHAR
STARTCHAR 007E
ENCODING 126
SWIDTH 462 0
DWIDTH 9 0
BBX 8 2 1 6
BITMAP
FB
8E
ENDCHAR
STARTCHAR 00A0
ENCODING 160
SWIDTH 308 0
DWIDTH 6 0
BBX 0 0 0 0
BITMAP
ENDCHAR
STARTCHAR 00A1
ENCODING 161
SWIDTH 257 0
DWIDTH 5 0
BBX 2 15 2 -5
BITMAP
40
C0
40
00
C0
C0
C0
C0
C0
C0
C0
C0
C0
C0
C0
ENDCHAR
STARTCHAR 00A2
ENCODING 162
SWIDTH 617 0
DWIDTH 12 0
BBX 9 15 1 -2
BITMAP
0100
0100
0F00
3F80
6280
4400
C400
C400
C800
C800
7800
3180
1F00
2000
2000
ENDCHAR
STARTCHAR 00A3
ENCODING 163
SWIDTH 514 0
DWIDTH 10 0
BBX 9 15 1 0
BITMAP
3E00
6700
4100
4000
4000
4000
6000
FC00
FE00
2000
2000
6000
6080
7F80
7F00
ENDCHAR
STARTCHAR 00A4
ENCODING 164
SWIDTH 514 0
DWIDTH 10 0
BBX 8 8 1 3
BITMAP
DB
FE
66
C2
C2
66
FF
C3
ENDCHAR
STARTCHAR 00A5
ENCODING 165
SWIDTH 668 0
DWIDTH 13 0
BBX 12 15 0 0
BITMAP
C010
4030
6020
3060
30C0
18C0
0980
0D00
1FC0
0200
0200
1FC0
0200
0200
0200
ENDCHAR
STARTCHAR 00A6
ENCODING 166
SWIDTH 257 0
DWIDTH 5 0
BBX 1 22 2 -5
BITMAP
80
80
80
80
80
80
80
80
80
00
00
00
00
80
80
80
80
80
80
80
80
80
ENDCHAR
STARTCHAR 00A7
ENCODING 167
SWIDTH 462 0
DWIDTH 9 0
BBX 7 20 1 -5
BITMAP
7C
EE
C2
82
80
C0
7C
EE
C2
82
82
C6
7C
0E
06
82
82
C6
7C
10
ENDCHAR
STARTCHAR 00A8
ENCODING 168
SWIDTH 462 0
DWIDTH 9 0
BBX 6 2 2 12
BITMAP
CC
CC
ENDCHAR
STARTCHAR 00A9
ENCODING 169
SWIDTH 874 0
DWIDTH 17 0
BBX 15 15 1 0
BITMAP
0FE0
1830
2018
47CC
CC64
9806
9002
9002
9002
9806
4C64
67CC
3018
1C70
07C0
ENDCHAR
STARTCHAR 00AA
ENCODING 170
SWIDTH 462 0
DWIDTH 9 0
BBX 7 7 1 8
BITMAP
7C
C6
82
82
82
C6
7E
ENDCHAR
STARTCHAR 00AB
ENCODING 171
SWIDTH 462 0
DWIDTH 9 0
BBX 7 11 1 0
BITMAP
22
22
66
44
CC
88
CC
4C
66
26
32
ENDCHAR
STARTCHAR 00AC
ENCODING 172
SWIDTH 565 0
DWIDTH 11 0
BBX 9 4 1 5
BITMAP
FF80
0180
0180
0180
ENDCHAR
STARTCHAR 00AD
ENCODING 173
SWIDTH 411 0
DWIDTH 8 0
BBX 6 1 1 5
BITMAP
FC
ENDCHAR
STARTCHAR 00AE
ENCODING 174
SWIDTH 874 0
DWIDTH 17 0
BBX 15 15 1 0
BITMAP
0FE0
1830
2718
47CC
C464
8466
8442
87C2
8482
84C6
4444
642C
3018
1C70
07C0
ENDCHAR
STARTCHAR 00AF
ENCODING 175
SWIDTH 565 0
DWIDTH 11 0
BBX 6 2 2 12
BITMAP
FC
FC
ENDCHAR
STARTCHAR 00B0
ENCODING 176
SWIDTH 462 0
DWIDTH 9 0
BBX 7 7 1 8
BITMAP
7C
EE
C2
82
82
C6
7C
ENDCHAR
STARTCHAR 00B1
ENCODING 177
SWIDTH 565 0
DWIDTH 11 0
BBX 9 9 1 3
BITMAP
0800
0800
0800
FF00
FF80
0800
0800
0800
FF80
ENDCHAR
STARTCHAR 00B2
ENCODING 178
SWIDTH 360 0
DWIDTH 7 0
BBX 5 8 1 7
BITMAP
F0
88
88
10
20
40
F8
78
ENDCHAR
STARTCHAR 00B3
ENCODING 179
SWIDTH 360 0
DWIDTH 7 0
BBX 5 8 1 7
BITMAP
F0
88
18
30
08
88
F8
30
ENDCHAR
STARTCHAR 00B4
ENCODING 180
SWIDTH 257 0
DWIDTH 5 0
BBX 4 3 1 11
BITMAP
30
60
C0
ENDCHAR
STARTCHAR 00B5
ENCODING 181
SWIDTH 668 0
DWIDTH 13 0
BBX 9 16 2 -5
BITMAP
8080
8080
8080
8080
8080
8080
8080
8080
C180
E380
BE80
8000
8000
8000
8000
8000
ENDCHAR
STARTCHAR 00B6
ENCODING 182
SWIDTH 565 0
DWIDTH 11 0
BBX 9 15 1 0
BITMAP
7F80
F900
F900
F900
F900
F900
7900
0900
0900
0900
0900
0900
0900
0900
0900
ENDCHAR
STARTCHAR 00B7
ENCODING 183
SWIDTH 205 0
DWIDTH 4 0
BBX 2 2 1 6
BITMAP
C0
C0
ENDCHAR
STARTCHAR 00B8
ENCODING 184
SWIDTH 308 0
DWIDTH 6 0
BBX 5 6 1 -5
BITMAP
20
60
30
98
F0
40
ENDCHAR
STARTCHAR 00B9
ENCODING 185
SWIDTH 257 0
DWIDTH 5 0
BBX 4 7 0 7
BITMAP
70
D0
10
10
10
10
10
ENDCHAR
STARTCHAR 00BA
ENCODING 186
SWIDTH 462 0
DWIDTH 9 0
BBX 7 7 1 8
BITMAP
7C
C6
82
82
82
C6
7C
ENDCHAR
STARTCHAR 00BB
ENCODING 187
SWIDTH 462 0
DWIDTH 9 0
BBX 7 11 1 0
BITMAP
88
C8
CC
64
66
32
26
66
4C
CC
88
ENDCHAR
STARTCHAR 00BC
ENCODING 188
SWIDTH 771 0
DWIDTH 15 0
BBX 14 15 0 0
BITMAP
7018
D030
1020
1060
10C0
1080
1180
0118
0218
0638
0458
08D8
18FC
1018
2018
ENDCHAR
STARTCHAR 00BD
ENCODING 189
SWIDTH 822 0
DWIDTH 16 0
BBX 15 15 0 0
BITMAP
7008
D018
1030
1020
1060
10C0
1080
019C
0336
0222
0606
0C0C
0818
1830
103E
ENDCHAR
STARTCHAR 00BE
ENCODING 190
SWIDTH 822 0
DWIDTH 16 0
BBX 14 15 1 0
BITMAP
F010
8830
1820
3060
08C0
8880
F980
3308
0218
0638
0C68
0848
18FC
1008
2008
ENDCHAR
STARTCHAR 00BF
ENCODING 191
SWIDTH 565 0
DWIDTH 11 0
BBX 9 15 1 -3
BITMAP
1800
1800
0000
0800
1800
1800
1000
2000
4000
C000
8180
8180
C180
C300
7E00
ENDCHAR
STARTCHAR 00C0
ENCODING 192
SWIDTH 720 0
DWIDTH 14 0
BBX 13 21 0 0
BITMAP
0800
0C00
0600
0300
0000
0000
0300
0300
0780
0580
0C80
0CC0
0840
1860
1060
3020
3FF0
6010
6018
4018
C008
ENDCHAR
STARTCHAR 00C1
ENCODING 193
SWIDTH 720 0
DWIDTH 14 0
BBX 13 20 0 0
BITMAP
00C0
0180
0300
0000
0000
0300
0300
0780
0580
0C80
0CC0
0840
1860
1060
3020
3FF0
6010
6018
4018
C008
ENDCHAR
STARTCHAR 00C2
ENCODING 194
SWIDTH 720 0
DWIDTH 14 0
BBX 13 20 0 0
BITMAP
0300
0780
0CC0
0000
0000
0300
0300
0780
0580
0C80
0CC0
0840
1860
1060
3020
3FF0
6010
6018
4018
C008
ENDCHAR
STARTCHAR 00C3
ENCODING 195
SWIDTH 720 0
DWIDTH 14 0
BBX 13 20 0 0
BITMAP
0400
0EC0
0980
0000
0000
0300
0300
0780
0580
0C80
0CC0
0840
1860
1060
3020
3FF0
6010
6018
4018
C008
ENDCHAR
STARTCHAR 00C4
ENCODING 196
SWIDTH 720 0
DWIDTH 14 0
BBX 13 19 0 0
BITMAP
0CC0
0CC0
0000
0000
0300
0300
0780
0580
0C80
0CC0
0840
1860
1060
3020
3FF0
6010
6018
4018
C008
ENDCHAR
STARTCHAR 00C5
ENCODING 197
SWIDTH 720 0
DWIDTH 14 0
BBX 13 20 0 0
BITMAP
0300
0480
0480
0300
0000
0300
0300
0780
0580
0C80
0CC0
0840
1860
1060
3020
3FF0
6010
6018
4018
C008
ENDCHAR
STARTCHAR 00C6
ENCODING 198
SWIDTH 977 0
DWIDTH 19 0
BBX 18 15 0 0
BITMAP
007FC0
00C000
01C000
014000
034000
024000
064000
0C7E00
084000
184000
1FC000
304000
604000
404000
C07FC0
ENDCHAR
STARTCHAR 00C7
ENCODING 199
SWIDTH 771 0
DWIDTH 15 0
BBX 13 20 1 -5
BITMAP
0FE0
1C38
3000
6000
4000
C000
C000
C000
C000
C000
4000
6000
3018
1C38
07E0
0100
01C0
0440
07C0
0100
ENDCHAR
STARTCHAR 00C8
ENCODING 200
SWIDTH 668 0
DWIDTH 13 0
BBX 11 21 2 0
BITMAP
1000
1800
1C00
0C00
0000
0000
FFE0
8000
8000
8000
8000
8000
8000
FF00
8000
8000
8000
8000
8000
8000
FFE0
ENDCHAR
STARTCHAR 00C9
ENCODING 201
SWIDTH 668 0
DWIDTH 13 0
BBX 11 20 2 0
BITMAP
0300
0600
0C00
0000
0000
FFE0
8000
8000
8000
8000
8000
8000
FF00
8000
8000
8000
8000
8000
8000
FFE0
ENDCHAR
STARTCHAR 00CA
ENCODING 202
SWIDTH 668 0
DWIDTH 13 0
BBX 11 20 2 0
BITMAP
0400
1F00
3100
0000
0000
FFE0
8000
8000
8000
8000
8000
8000
FF00
8000
8000
8000
8000
8000
8000
FFE0
ENDCHAR
STARTCHAR 00CB
ENCODING 203
SWIDTH 668 0
DWIDTH 13 0
BBX 11 19 2 0
BITMAP
3300
1100
0000
0000
FFE0
8000
8000
8000
8000
8000
8000
FF00
8000
8000
8000
8000
8000
8000
FFE0
ENDCHAR
STARTCHAR 00CC
ENCODING 204
SWIDTH 257 0
DWIDTH 5 0
BBX 3 21 0 0
BITMAP
80
C0
60
20
00
00
20
20
20
20
20
20
20
20
20
20
20
20
20
20
20
ENDCHAR
STARTCHAR 00CD
ENCODING 205
SWIDTH 257 0
DWIDTH 5 0
BBX 3 20 2 0
BITMAP
60
E0
C0
00
00
80
80
80
80
80
80
80
80
80
80
80
80
80
80
80
ENDCHAR
STARTCHAR 00CE
ENCODING 206
SWIDTH 257 0
DWIDTH 5 0
BBX 6 20 0 0
BITMAP
20
F8
CC
00
00
20
20
20
20
20
20
20
20
20
20
20
20
20
20
20
ENDCHAR
STARTCHAR 00CF
ENCODING 207
SWIDTH 257 0
DWIDTH 5 0
BBX 6 19 0 0
BITMAP
CC
8C
00
00
20
20
20
20
20
20
20
20
20
20
20
20
20
20
20
ENDCHAR
STARTCHAR 00D0
ENCODING 208
SWIDTH 771 0
DWIDTH 15 0
BBX 14 15 0 0
BITMAP
3FC0
20E0
2030
2018
2008
200C
200C
FE0C
200C
200C
2008
2018
2030
20E0
3F80
ENDCHAR
STARTCHAR 00D1
ENCODING 209
SWIDTH 822 0
DWIDTH 16 0
BBX 12 19 2 0
BITMAP
1E40
33C0
0000
0000
C010
C010
E010
B010
9810
8810
8C10
8610
8310
8110
8090
80D0
8070
8030
8010
ENDCHAR
STARTCHAR 00D2
ENCODING 210
SWIDTH 925 0
DWIDTH 18 0
BBX 16 21 1 0
BITMAP
0400
0600
0300
0180
0000
0000
0FF0
1C38
300C
6006
4002
C002
C003
C003
C003
C002
4006
6006
300C
1C38
07E0
ENDCHAR
STARTCHAR 00D3
ENCODING 211
SWIDTH 925 0
DWIDTH 18 0
BBX 16 20 1 0
BITMAP
0060
00C0
0180
0000
0000
0FF0
1C38
300C
6006
4002
C002
C003
C003
C003
C002
4006
6006
300C
1C38
07E0
ENDCHAR
STARTCHAR 00D4
ENCODING 212
SWIDTH 925 0
DWIDTH 18 0
BBX 16 20 1 0
BITMAP
0180
03C0
0660
0000
0000
0FF0
1C38
300C
6006
4002
C002
C003
C003
C003
C002
4006
6006
300C
1C38
07E0
ENDCHAR
STARTCHAR 00D5
ENCODING 213
SWIDTH 925 0
DWIDTH 18 0
BBX 16 19 1 0
BITMAP
0790
0CF0
0000
0000
0FF0
1C38
300C
6006
4002
C002
C003
C003
C003
C002
4006
6006
300C
1C38
07E0
ENDCHAR
STARTCHAR 00D6
ENCODING 214
SWIDTH 925 0
DWIDTH 18 0
BBX 16 19 1 0
BITMAP
0660
0660
0000
0000
0FF0
1C38
300C
6006
4002
C002
C003
C003
C003
C002
4006
6006
300C
1C38
07E0
ENDCHAR
STARTCHAR 00D7
ENCODING 215
SWIDTH 462 0
DWIDTH 9 0
BBX 7 8 1 3
BITMAP
82
C6
6C
38
38
6C
C6
82
ENDCHAR
STARTCHAR 00D8
ENCODING 216
SWIDTH 874 0
DWIDTH 17 0
BBX 16 15 1 0
BITMAP
0FF3
1C3E
300C
601E
4032
C062
C0C3
C183
C303
C602
4C06
7806
300C
5C38
87E0
ENDCHAR
STARTCHAR 00D9
ENCODING 217
SWIDTH 822 0
DWIDTH 16 0
BBX 12 21 2 0
BITMAP
1000
1800
0C00
0600
0000
0000
8030
8030
8030
8030
8030
8030
8030
8030
8030
8030
8030
C030
4020
70E0
1F80
ENDCHAR
STARTCHAR 00DA
ENCODING 218
SWIDTH 822 0
DWIDTH 16 0
BBX 12 20 2 0
BITMAP
0180
0300
0600
0000
0000
8030
8030
8030
8030
8030
8030
8030
8030
8030
8030
8030
C030
4020
70E0
1F80
ENDCHAR
STARTCHAR 00DB
ENCODING 219
SWIDTH 822 0
DWIDTH 16 0
BBX 12 20 2 0
BITMAP
0600
0F00
1980
0000
0000
8030
8030
8030
8030
8030
8030
8030
8030
8030
8030
8030
C030
4020
70E0
1F80
ENDCHAR
STARTCHAR 00DC
ENCODING 220
SWIDTH 822 0
DWIDTH 16 0
BBX 12 19 2 0
BITMAP
1980
1980
0000
0000
8030
8030
8030
8030
8030
8030
8030
8030
8030
8030
8030
C030
4020
70E0
1F80
ENDCHAR
STARTCHAR 00DD
ENCODING 221
SWIDTH 668 0
DWIDTH 13 0
BBX 12 20 0 0
BITMAP
0180
0300
0600
0000
0000
C010
4030
6020
3060
30C0
18C0
0980
0D00
0700
0200
0200
0200
0200
0200
0200
ENDCHAR
STARTCHAR 00DE
ENCODING 222
SWIDTH 617 0
DWIDTH 12 0
BBX 9 15 2 0
BITMAP
8000
8000
F800
FF00
8180
8080
8080
8080
8080
8180
FF00
8000
8000
8000
8000
ENDCHAR
STARTCHAR 00DF
ENCODING 223
SWIDTH 565 0
DWIDTH 11 0
BBX 9 15 1 0
BITMAP
3C00
6600
C300
C300
C300
C600
C400
C400
C600
C300
C180
C180
C180
F300
9E00
ENDCHAR
STARTCHAR 00E0
ENCODING 224
SWIDTH 668 0
DWIDTH 13 0
BBX 11 16 1 0
BITMAP
1000
1800
0C00
0400
0000
0E00
3F80
60C0
4060
C060
C020
C060
C060
60E0
31E0
1F20
ENDCHAR
STARTCHAR 00E1
ENCODING 225
SWIDTH 668 0
DWIDTH 13 0
BBX 11 16 1 0
BITMAP
0100
0300
0600
0400
0000
0E00
3F80
60C0
4060
C060
C020
C060
C060
60E0
31E0
1F20
ENDCHAR
STARTCHAR 00E2
ENCODING 226
SWIDTH 668 0
DWIDTH 13 0
BBX 11 15 1 0
BITMAP
0E00
1B00
1100
0000
0E00
3F80
60C0
4060
C060
C020
C060
C060
60E0
31E0
1F20
ENDCHAR
STARTCHAR 00E3
ENCODING 227
SWIDTH 668 0
DWIDTH 13 0
BBX 11 15 1 0
BITMAP
0800
3EC0
2380
0000
0E00
3F80
60C0
4060
C060
C020
C060
C060
60E0
31E0
1F20
ENDCHAR
STARTCHAR 00E4
ENCODING 228
SWIDTH 668 0
DWIDTH 13 0
BBX 11 15 1 0
BITMAP
1100
3980
0000
0000
0E00
3F80
60C0
4060
C060
C020
C060
C060
60E0
31E0
1F20
ENDCHAR
STARTCHAR 00E5
ENCODING 229
SWIDTH 668 0
DWIDTH 13 0
BBX 11 15 1 0
BITMAP
0E00
0A00
0A00
0400
0E00
3F80
60C0
4060
C060
C020
C060
C060
60E0
31E0
1F20
ENDCHAR
STARTCHAR 00E6
ENCODING 230
SWIDTH 1080 0
DWIDTH 21 0
BBX 20 11 1 0
BITMAP
0E0700
3F9FC0
60D060
406020
C06020
C03FF0
C06000
C06000
60F000
31F8E0
1F2F80
ENDCHAR
STARTCHAR 00E7
ENCODING 231
SWIDTH 617 0
DWIDTH 12 0
BBX 9 16 1 -5
BITMAP
0E00
3F80
6080
4000
C000
C000
C000
C000
6000
3180
1F00
0C00
0600
1300
1E00
0800
ENDCHAR
STARTCHAR 00E8
ENCODING 232
SWIDTH 617 0
DWIDTH 12 0
BBX 10 16 1 0
BITMAP
3000
1800
0C00
0400
0000
0E00
3F80
6080
40C0
C040
FFC0
C000
C000
6000
3180
1F00
ENDCHAR
STARTCHAR 00E9
ENCODING 233
SWIDTH 617 0
DWIDTH 12 0
BBX 10 16 1 0
BITMAP
0300
0700
0E00
0C00
0000
0E00
3F80
6080
40C0
C040
FFC0
C000
C000
6000
3180
1F00
ENDCHAR
STARTCHAR 00EA
ENCODING 234
SWIDTH 617 0
DWIDTH 12 0
BBX 10 15 1 0
BITMAP
0E00
3F00
2100
0000
0E00
3F80
6080
40C0
C040
FFC0
C000
C000
6000
3180
1F00
ENDCHAR
STARTCHAR 00EB
ENCODING 235
SWIDTH 617 0
DWIDTH 12 0
BBX 10 15 1 0
BITMAP
1100
3300
0000
0000
0E00
3F80
6080
40C0
C040
FFC0
C000
C000
6000
3180
1F00
ENDCHAR
STARTCHAR 00EC
ENCODING 236
SWIDTH 308 0
DWIDTH 6 0
BBX 4 16 0 0
BITMAP
80
C0
60
20
00
20
30
30
30
30
30
30
30
30
30
30
ENDCHAR
STARTCHAR 00ED
ENCODING 237
SWIDTH 308 0
DWIDTH 6 0
BBX 3 16 2 0
BITMAP
20
60
C0
80
00
80
C0
C0
C0
C0
C0
C0
C0
C0
C0
C0
ENDCHAR
STARTCHAR 00EE
ENCODING 238
SWIDTH 308 0
DWIDTH 6 0
BBX 5 15 0 0
BITMAP
30
F8
88
00
20
30
30
30
30
30
30
30
30
30
30
ENDCHAR
STARTCHAR 00EF
ENCODING 239
SWIDTH 308 0
DWIDTH 6 0
BBX 6 15 0 0
BITMAP
CC
CC
00
00
20
30
30
30
30
30
30
30
30
30
30
ENDCHAR
STARTCHAR 00F0
ENCODING 240
SWIDTH 668 0
DWIDTH 13 0
BBX 11 16 1 0
BITMAP
0400
1C00
0F00
0980
00C0
0040
1F40
71E0
60E0
C060
C060
C060
C040
40C0
7180
1F00
ENDCHAR
STARTCHAR 00F1
ENCODING 241
SWIDTH 668 0
DWIDTH 13 0
BBX 10 15 2 0
BITMAP
1000
7D80
4700
0000
9C00
BF00
C180
8080
80C0
80C0
80C0
80C0
80C0
80C0
80C0
ENDCHAR
STARTCHAR 00F2
ENCODING 242
SWIDTH 668 0
DWIDTH 13 0
BBX 11 16 1 0
BITMAP
1000
1800
0C00
0400
0000
0E00
3F80
60C0
4060
C060
C020
C060
C060
60C0
31C0
1F00
ENDCHAR
STARTCHAR 00F3
ENCODING 243
SWIDTH 668 0
DWIDTH 13 0
BBX 11 16 1 0
BITMAP
0100
0300
0600
0400
0000
0E00
3F80
60C0
4060
C060
C020
C060
C060
60C0
31C0
1F00
ENDCHAR
STARTCHAR 00F4
ENCODING 244
SWIDTH 668 0
DWIDTH 13 0
BBX 11 15 1 0
BITMAP
0E00
1B00
1100
0000
0E00
3F80
60C0
4060
C060
C020
C060
C060
60C0
31C0
1F00
ENDCHAR
STARTCHAR 00F5
ENCODING 245
SWIDTH 668 0
DWIDTH 13 0
BBX 11 15 1 0
BITMAP
0800
3EC0
2380
0000
0E00
3F80
60C0
4060
C060
C020
C060
C060
60C0
31C0
1F00
ENDCHAR
STARTCHAR 00F6
ENCODING 246
SWIDTH 668 0
DWIDTH 13 0
BBX 11 15 1 0
BITMAP
1100
3980
0000
0000
0E00
3F80
60C0
4060
C060
C020
C060
C060
60C0
31C0
1F00
ENDCHAR
STARTCHAR 00F7
ENCODING 247
SWIDTH 462 0
DWIDTH 9 0
BBX 7 8 1 3
BITMAP
10
10
00
FE
FE
00
10
10
ENDCHAR
STARTCHAR 00F8
ENCODING 248
SWIDTH 720 0
DWIDTH 14 0
BBX 11 11 1 0
BITMAP
0E20
3FE0
60C0
61E0
4320
4620
4C20
5860
7060
71C0
DF80
ENDCHAR
STARTCHAR 00F9
ENCODING 249
SWIDTH 668 0
DWIDTH 13 0
BBX 9 16 2 0
BITMAP
2000
3000
1800
0800
0000
8080
8080
8080
8080
8080
8080
8080
8080
C180
6380
3E80
ENDCHAR
STARTCHAR 00FA
ENCODING 250
SWIDTH 668 0
DWIDTH 13 0
BBX 9 16 2 0
BITMAP
0200
0600
0C00
0800
0000
8080
8080
8080
8080
8080
8080
8080
8080
C180
6380
3E80
ENDCHAR
STARTCHAR 00FB
ENCODING 251
SWIDTH 668 0
DWIDTH 13 0
BBX 9 15 2 0
BITMAP
1C00
3600
2200
0000
8080
8080
8080
8080
8080
8080
8080
8080
C180
6380
3E80
ENDCHAR
STARTCHAR 00FC
ENCODING 252
SWIDTH 668 0
DWIDTH 13 0
BBX 9 15 2 0
BITMAP
2200
7300
0000
0000
8080
8080
8080
8080
8080
8080
8080
8080
C180
6380
3E80
ENDCHAR
STARTCHAR 00FD
ENCODING 253
SWIDTH 565 0
DWIDTH 11 0
BBX 9 21 1 -5
BITMAP
0200
0600
0C00
0800
0000
8080
8080
C180
C100
4300
6300
2200
3600
1400
1C00
0800
1800
1000
3000
2000
2000
ENDCHAR
STARTCHAR 00FE
ENCODING 254
SWIDTH 720 0
DWIDTH 14 0
BBX 11 20 2 -5
BITMAP
8000
8000
8000
8000
8E00
BF80
E0C0
C040
8040
8060
8040
C040
C0C0
B180
9F00
8000
8000
8000
8000
8000
ENDCHAR
STARTCHAR 00FF
ENCODING 255
SWIDTH 565 0
DWIDTH 11 0
BBX 9 20 1 -5
BITMAP
2200
6700
0000
0000
8080
8080
C180
C100
4300
6300
2200
3600
1400
1C00
0800
1800
1000
3000
2000
2000
ENDCHAR
STARTCHAR 0100
ENCODING 256
SWIDTH 720 0
DWIDTH 14 0
BBX 13 19 0 0
BITMAP
0FC0
0FC0
0000
0000
0300
0300
0780
0580
0C80
0CC0
0840
1860
1060
3020
3FF0
6010
6018
4018
C008
ENDCHAR
STARTCHAR 0101
ENCODING 257
SWIDTH 668 0
DWIDTH 13 0
BBX 11 14 1 0
BITMAP
3F80
0000
0000
0E00
3F80
60C0
4060
C060
C020
C060
C060
60E0
31E0
1F20
ENDCHAR
STARTCHAR 0102
ENCODING 258
SWIDTH 720 0
DWIDTH 14 0
BBX 13 20 0 0
BITMAP
0840
0CC0
0780
0000
0000
0300
0300
0780
0580
0C80
0CC0
0840
1860
1060
3020
3FF0
6010
6018
4018
C008
ENDCHAR
STARTCHAR 0103
ENCODING 259
SWIDTH 668 0
DWIDTH 13 0
BBX 11 15 1 0
BITMAP
1180
1F00
0E00
0000
0E00
3F80
60C0
4060
C060
C020
C060
C060
60E0
31E0
1F20
ENDCHAR
STARTCHAR 0104
ENCODING 260
SWIDTH 720 0
DWIDTH 14 0
BBX 15 20 0 -5
BITMAP
0300
0300
0780
0580
0C80
0CC0
0840
1860
1060
3020
3FF0
6010
6018
4018
C008
0018
0030
0032
001E
0008
ENDCHAR
STARTCHAR 0105
ENCODING 261
SWIDTH 668 0
DWIDTH 13 0
BBX 13 16 1 -5
BITMAP
0E00
3F80
60C0
4060
C060
C020
C060
C060
60E0
31E0
1F20
0030
0060
0040
0078
0070
ENDCHAR
STARTCHAR 0106
ENCODING 262
SWIDTH 771 0
DWIDTH 15 0
BBX 13 20 1 0
BITMAP
00C0
01C0
0180
0000
0000
0FE0
1C38
3000
6000
4000
C000
C000
C000
C000
C000
4000
6000
3018
1C38
07E0
ENDCHAR
STARTCHAR 0107
ENCODING 263
SWIDTH 617 0
DWIDTH 12 0
BBX 9 16 1 0
BITMAP
0100
0300
0600
0400
0000
0E00
3F80
6080
4000
C000
C000
C000
C000
6000
3180
1F00
ENDCHAR
STARTCHAR 0108
ENCODING 264
SWIDTH 771 0
DWIDTH 15 0
BBX 13 20 1 0
BITMAP
0100
07C0
0660
0000
0000
0FE0
1C38
3000
6000
4000
C000
C000
C000
C000
C000
4000
6000
3018
1C38
07E0
ENDCHAR
STARTCHAR 0109
ENCODING 265
SWIDTH 617 0
DWIDTH 12 0
BBX 9 15 1 0
BITMAP
0E00
3B00
3100
0000
0E00
3F80
6080
4000
C000
C000
C000
C000
6000
3180
1F00
ENDCHAR
STARTCHAR 010A
ENCODING 266
SWIDTH 771 0
DWIDTH 15 0
BBX 13 19 1 0
BITMAP
0180
0100
0000
0000
0FE0
1C38
3000
6000
4000
C000
C000
C000
C000
C000
4000
6000
3018
1C38
07E0
ENDCHAR
STARTCHAR 010B
ENCODING 267
SWIDTH 617 0
DWIDTH 12 0
BBX 9 15 1 0
BITMAP
0400
0C00
0000
0000
0E00
3F80
6080
4000
C000
C000
C000
C000
6000
3180
1F00
ENDCHAR
STARTCHAR 010C
ENCODING 268
SWIDTH 771 0
DWIDTH 15 0
BBX 13 20 1 0
BITMAP
0460
06C0
0180
0000
0000
0FE0
1C38
3000
6000
4000
C000
C000
C000
C000
C000
4000
6000
3018
1C38
07E0
ENDCHAR
STARTCHAR 010D
ENCODING 269
SWIDTH 617 0
DWIDTH 12 0
BBX 9 15 1 0
BITMAP
3300
1E00
0400
0000
0E00
3F80
6080
4000
C000
C000
C000
C000
6000
3180
1F00
ENDCHAR
STARTCHAR 010E
ENCODING 270
SWIDTH 771 0
DWIDTH 15 0
BBX 12 20 2 0
BITMAP
1100
1B00
0E00
0000
0000
FF00
8380
80C0
8060
8020
8030
8030
8030
8030
8030
8020
8060
80C0
8380
FE00
ENDCHAR
STARTCHAR 010F
ENCODING 271
SWIDTH 771 0
DWIDTH 15 0
BBX 15 15 1 0
BITMAP
0064
0066
0064
006C
0E68
3FE0
60E0
4060
C060
C020
C060
C060
60C0
3180
1F00
ENDCHAR
STARTCHAR 0110
ENCODING 272
SWIDTH 771 0
DWIDTH 15 0
BBX 14 15 0 0
BITMAP
3FC0
20E0
2030
2018
2008
200C
200C
FE0C
200C
200C
2008
2018
2030
20E0
3F80
ENDCHAR
STARTCHAR 0111
ENCODING 273
SWIDTH 720 0
DWIDTH 14 0
BBX 13 15 1 0
BITMAP
0060
0060
03F8
0060
0E60
3FE0
60E0
4060
C060
C020
C060
C060
60C0
3180
1F00
ENDCHAR
STARTCHAR 0112
ENCODING 274
SWIDTH 668 0
DWIDTH 13 0
BBX 11 19 2 0
BITMAP
3F00
3F00
0000
0000
FFE0
8000
8000
8000
8000
8000
8000
FF00
8000
8000
8000
8000
8000
8000
FFE0
ENDCHAR
STARTCHAR 0113
ENCODING 275
SWIDTH 617 0
DWIDTH 12 0
BBX 10 14 1 0
BITMAP
3F00
0000
0000
0E00
3F80
6080
40C0
C040
FFC0
C000
C000
6000
3180
1F00
ENDCHAR
STARTCHAR 0114
ENCODING 276
SWIDTH 668 0
DWIDTH 13 0
BBX 11 20 2 0
BITMAP
3100
3100
1F00
0000
0000
FFE0
8000
8000
8000
8000
8000
8000
FF00
8000
8000
8000
8000
8000
8000
FFE0
ENDCHAR
STARTCHAR 0115
ENCODING 277
SWIDTH 617 0
DWIDTH 12 0
BBX 10 15 1 0
BITMAP
3100
3F00
0E00
0000
0E00
3F80
6080
40C0
C040
FFC0
C000
C000
6000
3180
1F00
ENDCHAR
STARTCHAR 0116
ENCODING 278
SWIDTH 668 0
DWIDTH 13 0
BBX 11 19 2 0
BITMAP
0C00
0400
0000
0000
FFE0
8000
8000
8000
8000
8000
8000
FF00
8000
8000
8000
8000
8000
8000
FFE0
ENDCHAR
STARTCHAR 0117
ENCODING 279
SWIDTH 617 0
DWIDTH 12 0
BBX 10 15 1 0
BITMAP
0C00
0C00
0000
0000
0E00
3F80
6080
40C0
C040
FFC0
C000
C000
6000
3180
1F00
ENDCHAR
STARTCHAR 0118
ENCODING 280
SWIDTH 668 0
DWIDTH 13 0
BBX 12 20 2 -5
BITMAP
FFE0
8000
8000
8000
8000
8000
8000
FF00
8000
8000
8000
8000
8000
8000
FFE0
0060
00E0
0080
00D0
0070
ENDCHAR
STARTCHAR 0119
ENCODING 281
SWIDTH 617 0
DWIDTH 12 0
BBX 10 15 1 -4
BITMAP
0E00
3F80
6080
40C0
C040
FFC0
C000
C000
6000
3180
1F00
0600
0400
0780
0300
ENDCHAR
STARTCHAR 011A
ENCODING 282
SWIDTH 668 0
DWIDTH 13 0
BBX 11 20 2 0
BITMAP
3100
1B00
0C00
0000
0000
FFE0
8000
8000
8000
8000
8000
8000
FF00
8000
8000
8000
8000
8000
8000
FFE0
ENDCHAR
STARTCHAR 011B
ENCODING 283
SWIDTH 617 0
DWIDTH 12 0
BBX 10 15 1 0
BITMAP
3300
1E00
0400
0000
0E00
3F80
6080
40C0
C040
FFC0
C000
C000
6000
3180
1F00
ENDCHAR
STARTCHAR 011C
ENCODING 284
SWIDTH 771 0
DWIDTH 15 0
BBX 13 20 1 0
BITMAP
0100
07C0
0460
0000
0000
0FE0
1C38
3000
6000
4000
C000
C000
C0F0
C0F8
C018
4018
6018
3018
1C38
07E0
ENDCHAR
STARTCHAR 011D
ENCODING 285
SWIDTH 668 0
DWIDTH 13 0
BBX 11 19 1 -4
BITMAP
0E00
1B00
1100
0000
0E00
3F80
60C0
4060
C060
C020
C060
C060
6060
31A0
1F60
0060
4040
71C0
1F00
ENDCHAR
STARTCHAR 011E
ENCODING 286
SWIDTH 771 0
DWIDTH 15 0
BBX 13 20 1 0
BITMAP
0440
0440
07C0
0000
0000
0FE0
1C38
3000
6000
4000
C000
C000
C0F0
C0F8
C018
4018
6018
3018
1C38
07E0
ENDCHAR
STARTCHAR 011F
ENCODING 287
SWIDTH 668 0
DWIDTH 13 0
BBX 11 19 1 -4
BITMAP
1180
1F00
0E00
0000
0E00
3F80
60C0
4060
C060
C020
C060
C060
6060
31A0
1F60
0060
4040
71C0
1F00
ENDCHAR
STARTCHAR 0120
ENCODING 288
SWIDTH 771 0
DWIDTH 15 0
BBX 13 19 1 0
BITMAP
0380
0100
0000
0000
0FE0
1C38
3000
6000
4000
C000
C000
C0F0
C0F8
C018
4018
6018
3018
1C38
07E0
ENDCHAR
STARTCHAR 0121
ENCODING 289
SWIDTH 668 0
DWIDTH 13 0
BBX 11 19 1 -4
BITMAP
0400
0600
0000
0000
0E00
3F80
60C0
4060
C060
C020
C060
C060
6060
31A0
1F60
0060
4040
71C0
1F00
ENDCHAR
STARTCHAR 0122
ENCODING 290
SWIDTH 771 0
DWIDTH 15 0
BBX 13 20 1 -5
BITMAP
0FE0
1C38
3000
6000
4000
C000
C000
C0F0
C0F8
C018
4018
6018
3018
1C38
07E0
0000
0180
0040
07C0
0100
ENDCHAR
STARTCHAR 0123
ENCODING 291
SWIDTH 668 0
DWIDTH 13 0
BBX 11 22 1 -4
BITMAP
0200
0400
0400
0C00
0E00
0000
0000
0E00
3F80
60C0
4060
C060
C020
C060
C060
6060
31A0
1F60
0060
4040
71C0
1F00
ENDCHAR
STARTCHAR 0124
ENCODING 292
SWIDTH 822 0
DWIDTH 16 0
BBX 12 20 2 0
BITMAP
0600
0F00
1980
0000
0000
8010
8010
8010
8010
8010
8010
8010
FFF0
8010
8010
8010
8010
8010
8010
8010
ENDCHAR
STARTCHAR 0125
ENCODING 293
SWIDTH 668 0
DWIDTH 13 0
BBX 13 20 -1 0
BITMAP
1000
7C00
C600
0000
0000
1000
1000
1000
1000
1380
17E0
1830
1010
1018
1018
1018
1018
1018
1018
1018
ENDCHAR
STARTCHAR 0126
ENCODING 294
SWIDTH 822 0
DWIDTH 16 0
BBX 15 15 1 0
BITMAP
4008
4008
FFFE
FFFE
4008
4008
4008
7FF8
4008
4008
4008
4008
4008
4008
4008
ENDCHAR
STARTCHAR 0127
ENCODING 295
SWIDTH 668 0
DWIDTH 13 0
BBX 12 15 0 0
BITMAP
2000
2000
FF00
2000
2700
2FC0
3060
2020
2030
2030
2030
2030
2030
2030
2030
ENDCHAR
STARTCHAR 0128
ENCODING 296
SWIDTH 257 0
DWIDTH 5 0
BBX 6 20 0 0
BITMAP
40
EC
98
00
00
20
20
20
20
20
20
20
20
20
20
20
20
20
20
20
ENDCHAR
STARTCHAR 0129
ENCODING 297
SWIDTH 308 0
DWIDTH 6 0
BBX 6 15 0 0
BITMAP
E4
BC
00
00
20
30
30
30
30
30
30
30
30
30
30
ENDCHAR
STARTCHAR 012A
ENCODING 298
SWIDTH 257 0
DWIDTH 5 0
BBX 6 19 0 0
BITMAP
FC
FC
00
00
20
20
20
20
20
20
20
20
20
20
20
20
20
20
20
ENDCHAR
STARTCHAR 012B
ENCODING 299
SWIDTH 308 0
DWIDTH 6 0
BBX 5 14 0 0
BITMAP
F8
00
00
20
30
30
30
30
30
30
30
30
30
30
ENDCHAR
STARTCHAR 012C
ENCODING 300
SWIDTH 257 0
DWIDTH 5 0
BBX 6 20 0 0
BITMAP
8C
8C
F8
00
00
20
20
20
20
20
20
20
20
20
20
20
20
20
20
20
ENDCHAR
STARTCHAR 012D
ENCODING 301
SWIDTH 308 0
DWIDTH 6 0
BBX 6 15 0 0
BITMAP
8C
F8
30
00
20
30
30
30
30
30
30
30
30
30
30
ENDCHAR
STARTCHAR 012E
ENCODING 302
SWIDTH 257 0
DWIDTH 5 0
BBX 5 20 0 -5
BITMAP
20
20
20
20
20
20
20
20
20
20
20
20
20
20
20
20
60
C0
58
70
ENDCHAR
STARTCHAR 012F
ENCODING 303
SWIDTH 308 0
DWIDTH 6 0
BBX 4 20 1 -5
BITMAP
60
60
00
00
40
60
60
60
60
60
60
60
60
60
60
60
C0
80
B0
E0
ENDCHAR
STARTCHAR 0130
ENCODING 304
SWIDTH 257 0
DWIDTH 5 0
BBX 2 19 2 0
BITMAP
C0
80
00
00
80
80
80
80
80
80
80
80
80
80
80
80
80
80
80
ENDCHAR
STARTCHAR 0131
ENCODING 305
SWIDTH 308 0
DWIDTH 6 0
BBX 2 11 2 0
BITMAP
80
C0
C0
C0
C0
C0
C0
C0
C0
C0
C0
ENDCHAR
STARTCHAR 0132
ENCODING 306
SWIDTH 617 0
DWIDTH 12 0
BBX 8 15 2 0
BITMAP
81
81
81
81
81
81
81
81
81
01
01
81
C3
E7
7C
ENDCHAR
STARTCHAR 0133
ENCODING 307
SWIDTH 565 0
DWIDTH 11 0
BBX 7 20 2 -5
BITMAP
C2
C6
00
00
82
C2
C2
C2
C2
C2
C2
C2
C2
C2
C2
02
06
0C
3C
20
ENDCHAR
STARTCHAR 0134
ENCODING 308
SWIDTH 617 0
DWIDTH 12 0
BBX 11 20 1 0
BITMAP
0080
03C0
0660
0000
0000
0180
0180
0180
0180
0180
0180
0180
0180
0180
0180
8180
8180
C180
6300
3E00
ENDCHAR
STARTCHAR 0135
ENCODING 309
SWIDTH 308 0
DWIDTH 6 0
BBX 7 20 -2 -5
BITMAP
1C
36
22
00
08
08
08
08
08
08
08
08
08
08
08
08
08
18
F0
40
ENDCHAR
STARTCHAR 0136
ENCODING 310
SWIDTH 668 0
DWIDTH 13 0
BBX 10 20 2 -5
BITMAP
80C0
8180
8300
8600
8C00
9800
B000
F800
CC00
8600
8600
8300
8180
8080
80C0
0000
0C00
0200
3E00
0800
ENDCHAR
STARTCHAR 0137
ENCODING 311
SWIDTH 565 0
DWIDTH 11 0
BBX 8 20 2 -5
BITMAP
80
80
80
80
81
83
8C
98
B0
F0
D8
8C
86
82
83
00
18
04
7C
18
ENDCHAR
STARTCHAR 0138
ENCODING 312
SWIDTH 565 0
DWIDTH 11 0
BBX 8 11 2 0
BITMAP
81
83
8C
98
B0
F0
D8
8C
86
82
83
ENDCHAR
STARTCHAR 0139
ENCODING 313
SWIDTH 617 0
DWIDTH 12 0
BBX 10 20 2 0
BITMAP
6000
E000
C000
0000
0000
8000
8000
8000
8000
8000
8000
8000
8000
8000
8000
8000
8000
8000
8000
FFC0
ENDCHAR
STARTCHAR 013A
ENCODING 314
SWIDTH 257 0
DWIDTH 5 0
BBX 4 18 1 0
BITMAP
30
60
C0
00
00
C0
C0
C0
C0
C0
C0
C0
C0
C0
C0
C0
60
30
ENDCHAR
STARTCHAR 013B
ENCODING 315
SWIDTH 617 0
DWIDTH 12 0
BBX 10 20 2 -5
BITMAP
8000
8000
8000
8000
8000
8000
8000
8000
8000
8000
8000
8000
8000
8000
FFC0
0000
1C00
0200
3E00
1800
ENDCHAR
STARTCHAR 013C
ENCODING 316
SWIDTH 257 0
DWIDTH 5 0
BBX 6 20 1 -5
BITMAP
C0
C0
C0
C0
C0
C0
C0
C0
C0
C0
C0
C0
C0
60
30
00
38
0C
78
30
ENDCHAR
STARTCHAR 013D
ENCODING 317
SWIDTH 617 0
DWIDTH 12 0
BBX 10 15 2 0
BITMAP
8200
8300
8200
8600
8400
8000
8000
8000
8000
8000
8000
8000
8000
8000
FFC0
ENDCHAR
STARTCHAR 013E
ENCODING 318
SWIDTH 360 0
DWIDTH 7 0
BBX 6 15 1 0
BITMAP
CC
C4
C4
C8
C8
C0
C0
C0
C0
C0
C0
C0
C0
60
30
ENDCHAR
STARTCHAR 013F
ENCODING 319
SWIDTH 565 0
DWIDTH 11 0
BBX 10 15 2 0
BITMAP
8000
8000
8000
8000
8000
8000
8000
8700
8200
8000
8000
8000
8000
8000
FFC0
ENDCHAR
STARTCHAR 0140
ENCODING 320
SWIDTH 360 0
DWIDTH 7 0
BBX 6 15 1 0
BITMAP
C0
C0
C0
C0
C0
C0
C0
CC
CC
C0
C0
C0
C0
60
30
ENDCHAR
STARTCHAR 0141
ENCODING 321
SWIDTH 668 0
DWIDTH 13 0
BBX 12 15 0 0
BITMAP
3000
3000
3000
3200
3600
3C00
3800
3000
7000
F000
3000
3000
3000
3FF0
3FF0
ENDCHAR
STARTCHAR 0142
ENCODING 322
SWIDTH 360 0
DWIDTH 7 0
BBX 6 15 0 0
BITMAP
30
30
30
30
34
3C
38
30
70
F0
30
30
30
38
38
ENDCHAR
STARTCHAR 0143
ENCODING 323
SWIDTH 822 0
DWIDTH 16 0
BBX 12 20 2 0
BITMAP
0180
0300
0600
0000
0000
C010
C010
E010
B010
9810
8810
8C10
8610
8310
8110
8090
80D0
8070
8030
8010
ENDCHAR
STARTCHAR 0144
ENCODING 324
SWIDTH 668 0
DWIDTH 13 0
BBX 10 16 2 0
BITMAP
0200
0600
0C00
0800
0000
9C00
BF00
C180
8080
80C0
80C0
80C0
80C0
80C0
80C0
80C0
ENDCHAR
STARTCHAR 0145
ENCODING 325
SWIDTH 822 0
DWIDTH 16 0
BBX 12 20 2 -5
BITMAP
C010
C010
E010
B010
9810
8810
8C10
8610
8310
8110
8090
80D0
8070
8030
8010
0000
0700
0100
0F00
0600
ENDCHAR
STARTCHAR 0146
ENCODING 326
SWIDTH 668 0
DWIDTH 13 0
BBX 10 16 2 -5
BITMAP
9C00
BF00
C180
8080
80C0
80C0
80C0
80C0
80C0
80C0
80C0
0000
0E00
0200
3E00
0C00
ENDCHAR
STARTCHAR 0147
ENCODING 327
SWIDTH 822 0
DWIDTH 16 0
BBX 12 20 2 0
BITMAP
1080
1F80
0600
0000
0000
C010
C010
E010
B010
9810
8810
8C10
8610
8310
8110
8090
80D0
8070
8030
8010
ENDCHAR
STARTCHAR 0148
ENCODING 328
SWIDTH 668 0
DWIDTH 13 0
BBX 10 15 2 0
BITMAP
3300
1C00
0800
0000
9C00
BF00
C180
8080
80C0
80C0
80C0
80C0
80C0
80C0
80C0
ENDCHAR
STARTCHAR 014A
ENCODING 330
SWIDTH 720 0
DWIDTH 14 0
BBX 11 15 2 0
BITMAP
9F00
B180
C0C0
C040
8040
8060
8060
8060
8060
8060
8040
8040
90C0
9980
8F00
ENDCHAR
STARTCHAR 014B
ENCODING 331
SWIDTH 668 0
DWIDTH 13 0
BBX 10 15 2 -4
BITMAP
9C00
BF00
C180
8080
80C0
80C0
80C0
80C0
80C0
80C0
8080
0080
2180
3300
1E00
ENDCHAR
STARTCHAR 014C
ENCODING 332
SWIDTH 925 0
DWIDTH 18 0
BBX 16 19 1 0
BITMAP
07E0
07E0
0000
0000
0FF0
1C38
300C
6006
4002
C002
C003
C003
C003
C002
4006
6006
300C
1C38
07E0
ENDCHAR
STARTCHAR 014D
ENCODING 333
SWIDTH 668 0
DWIDTH 13 0
BBX 11 14 1 0
BITMAP
3F80
0000
0000
0E00
3F80
60C0
4060
C060
C020
C060
C060
60C0
31C0
1F00
ENDCHAR
STARTCHAR 014E
ENCODING 334
SWIDTH 925 0
DWIDTH 18 0
BBX 16 20 1 0
BITMAP
0420
0660
03C0
0000
0000
0FF0
1C38
300C
6006
4002
C002
C003
C003
C003
C002
4006
6006
300C
1C38
07E0
ENDCHAR
STARTCHAR 014F
ENCODING 335
SWIDTH 668 0
DWIDTH 13 0
BBX 11 15 1 0
BITMAP
1180
1F00
0E00
0000
0E00
3F80
60C0
4060
C060
C020
C060
C060
60C0
31C0
1F00
ENDCHAR
STARTCHAR 0150
ENCODING 336
SWIDTH 925 0
DWIDTH 18 0
BBX 16 21 1 0
BITMAP
0120
0120
0360
0240
0000
0000
0FF0
1C38
300C
6006
4002
C002
C003
C003
C003
C002
4006
6006
300C
1C38
07E0
ENDCHAR
STARTCHAR 0151
ENCODING 337
SWIDTH 668 0
DWIDTH 13 0
BBX 11 16 1 0
BITMAP
0D80
0D00
0900
0B00
0000
0E00
3F80
60C0
4060
C060
C020
C060
C060
60C0
31C0
1F00
ENDCHAR
STARTCHAR 0152
ENCODING 338
SWIDTH 1131 0
DWIDTH 22 0
BBX 21 15 1 0
BITMAP
0FFFF8
1C1000
301000
601000
401000
C01000
C01000
C01FC0
C01000
C01000
401000
601000
301000
1C1000
07FFF0
ENDCHAR
STARTCHAR 0153
ENCODING 339
SWIDTH 1080 0
DWIDTH 21 0
BBX 19 11 1 0
BITMAP
0E0700
3F9FC0
60F060
406020
C06020
C03FE0
C06000
C06000
607000
3198E0
1F0F80
ENDCHAR
STARTCHAR 0154
ENCODING 340
SWIDTH 617 0
DWIDTH 12 0
BBX 10 20 2 0
BITMAP
0600
0C00
1800
0000
0000
FE00
8300
8180
8080
8080
8080
8180
8700
FE00
8600
8200
8300
8180
8180
80C0
ENDCHAR
STARTCHAR 0155
ENCODING 341
SWIDTH 462 0
DWIDTH 9 0
BBX 6 16 2 0
BITMAP
0C
18
30
20
00
9C
BC
C0
80
80
80
80
80
80
80
80
ENDCHAR
STARTCHAR 0156
ENCODING 342
SWIDTH 617 0
DWIDTH 12 0
BBX 10 20 2 -5
BITMAP
FE00
8300
8180
8080
8080
8080
8180
8700
FE00
8600
8200
8300
8180
8180
80C0
0000
1C00
0200
3E00
1800
ENDCHAR
STARTCHAR 0157
ENCODING 343
SWIDTH 462 0
DWIDTH 9 0
BBX 8 16 0 -5
BITMAP
27
2F
30
20
20
20
20
20
20
20
20
00
30
08
F8
30
ENDCHAR
STARTCHAR 0158
ENCODING 344
SWIDTH 617 0
DWIDTH 12 0
BBX 10 20 2 0
BITMAP
6200
3E00
1800
0000
0000
FE00
8300
8180
8080
8080
8080
8180
8700
FE00
8600
8200
8300
8180
8180
80C0
ENDCHAR
STARTCHAR 0159
ENCODING 345
SWIDTH 462 0
DWIDTH 9 0
BBX 6 15 2 0
BITMAP
CC
78
00
00
9C
BC
C0
80
80
80
80
80
80
80
80
ENDCHAR
STARTCHAR 015A
ENCODING 346
SWIDTH 668 0
DWIDTH 13 0
BBX 11 20 1 0
BITMAP
0300
0600
0400
0000
0000
3F80
61C0
4040
4000
4000
6000
3E00
0F80
00C0
0040
0060
8060
C040
71C0
3F80
ENDCHAR
STARTCHAR 015B
ENCODING 347
SWIDTH 514 0
DWIDTH 10 0
BBX 9 16 1 0
BITMAP
0200
0600
0C00
0800
0000
1C00
7F00
4100
4000
6000
3E00
0300
0180
8180
E300
3E00
ENDCHAR
STARTCHAR 015C
ENCODING 348
SWIDTH 668 0
DWIDTH 13 0
BBX 11 20 1 0
BITMAP
0400
1F00
3100
0000
0000
3F80
61C0
4040
4000
4000
6000
3E00
0F80
00C0
0040
0060
8060
C040
71C0
3F80
ENDCHAR
STARTCHAR 015D
ENCODING 349
SWIDTH 514 0
DWIDTH 10 0
BBX 9 15 1 0
BITMAP
1C00
3600
2200
0000
1C00
7F00
4100
4000
6000
3E00
0300
0180
8180
E300
3E00
ENDCHAR
STARTCHAR 015E
ENCODING 350
SWIDTH 668 0
DWIDTH 13 0
BBX 11 20 1 -5
BITMAP
3F80
61C0
4040
4000
4000
6000
3E00
0F80
00C0
0040
0060
8060
C040
71C0
3F80
0400
0700
1300
1F00
0400
ENDCHAR
STARTCHAR 015F
ENCODING 351
SWIDTH 514 0
DWIDTH 10 0
BBX 9 16 1 -5
BITMAP
1C00
7F00
4100
4000
6000
3E00
0300
0180
8180
E300
3E00
0800
0E00
2600
3E00
0800
ENDCHAR
STARTCHAR 0160
ENCODING 352
SWIDTH 668 0
DWIDTH 13 0
BBX 11 20 1 0
BITMAP
3100
1B00
0C00
0000
0000
3F80
61C0
4040
4000
4000
6000
3E00
0F80
00C0
0040
0060
8060
C040
71C0
3F80
ENDCHAR
STARTCHAR 0161
ENCODING 353
SWIDTH 514 0
DWIDTH 10 0
BBX 9 15 1 0
BITMAP
6600
1C00
0800
0000
1C00
7F00
4100
4000
6000
3E00
0300
0180
8180
E300
3E00
ENDCHAR
STARTCHAR 0162
ENCODING 354
SWIDTH 668 0
DWIDTH 13 0
BBX 12 20 0 -5
BITMAP
FFF0
0200
0200
0200
0200
0200
0200
0200
0200
0200
0200
0200
0200
0200
0200
0200
0380
0980
0F80
0200
ENDCHAR
STARTCHAR 0163
ENCODING 355
SWIDTH 411 0
DWIDTH 8 0
BBX 7 19 0 -5
BITMAP
30
30
30
30
FE
30
30
30
30
30
30
10
1C
0E
08
0E
26
3E
08
ENDCHAR
STARTCHAR 0164
ENCODING 356
SWIDTH 668 0
DWIDTH 13 0
BBX 12 20 0 0
BITMAP
1880
0D80
0600
0000
0000
FFF0
0200
0200
0200
0200
0200
0200
0200
0200
0200
0200
0200
0200
0200
0200
ENDCHAR
STARTCHAR 0165
ENCODING 357
SWIDTH 411 0
DWIDTH 8 0
BBX 7 17 0 0
BITMAP
06
06
02
36
34
30
30
FE
30
30
30
30
30
30
10
1C
0E
ENDCHAR
STARTCHAR 0166
ENCODING 358
SWIDTH 668 0
DWIDTH 13 0
BBX 12 15 0 0
BITMAP
FFF0
0200
0200
0200
0200
0200
0200
1FC0
0200
0200
0200
0200
0200
0200
0200
ENDCHAR
STARTCHAR 0167
ENCODING 359
SWIDTH 411 0
DWIDTH 8 0
BBX 7 14 0 0
BITMAP
30
30
30
30
FE
30
30
FC
30
30
30
10
1C
0E
ENDCHAR
STARTCHAR 0168
ENCODING 360
SWIDTH 822 0
DWIDTH 16 0
BBX 12 19 2 0
BITMAP
1E40
33C0
0000
0000
8030
8030
8030
8030
8030
8030
8030
8030
8030
8030
8030
C030
4020
70E0
1F80
ENDCHAR
STARTCHAR 0169
ENCODING 361
SWIDTH 668 0
DWIDTH 13 0
BBX 9 15 2 0
BITMAP
1000
7D80
4700
0000
8080
8080
8080
8080
8080
8080
8080
8080
C180
6380
3E80
ENDCHAR
STARTCHAR 016A
ENCODING 362
SWIDTH 822 0
DWIDTH 16 0
BBX 12 19 2 0
BITMAP
1F80
1F80
0000
0000
8030
8030
8030
8030
8030
8030
8030
8030
8030
8030
8030
C030
4020
70E0
1F80
ENDCHAR
STARTCHAR 016B
ENCODING 363
SWIDTH 668 0
DWIDTH 13 0
BBX 9 14 2 0
BITMAP
7F00
0000
0000
8080
8080
8080
8080
8080
8080
8080
8080
C180
6380
3E80
ENDCHAR
STARTCHAR 016C
ENCODING 364
SWIDTH 822 0
DWIDTH 16 0
BBX 12 20 2 0
BITMAP
1080
1980
0F00
0000
0000
8030
8030
8030
8030
8030
8030
8030
8030
8030
8030
8030
C030
4020
70E0
1F80
ENDCHAR
STARTCHAR 016D
ENCODING 365
SWIDTH 668 0
DWIDTH 13 0
BBX 9 15 2 0
BITMAP
2300
3E00
1C00
0000
8080
8080
8080
8080
8080
8080
8080
8080
C180
6380
3E80
ENDCHAR
STARTCHAR 016E
ENCODING 366
SWIDTH 822 0
DWIDTH 16 0
BBX 12 20 2 0
BITMAP
0600
0900
0900
0600
0000
8030
8030
8030
8030
8030
8030
8030
8030
8030
8030
8030
C030
4020
70E0
1F80
ENDCHAR
STARTCHAR 016F
ENCODING 367
SWIDTH 668 0
DWIDTH 13 0
BBX 9 15 2 0
BITMAP
1C00
1400
1400
0800
8080
8080
8080
8080
8080
8080
8080
8080
C180
6380
3E80
ENDCHAR
STARTCHAR 0170
ENCODING 368
SWIDTH 822 0
DWIDTH 16 0
BBX 12 21 2 0
BITMAP
0480
0480
0D80
0900
0000
0000
8030
8030
8030
8030
8030
8030
8030
8030
8030
8030
8030
C030
4020
70E0
1F80
ENDCHAR
STARTCHAR 0171
ENCODING 369
SWIDTH 668 0
DWIDTH 13 0
BBX 9 16 2 0
BITMAP
1B00
1A00
1200
1600
0000
8080
8080
8080
8080
8080
8080
8080
8080
C180
6380
3E80
ENDCHAR
STARTCHAR 0172
ENCODING 370
SWIDTH 822 0
DWIDTH 16 0
BBX 12 19 2 -4
BITMAP
8030
8030
8030
8030
8030
8030
8030
8030
8030
8030
8030
C030
4020
70E0
1F80
0300
0200
02C0
03C0
ENDCHAR
STARTCHAR 0173
ENCODING 371
SWIDTH 668 0
DWIDTH 13 0
BBX 11 16 2 -5
BITMAP
8080
8080
8080
8080
8080
8080
8080
8080
C180
6380
3E80
0080
0180
0300
0360
01C0
ENDCHAR
STARTCHAR 0174
ENCODING 372
SWIDTH 925 0
DWIDTH 18 0
BBX 18 20 0 0
BITMAP
00C000
01E000
033000
000000
000000
C040C0
40C0C0
40C080
60E180
61A180
212100
312100
333300
131300
121200
1A1E00
0E1E00
0C0C00
0C0C00
0C0C00
ENDCHAR
STARTCHAR 0175
ENCODING 373
SWIDTH 720 0
DWIDTH 14 0
BBX 14 15 0 0
BITMAP
0380
0EC0
0840
0000
0104
C30C
430C
6388
6688
2498
34D0
3C50
1870
1860
1820
ENDCHAR
STARTCHAR 0176
ENCODING 374
SWIDTH 668 0
DWIDTH 13 0
BBX 12 20 0 0
BITMAP
0200
0F80
1980
0000
0000
C010
4030
6020
3060
30C0
18C0
0980
0D00
0700
0200
0200
0200
0200
0200
0200
ENDCHAR
STARTCHAR 0177
ENCODING 375
SWIDTH 565 0
DWIDTH 11 0
BBX 9 20 1 -5
BITMAP
1C00
3600
2200
0000
8080
8080
C180
C100
4300
6300
2200
3600
1400
1C00
0800
1800
1000
3000
2000
2000
ENDCHAR
STARTCHAR 0178
ENCODING 376
SWIDTH 668 0
DWIDTH 13 0
BBX 12 19 0 0
BITMAP
1980
1880
0000
0000
C010
4030
6020
3060
30C0
18C0
0980
0D00
0700
0200
0200
0200
0200
0200
0200
ENDCHAR
STARTCHAR 0179
ENCODING 377
SWIDTH 720 0
DWIDTH 14 0
BBX 12 20 1 0
BITMAP
0180
0300
0600
0000
0000
FFF0
0030
0060
00C0
0080
0100
0300
0600
0C00
0800
1000
3000
6000
C000
FFF0
ENDCHAR
STARTCHAR 017A
ENCODING 378
SWIDTH 565 0
DWIDTH 11 0
BBX 9 16 1 0
BITMAP
0200
0600
0C00
0800
0000
FF80
FF80
0300
0600
0400
0C00
1800
3000
6000
4000
FF80
ENDCHAR
STARTCHAR 017B
ENCODING 379
SWIDTH 720 0
DWIDTH 14 0
BBX 12 19 1 0
BITMAP
0600
0600
0000
0000
FFF0
0030
0060
00C0
0080
0100
0300
0600
0C00
0800
1000
3000
6000
C000
FFF0
ENDCHAR
STARTCHAR 017C
ENCODING 380
SWIDTH 565 0
DWIDTH 11 0
BBX 9 15 1 0
BITMAP
0800
1C00
0000
0000
FF80
FF80
0300
0600
0400
0C00
1800
3000
6000
4000
FF80
ENDCHAR
STARTCHAR 017D
ENCODING 381
SWIDTH 720 0
DWIDTH 14 0
BBX 12 20 1 0
BITMAP
1080
1F80
0600
0000
0000
FFF0
0030
0060
00C0
0080
0100
0300
0600
0C00
0800
1000
3000
6000
C000
FFF0
ENDCHAR
STARTCHAR 017E
ENCODING 382
SWIDTH 565 0
DWIDTH 11 0
BBX 9 15 1 0
BITMAP
2300
1C00
0800
0000
FF80
FF80
0300
0600
0400
0C00
1800
3000
6000
4000
FF80
ENDCHAR
STARTCHAR 017F
ENCODING 383
SWIDTH 308 0
DWIDTH 6 0
BBX 5 15 1 0
BITMAP
38
60
C0
C0
C0
C0
C0
C0
C0
C0
C0
C0
C0
C0
C0
ENDCHAR
STARTCHAR 018F
ENCODING 399
SWIDTH 822 0
DWIDTH 16 0
BBX 14 15 1 0
BITMAP
1FC0
3070
0030
0018
000C
000C
0004
FFFC
C004
C00C
400C
6018
3018
1870
0FC0
ENDCHAR
STARTCHAR 0192
ENCODING 402
SWIDTH 462 0
DWIDTH 9 0
BBX 9 20 0 -5
BITMAP
0380
0E00
0C00
0800
0800
3F00
0800
0800
0800
0800
0800
0800
0800
0800
0800
0800
0800
1800
F000
C000
ENDCHAR
STARTCHAR 01A0
ENCODING 416
SWIDTH 925 0
DWIDTH 18 0
BBX 16 17 1 0
BITMAP
0004
0006
0FFC
1C3C
300C
6006
4002
C002
C003
C003
C003
C002
4006
6006
300C
1C38
07E0
ENDCHAR
STARTCHAR 01A1
ENCODING 417
SWIDTH 668 0
DWIDTH 13 0
BBX 11 12 1 0
BITMAP
0020
0E60
3FC0
60C0
4060
C060
C020
C060
C060
60C0
31C0
1F00
ENDCHAR
STARTCHAR 01AF
ENCODING 431
SWIDTH 822 0
DWIDTH 16 0
BBX 14 17 2 0
BITMAP
0004
0004
803C
8030
8030
8030
8030
8030
8030
8030
8030
8030
8030
C030
4020
70E0
1F80
ENDCHAR
STARTCHAR 01B0
ENCODING 432
SWIDTH 668 0
DWIDTH 13 0
BBX 12 13 2 0
BITMAP
0030
0030
80E0
80C0
8080
8080
8080
8080
8080
8080
C180
6380
3E80
ENDCHAR
STARTCHAR 01CE
ENCODING 462
SWIDTH 668 0
DWIDTH 13 0
BBX 11 15 1 0
BITMAP
1980
0E00
0400
0000
0E00
3F80
60C0
4060
C060
C020
C060
C060
60E0
31E0
1F20
ENDCHAR
STARTCHAR 01D4
ENCODING 468
SWIDTH 668 0
DWIDTH 13 0
BBX 9 15 2 0
BITMAP
3300
1C00
0800
0000
8080
8080
8080
8080
8080
8080
8080
8080
C180
6380
3E80
ENDCHAR
STARTCHAR 01E6
ENCODING 486
SWIDTH 771 0
DWIDTH 15 0
BBX 13 20 1 0
BITMAP
0460
06C0
0180
0000
0000
0FE0
1C38
3000
6000
4000
C000
C000
C0F0
C0F8
C018
4018
6018
3018
1C38
07E0
ENDCHAR
STARTCHAR 01E7
ENCODING 487
SWIDTH 668 0
DWIDTH 13 0
BBX 11 19 1 -4
BITMAP
1980
0E00
0400
0000
0E00
3F80
60C0
4060
C060
C020
C060
C060
6060
31A0
1F60
0060
4040
71C0
1F00
ENDCHAR
STARTCHAR 01EA
ENCODING 490
SWIDTH 925 0
DWIDTH 18 0
BBX 16 20 1 -5
BITMAP
0FF0
1C38
300C
6006
4002
C002
C003
C003
C003
C002
4006
6006
300C
1C38
07E0
0180
0300
0200
03C0
0380
ENDCHAR
STARTCHAR 01EB
ENCODING 491
SWIDTH 668 0
DWIDTH 13 0
BBX 11 15 1 -4
BITMAP
0E00
3F80
60C0
4060
C060
C020
C060
C060
60C0
31C0
1F00
0300
0600
06C0
0380
ENDCHAR
STARTCHAR 01FA
ENCODING 506
SWIDTH 720 0
DWIDTH 14 0
BBX 13 24 0 0
BITMAP
00C0
0180
0300
0000
0300
0480
0480
0300
0000
0300
0300
0780
0580
0C80
0CC0
0840
1860
1060
3020
3FF0
6010
6018
4018
C008
ENDCHAR
STARTCHAR 01FB
ENCODING 507
SWIDTH 668 0
DWIDTH 13 0
BBX 11 20 1 0
BITMAP
0100
0300
0600
0400
0000
0E00
0A00
0A00
0400
0E00
3F80
60C0
4060
C060
C020
C060
C060
60E0
31E0
1F20
ENDCHAR
STARTCHAR 01FC
ENCODING 508
SWIDTH 977 0
DWIDTH 19 0
BBX 18 20 0 0
BITMAP
000C00
001800
001000
000000
000000
007FC0
00C000
01C000
014000
034000
024000
064000
0C7E00
084000
184000
1FC000
304000
604000
404000
C07FC0
ENDCHAR
STARTCHAR 01FD
ENCODING 509
SWIDTH 1080 0
DWIDTH 21 0
BBX 20 16 1 0
BITMAP
001800
003000
006000
004000
000000
0E0700
3F9FC0
60D060
406020
C06020
C03FF0
C06000
C06000
60F000
31F8E0
1F2F80
ENDCHAR
STARTCHAR 01FE
ENCODING 510
SWIDTH 874 0
DWIDTH 17 0
BBX 16 20 1 0
BITMAP
0060
00C0
0180
0000
0000
0FF3
1C3E
300C
601E
4032
C062
C0C3
C183
C303
C602
4C06
7806
300C
5C38
87E0
ENDCHAR
STARTCHAR 01FF
ENCODING 511
SWIDTH 720 0
DWIDTH 14 0
BBX 11 16 1 0
BITMAP
0180
0300
0600
0400
0000
0E20
3FE0
60C0
61E0
4320
4620
4C20
5860
7060
71C0
DF80
ENDCHAR
STARTCHAR 0200
ENCODING 512
SWIDTH 720 0
DWIDTH 14 0
BBX 13 20 0 1
BITMAP
0D80
0480
0480
0000
0000
0300
0300
0780
0580
0C80
0CC0
0840
1860
1060
3020
3FF0
6010
6018
4018
C008
ENDCHAR
STARTCHAR 0201
ENCODING 513
SWIDTH 668 0
DWIDTH 13 0
BBX 11 16 1 0
BITMAP
1200
1B00
0900
0900
0000
0E00
3F80
60C0
4060
C060
C020
C060
C060
60E0
31E0
1F20
ENDCHAR
STARTCHAR 0202
ENCODING 514
SWIDTH 720 0
DWIDTH 14 0
BBX 13 20 0 0
BITMAP
0700
0DC0
08C0
0000
0000
0300
0300
0780
0580
0C80
0CC0
0840
1860
1060
3020
3FF0
6010
6018
4018
C008
ENDCHAR
STARTCHAR 0203
ENCODING 515
SWIDTH 668 0
DWIDTH 13 0
BBX 11 15 1 0
BITMAP
1F00
1180
1100
0000
0E00
3F80
60C0
4060
C060
C020
C060
C060
60E0
31E0
1F20
ENDCHAR
STARTCHAR 0204
ENCODING 516
SWIDTH 668 0
DWIDTH 13 0
BBX 11 21 2 0
BITMAP
1200
1200
1B00
0900
0000
0000
FFE0
8000
8000
8000
8000
8000
8000
FF00
8000
8000
8000
8000
8000
8000
FFE0
ENDCHAR
STARTCHAR 0205
ENCODING 517
SWIDTH 617 0
DWIDTH 12 0
BBX 10 16 1 0
BITMAP
1200
1200
1B00
0900
0000
0E00
3F80
6080
40C0
C040
FFC0
C000
C000
6000
3180
1F00
ENDCHAR
STARTCHAR 0206
ENCODING 518
SWIDTH 668 0
DWIDTH 13 0
BBX 11 20 2 0
BITMAP
0E00
1B00
3100
0000
0000
FFE0
8000
8000
8000
8000
8000
8000
FF00
8000
8000
8000
8000
8000
8000
FFE0
ENDCHAR
STARTCHAR 0207
ENCODING 519
SWIDTH 617 0
DWIDTH 12 0
BBX 10 15 1 0
BITMAP
1E00
3100
2100
0000
0E00
3F80
6080
40C0
C040
FFC0
C000
C000
6000
3180
1F00
ENDCHAR
STARTCHAR 0208
ENCODING 520
SWIDTH 257 0
DWIDTH 5 0
BBX 5 21 0 0
BITMAP
90
D8
48
48
00
00
20
20
20
20
20
20
20
20
20
20
20
20
20
20
20
ENDCHAR
STARTCHAR 0209
ENCODING 521
SWIDTH 308 0
DWIDTH 6 0
BBX 5 16 0 0
BITMAP
D8
D8
48
48
00
20
30
30
30
30
30
30
30
30
30
30
ENDCHAR
STARTCHAR 020A
ENCODING 522
SWIDTH 257 0
DWIDTH 5 0
BBX 6 20 0 0
BITMAP
70
D8
8C
00
00
20
20
20
20
20
20
20
20
20
20
20
20
20
20
20
ENDCHAR
STARTCHAR 020B
ENCODING 523
SWIDTH 308 0
DWIDTH 6 0
BBX 5 15 0 0
BITMAP
78
C8
88
00
20
30
30
30
30
30
30
30
30
30
30
ENDCHAR
STARTCHAR 020C
ENCODING 524
SWIDTH 925 0
DWIDTH 18 0
BBX 16 20 1 1
BITMAP
06C0
0240
0360
0000
0000
0FF0
1C38
300C
6006
4002
C002
C003
C003
C003
C002
4006
6006
300C
1C38
07E0
ENDCHAR
STARTCHAR 020D
ENCODING 525
SWIDTH 668 0
DWIDTH 13 0
BBX 11 16 1 0
BITMAP
1200
1B00
0900
0900
0000
0E00
3F80
60C0
4060
C060
C020
C060
C060
60C0
31C0
1F00
ENDCHAR
STARTCHAR 020E
ENCODING 526
SWIDTH 925 0
DWIDTH 18 0
BBX 16 20 1 0
BITMAP
03C0
0660
0420
0000
0000
0FF0
1C38
300C
6006
4002
C002
C003
C003
C003
C002
4006
6006
300C
1C38
07E0
ENDCHAR
STARTCHAR 020F
ENCODING 527
SWIDTH 668 0
DWIDTH 13 0
BBX 11 15 1 0
BITMAP
1F00
1180
1100
0000
0E00
3F80
60C0
4060
C060
C020
C060
C060
60C0
31C0
1F00
ENDCHAR
STARTCHAR 0210
ENCODING 528
SWIDTH 617 0
DWIDTH 12 0
BBX 10 21 2 0
BITMAP
2400
2400
3600
1200
0000
0000
FE00
8300
8180
8080
8080
8080
8180
8700
FE00
8600
8200
8300
8180
8180
80C0
ENDCHAR
STARTCHAR 0211
ENCODING 529
SWIDTH 462 0
DWIDTH 9 0
BBX 6 16 2 0
BITMAP
D8
48
48
24
00
9C
BC
C0
80
80
80
80
80
80
80
80
ENDCHAR
STARTCHAR 0212
ENCODING 530
SWIDTH 617 0
DWIDTH 12 0
BBX 10 20 2 0
BITMAP
1C00
7600
6200
0000
0000
FE00
8300
8180
8080
8080
8080
8180
8700
FE00
8600
8200
8300
8180
8180
80C0
ENDCHAR
STARTCHAR 0213
ENCODING 531
SWIDTH 462 0
DWIDTH 9 0
BBX 6 15 2 0
BITMAP
78
CC
84
00
9C
BC
C0
80
80
80
80
80
80
80
80
ENDCHAR
STARTCHAR 0214
ENCODING 532
SWIDTH 822 0
DWIDTH 16 0
BBX 12 20 2 1
BITMAP
1B00
0900
0D80
0000
0000
8030
8030
8030
8030
8030
8030
8030
8030
8030
8030
8030
C030
4020
70E0
1F80
ENDCHAR
STARTCHAR 0215
ENCODING 533
SWIDTH 668 0
DWIDTH 13 0
BBX 9 16 2 0
BITMAP
2400
3600
1200
1200
0000
8080
8080
8080
8080
8080
8080
8080
8080
C180
6380
3E80
ENDCHAR
STARTCHAR 0216
ENCODING 534
SWIDTH 822 0
DWIDTH 16 0
BBX 12 20 2 0
BITMAP
0F00
1980
1080
0000
0000
8030
8030
8030
8030
8030
8030
8030
8030
8030
8030
8030
C030
4020
70E0
1F80
ENDCHAR
STARTCHAR 0217
ENCODING 535
SWIDTH 668 0
DWIDTH 13 0
BBX 9 15 2 0
BITMAP
3E00
2300
2200
0000
8080
8080
8080
8080
8080
8080
8080
8080
C180
6380
3E80
ENDCHAR
STARTCHAR 0218
ENCODING 536
SWIDTH 668 0
DWIDTH 13 0
BBX 11 20 1 -5
BITMAP
3F80
61C0
4040
4000
4000
6000
3E00
0F80
00C0
0040
0060
8060
C040
71C0
3F80
0000
0600
0100
1F00
0400
ENDCHAR
STARTCHAR 0219
ENCODING 537
SWIDTH 514 0
DWIDTH 10 0
BBX 9 16 1 -5
BITMAP
1C00
7F00
4100
4000
6000
3E00
0300
0180
8180
E300
3E00
0000
0C00
0200
3E00
0800
ENDCHAR
STARTCHAR 021A
ENCODING 538
SWIDTH 668 0
DWIDTH 13 0
BBX 12 20 0 -5
BITMAP
FFF0
0200
0200
0200
0200
0200
0200
0200
0200
0200
0200
0200
0200
0200
0200
0000
0700
0080
0F80
0600
ENDCHAR
STARTCHAR 021B
ENCODING 539
SWIDTH 411 0
DWIDTH 8 0
BBX 7 19 0 -5
BITMAP
30
30
30
30
FE
30
30
30
30
30
30
10
1C
0E
00
1C
02
3E
18
ENDCHAR
STARTCHAR 022A
ENCODING 554
SWIDTH 925 0
DWIDTH 18 0
BBX 16 22 1 0
BITMAP
07E0
0000
0000
0660
0660
0000
0000
0FF0
1C38
300C
6006
4002
C002
C003
C003
C003
C002
4006
6006
300C
1C38
07E0
ENDCHAR
STARTCHAR 022B
ENCODING 555
SWIDTH 668 0
DWIDTH 13 0
BBX 11 18 1 0
BITMAP
3F80
1F00
0000
1100
3980
0000
0000
0E00
3F80
60C0
4060
C060
C020
C060
C060
60C0
31C0
1F00
ENDCHAR
STARTCHAR 022C
ENCODING 556
SWIDTH 925 0
DWIDTH 18 0
BBX 16 22 1 0
BITMAP
07E0
07E0
0000
0790
0CF0
0000
0000
0FF0
1C38
300C
6006
4002
C002
C003
C003
C003
C002
4006
6006
300C
1C38
07E0
ENDCHAR
STARTCHAR 022D
ENCODING 557
SWIDTH 668 0
DWIDTH 13 0
BBX 11 17 1 0
BITMAP
3F80
0000
0800
3EC0
2380
0000
0E00
3F80
60C0
4060
C060
C020
C060
C060
60C0
31C0
1F00
ENDCHAR
STARTCHAR 0230
ENCODING 560
SWIDTH 925 0
DWIDTH 18 0
BBX 16 22 1 0
BITMAP
07E0
0000
0000
0180
0180
0000
0000
0FF0
1C38
300C
6006
4002
C002
C003
C003
C003
C002
4006
6006
300C
1C38
07E0
ENDCHAR
STARTCHAR 0231
ENCODING 561
SWIDTH 668 0
DWIDTH 13 0
BBX 11 17 1 0
BITMAP
3F80
0000
0400
0600
0000
0000
0E00
3F80
60C0
4060
C060
C020
C060
C060
60C0
31C0
1F00
ENDCHAR
STARTCHAR 0232
ENCODING 562
SWIDTH 668 0
DWIDTH 13 0
BBX 12 19 0 0
BITMAP
1F80
1F80
0000
0000
C010
4030
6020
3060
30C0
18C0
0980
0D00
0700
0200
0200
0200
0200
0200
0200
ENDCHAR
STARTCHAR 0233
ENCODING 563
SWIDTH 565 0
DWIDTH 11 0
BBX 9 19 1 -5
BITMAP
7F00
0000
0000
8080
8080
C180
C100
4300
6300
2200
3600
1400
1C00
0800
1800
1000
3000
2000
2000
ENDCHAR
STARTCHAR 0237
ENCODING 567
SWIDTH 308 0
DWIDTH 6 0
BBX 5 16 -2 -5
BITMAP
08
08
08
08
08
08
08
08
08
08
08
08
08
18
F0
40
ENDCHAR
STARTCHAR 0259
ENCODING 601
SWIDTH 617 0
DWIDTH 12 0
BBX 10 11 1 0
BITMAP
1C00
7F00
4180
0080
00C0
FFC0
80C0
8080
C180
6300
3E00
ENDCHAR
STARTCHAR 02BB
ENCODING 699
SWIDTH 205 0
DWIDTH 4 0
BBX 2 5 1 11
BITMAP
40
40
C0
C0
C0
ENDCHAR
STARTCHAR 02BC
ENCODING 700
SWIDTH 154 0
DWIDTH 3 0
BBX 2 5 -1 10
BITMAP
C0
C0
C0
80
80
ENDCHAR
STARTCHAR 02C6
ENCODING 710
SWIDTH 411 0
DWIDTH 8 0
BBX 6 3 1 12
BITMAP
20
78
CC
ENDCHAR
STARTCHAR 02C7
ENCODING 711
SWIDTH 411 0
DWIDTH 8 0
BBX 6 3 1 12
BITMAP
8C
F8
30
ENDCHAR
STARTCHAR 02C9
ENCODING 713
SWIDTH 411 0
DWIDTH 8 0
BBX 6 2 1 12
BITMAP
F8
FC
ENDCHAR
STARTCHAR 02D8
ENCODING 728
SWIDTH 411 0
DWIDTH 8 0
BBX 6 3 1 12
BITMAP
8C
CC
78
ENDCHAR
STARTCHAR 02D9
ENCODING 729
SWIDTH 205 0
DWIDTH 4 0
BBX 2 2 1 12
BITMAP
C0
C0
ENDCHAR
STARTCHAR 02DA
ENCODING 730
SWIDTH 257 0
DWIDTH 5 0
BBX 4 3 1 12
BITMAP
E0
90
E0
ENDCHAR
STARTCHAR 02DB
ENCODING 731
SWIDTH 308 0
DWIDTH 6 0
BBX 4 5 1 -5
BITMAP
60
60
C0
90
F0
ENDCHAR
STARTCHAR 02DC
ENCODING 732
SWIDTH 462 0
DWIDTH 9 0
BBX 8 3 1 12
BITMAP
20
FB
8E
ENDCHAR
STARTCHAR 02DD
ENCODING 733
SWIDTH 360 0
DWIDTH 7 0
BBX 5 4 1 11
BITMAP
48
D8
90
90
ENDCHAR
STARTCHAR 0300
ENCODING 768
SWIDTH 0 0
DWIDTH 0 0
BBX 3 4 1 12
BITMAP
80
C0
60
20
ENDCHAR
STARTCHAR 0301
ENCODING 769
SWIDTH 0 0
DWIDTH 0 0
BBX 3 4 1 12
BITMAP
20
60
C0
80
ENDCHAR
STARTCHAR 0302
ENCODING 770
SWIDTH 0 0
DWIDTH 0 0
BBX 6 3 1 12
BITMAP
70
DC
84
ENDCHAR
STARTCHAR 0303
ENCODING 771
SWIDTH 0 0
DWIDTH 0 0
BBX 8 3 1 12
BITMAP
20
FB
8E
ENDCHAR
STARTCHAR 0304
ENCODING 772
SWIDTH 0 0
DWIDTH 0 0
BBX 7 1 2 13
BITMAP
FE
ENDCHAR
STARTCHAR 0306
ENCODING 774
SWIDTH 0 0
DWIDTH 0 0
BBX 6 3 1 12
BITMAP
8C
F8
70
ENDCHAR
STARTCHAR 0307
ENCODING 775
SWIDTH 0 0
DWIDTH 0 0
BBX 2 2 2 13
BITMAP
C0
C0
ENDCHAR
STARTCHAR 0308
ENCODING 776
SWIDTH 0 0
DWIDTH 0 0
BBX 6 2 2 13
BITMAP
88
CC
ENDCHAR
STARTCHAR 0309
ENCODING 777
SWIDTH 0 0
DWIDTH 0 0
BBX 4 5 1 12
BITMAP
60
F0
10
70
40
ENDCHAR
STARTCHAR 030A
ENCODING 778
SWIDTH 0 0
DWIDTH 0 0
BBX 4 3 1 12
BITMAP
E0
90
E0
ENDCHAR
STARTCHAR 030B
ENCODING 779
SWIDTH 0 0
DWIDTH 0 0
BBX 5 4 1 12
BITMAP
48
D8
90
90
ENDCHAR
STARTCHAR 030C
ENCODING 780
SWIDTH 0 0
DWIDTH 0 0
BBX 6 3 1 12
BITMAP
CC
78
20
ENDCHAR
STARTCHAR 030F
ENCODING 783
SWIDTH 0 0
DWIDTH 0 0
BBX 5 4 1 12
BITMAP
90
90
D8
48
ENDCHAR
STARTCHAR 0311
ENCODING 785
SWIDTH 0 0
DWIDTH 0 0
BBX 6 3 1 12
BITMAP
78
CC
84
ENDCHAR
STARTCHAR 0312
ENCODING 786
SWIDTH 0 0
DWIDTH 0 0
BBX 2 5 1 13
BITMAP
40
40
C0
C0
C0
ENDCHAR
STARTCHAR 031B
ENCODING 795
SWIDTH 0 0
DWIDTH 0 0
BBX 3 4 0 9
BITMAP
20
20
E0
C0
ENDCHAR
STARTCHAR 0323
ENCODING 803
SWIDTH 0 0
DWIDTH 0 0
BBX 2 2 1 -4
BITMAP
C0
C0
ENDCHAR
STARTCHAR 0324
ENCODING 804
SWIDTH 0 0
DWIDTH 0 0
BBX 6 2 1 -4
BITMAP
CC
CC
ENDCHAR
STARTCHAR 0326
ENCODING 806
SWIDTH 0 0
DWIDTH 0 0
BBX 4 4 1 -5
BITMAP
70
10
F0
60
ENDCHAR
STARTCHAR 0327
ENCODING 807
SWIDTH 0 0
DWIDTH 0 0
BBX 5 6 1 -5
BITMAP
20
60
30
98
F0
40
ENDCHAR
STARTCHAR 0328
ENCODING 808
SWIDTH 0 0
DWIDTH 0 0
BBX 4 5 1 -5
BITMAP
60
60
C0
90
F0
ENDCHAR
STARTCHAR 032E
ENCODING 814
SWIDTH 0 0
DWIDTH 0 0
BBX 6 3 1 -5
BITMAP
8C
F8
30
ENDCHAR
STARTCHAR 0331
ENCODING 817
SWIDTH 0 0
DWIDTH 0 0
BBX 7 1 1 -3
BITMAP
FE
ENDCHAR
STARTCHAR 0335
ENCODING 821
SWIDTH 0 0
DWIDTH 0 0
BBX 8 2 1 5
BITMAP
FF
7E
ENDCHAR
STARTCHAR 0336
ENCODING 822
SWIDTH 0 0
DWIDTH 0 0
BBX 15 1 1 6
BITMAP
FFFE
ENDCHAR
STARTCHAR 0344
ENCODING 836
SWIDTH 0 0
DWIDTH 0 0
BBX 8 4 -4 13
BITMAP
08
08
49
DB
ENDCHAR
STARTCHAR 0374
ENCODING 884
SWIDTH 257 0
DWIDTH 5 0
BBX 3 6 1 11
BITMAP
20
20
60
40
C0
C0
ENDCHAR
STARTCHAR 0375
ENCODING 885
SWIDTH 257 0
DWIDTH 5 0
BBX 3 6 1 -6
BITMAP
60
60
40
C0
80
80
ENDCHAR
STARTCHAR 037E
ENCODING 894
SWIDTH 205 0
DWIDTH 4 0
BBX 2 13 1 -2
BITMAP
C0
C0
00
00
00
00
00
00
C0
C0
40
40
C0
ENDCHAR
STARTCHAR 0384
ENCODING 900
SWIDTH 205 0
DWIDTH 4 0
BBX 3 4 1 13
BITMAP
60
C0
C0
80
ENDCHAR
STARTCHAR 0385
ENCODING 901
SWIDTH 565 0
DWIDTH 11 0
BBX 8 4 2 13
BITMAP
08
18
9A
D3
ENDCHAR
STARTCHAR 0386
ENCODING 902
SWIDTH 720 0
DWIDTH 14 0
BBX 13 15 0 0
BITMAP
3300
3300
6780
6580
0C80
0CC0
0840
1860
1060
3020
3FF0
6010
6018
4018
C008
ENDCHAR
STARTCHAR 0387
ENCODING 903
SWIDTH 205 0
DWIDTH 4 0
BBX 2 3 1 8
BITMAP
80
C0
80
ENDCHAR
STARTCHAR 0388
ENCODING 904
SWIDTH 668 0
DWIDTH 13 0
BBX 16 15 -3 0
BITMAP
67FF
6400
C400
C400
0400
0400
0400
07F8
0400
0400
0400
0400
0400
0400
07FF
ENDCHAR
STARTCHAR 0389
ENCODING 905
SWIDTH 822 0
DWIDTH 16 0
BBX 17 15 -3 0
BITMAP
640080
640080
C40080
C40080
040080
040080
040080
07FF80
040080
040080
040080
040080
040080
040080
040080
ENDCHAR
STARTCHAR 038A
ENCODING 906
SWIDTH 257 0
DWIDTH 5 0
BBX 6 15 -3 0
BITMAP
64
64
C4
C4
04
04
04
04
04
04
04
04
04
04
04
ENDCHAR
STARTCHAR 038C
ENCODING 908
SWIDTH 925 0
DWIDTH 18 0
BBX 18 15 -1 0
BITMAP
43FC00
C70E00
8C0300
980180
100080
300080
3000C0
3000C0
3000C0
300080
100180
180180
0C0300
070E00
01F800
ENDCHAR
STARTCHAR 038E
ENCODING 910
SWIDTH 668 0
DWIDTH 13 0
BBX 16 15 -4 0
BITMAP
6C01
4403
C602
8306
030C
018C
0098
00D0
0070
0020
0020
0020
0020
0020
0020
ENDCHAR
STARTCHAR 038F
ENCODING 911
SWIDTH 874 0
DWIDTH 17 0
BBX 18 15 -2 0
BITMAP
23FC00
670700
4C0180
C80180
180080
1800C0
1800C0
1800C0
080080
0C0180
040300
070600
018C00
008800
1F8FC0
ENDCHAR
STARTCHAR 0390
ENCODING 912
SWIDTH 360 0
DWIDTH 7 0
BBX 8 17 -1 0
BITMAP
18
18
92
D3
00
00
10
10
10
10
10
10
10
10
10
1C
0E
ENDCHAR
STARTCHAR 0391
ENCODING 913
SWIDTH 720 0
DWIDTH 14 0
BBX 13 15 0 0
BITMAP
0300
0300
0780
0580
0C80
0CC0
0840
1860
1060
3020
3FF0
6010
6018
4018
C008
ENDCHAR
STARTCHAR 0392
ENCODING 914
SWIDTH 720 0
DWIDTH 14 0
BBX 10 15 2 0
BITMAP
FF00
8180
8080
80C0
8080
8180
FF00
FF80
80C0
8040
8040
8040
80C0
8380
FF00
ENDCHAR
STARTCHAR 0393
ENCODING 915
SWIDTH 617 0
DWIDTH 12 0
BBX 10 15 1 0
BITMAP
FFC0
8000
8000
8000
8000
8000
8000
8000
8000
8000
8000
8000
8000
8000
8000
ENDCHAR
STARTCHAR 0394
ENCODING 916
SWIDTH 720 0
DWIDTH 14 0
BBX 13 15 0 0
BITMAP
0300
0300
0780
0580
0C80
0CC0
0840
1860
1060
3020
2030
6010
6018
7FF8
FFF8
ENDCHAR
STARTCHAR 0395
ENCODING 917
SWIDTH 668 0
DWIDTH 13 0
BBX 11 15 2 0
BITMAP
FFE0
8000
8000
8000
8000
8000
8000
FF00
8000
8000
8000
8000
8000
8000
FFE0
ENDCHAR
STARTCHAR 0396
ENCODING 918
SWIDTH 720 0
DWIDTH 14 0
BBX 12 15 1 0
BITMAP
FFF0
0030
0060
00C0
0080
0100
0300
0600
0C00
0800
1000
3000
6000
C000
FFF0
ENDCHAR
STARTCHAR 0397
ENCODING 919
SWIDTH 822 0
DWIDTH 16 0
BBX 12 15 2 0
BITMAP
8010
8010
8010
8010
8010
8010
8010
FFF0
8010
8010
8010
8010
8010
8010
8010
ENDCHAR
STARTCHAR 0398
ENCODING 920
SWIDTH 925 0
DWIDTH 18 0
BBX 16 15 1 0
BITMAP
0FF0
1C38
300C
6006
4002
C002
C003
CFF3
C003
C002
4006
6006
300C
1C38
07E0
ENDCHAR
STARTCHAR 0399
ENCODING 921
SWIDTH 257 0
DWIDTH 5 0
BBX 1 15 2 0
BITMAP
80
80
80
80
80
80
80
80
80
80
80
80
80
80
80
ENDCHAR
STARTCHAR 039A
ENCODING 922
SWIDTH 668 0
DWIDTH 13 0
BBX 10 15 2 0
BITMAP
80C0
8180
8300
8600
8C00
9800
B000
F800
CC00
8600
8600
8300
8180
8080
80C0
ENDCHAR
STARTCHAR 039B
ENCODING 923
SWIDTH 668 0
DWIDTH 13 0
BBX 13 15 0 0
BITMAP
0200
0700
0700
0580
0C80
0880
18C0
1840
1060
3020
2030
6030
6010
4018
C008
ENDCHAR
STARTCHAR 039C
ENCODING 924
SWIDTH 977 0
DWIDTH 19 0
BBX 15 15 2 0
BITMAP
C002
C006
E006
E00A
B00A
B01A
9812
9832
8C22
8C62
8642
86C2
8382
8382
8102
ENDCHAR
STARTCHAR 039D
ENCODING 925
SWIDTH 822 0
DWIDTH 16 0
BBX 12 15 2 0
BITMAP
C010
C010
E010
B010
9810
8810
8C10
8610
8310
8110
8090
80D0
8070
8030
8010
ENDCHAR
STARTCHAR 039E
ENCODING 926
SWIDTH 771 0
DWIDTH 15 0
BBX 13 15 1 0
BITMAP
FFF8
0000
0000
0000
0000
0000
0000
3FE0
0000
0000
0000
0000
0000
7FF0
FFF8
ENDCHAR
STARTCHAR 039F
ENCODING 927
SWIDTH 925 0
DWIDTH 18 0
BBX 16 15 1 0
BITMAP
0FF0
1C38
300C
6006
4002
C002
C003
C003
C003
C002
4006
6006
300C
1C38
07E0
ENDCHAR
STARTCHAR 03A0
ENCODING 928
SWIDTH 822 0
DWIDTH 16 0
BBX 12 15 2 0
BITMAP
FFF0
8010
8010
8010
8010
8010
8010
8010
8010
8010
8010
8010
8010
8010
8010
ENDCHAR
STARTCHAR 03A1
ENCODING 929
SWIDTH 617 0
DWIDTH 12 0
BBX 9 15 2 0
BITMAP
FE00
8300
8180
8080
8080
8080
8080
8180
FF00
FC00
8000
8000
8000
8000
8000
ENDCHAR
STARTCHAR 03A3
ENCODING 931
SWIDTH 720 0
DWIDTH 14 0
BBX 12 15 1 0
BITMAP
FFF0
6000
2000
3000
1800
0C00
0600
0600
0C00
0800
1800
3000
6000
4000
FFF0
ENDCHAR
STARTCHAR 03A4
ENCODING 932
SWIDTH 668 0
DWIDTH 13 0
BBX 12 15 0 0
BITMAP
FFF0
0200
0200
0200
0200
0200
0200
0200
0200
0200
0200
0200
0200
0200
0200
ENDCHAR
STARTCHAR 03A5
ENCODING 933
SWIDTH 668 0
DWIDTH 13 0
BBX 12 15 0 0
BITMAP
C010
4030
6020
3060
30C0
18C0
0980
0D00
0700
0200
0200
0200
0200
0200
0200
ENDCHAR
STARTCHAR 03A6
ENCODING 934
SWIDTH 925 0
DWIDTH 18 0
BBX 16 16 1 0
BITMAP
0100
0180
0FF0
399C
6184
4186
C182
C183
C183
C183
C182
4186
618C
1DB8
07E0
0180
ENDCHAR
STARTCHAR 03A7
ENCODING 935
SWIDTH 720 0
DWIDTH 14 0
BBX 12 15 1 0
BITMAP
C030
6060
6040
30C0
1980
0B00
0F00
0600
0F00
1980
3180
30C0
6060
C020
8030
ENDCHAR
STARTCHAR 03A8
ENCODING 936
SWIDTH 925 0
DWIDTH 18 0
BBX 14 15 2 0
BITMAP
830C
830C
830C
830C
830C
830C
C30C
C308
6318
3B70
1FC0
0300
0300
0300
0300
ENDCHAR
STARTCHAR 03A9
ENCODING 937
SWIDTH 874 0
DWIDTH 17 0
BBX 15 15 1 0
BITMAP
1FE0
3838
600C
400C
C004
C006
C006
C006
4004
600C
2018
3830
0C60
0440
FC7E
ENDCHAR
STARTCHAR 03AA
ENCODING 938
SWIDTH 257 0
DWIDTH 5 0
BBX 6 19 0 0
BITMAP
CC
8C
00
00
20
20
20
20
20
20
20
20
20
20
20
20
20
20
20
ENDCHAR
STARTCHAR 03AB
ENCODING 939
SWIDTH 668 0
DWIDTH 13 0
BBX 12 19 0 0
BITMAP
1980
1880
0000
0000
C010
4030
6020
3060
30C0
18C0
0980
0D00
0700
0200
0200
0200
0200
0200
0200
ENDCHAR
STARTCHAR 03AC
ENCODING 940
SWIDTH 771 0
DWIDTH 15 0
BBX 13 17 1 0
BITMAP
0200
0200
0600
0600
0400
0000
0E10
3F90
60B0
40F0
C060
C060
C060
C070
60B0
3190
1F18
ENDCHAR
STARTCHAR 03AD
ENCODING 941
SWIDTH 617 0
DWIDTH 12 0
BBX 10 17 1 0
BITMAP
0200
0200
0600
0400
0400
0000
1E00
7F80
40C0
4000
6000
3F00
6000
C000
C000
61C0
3F00
ENDCHAR
STARTCHAR 03AE
ENCODING 942
SWIDTH 668 0
DWIDTH 13 0
BBX 10 20 2 -4
BITMAP
0600
0C00
0C00
0800
0000
9C00
BF00
C180
8080
80C0
80C0
80C0
80C0
80C0
80C0
80C0
00C0
00C0
00C0
00C0
ENDCHAR
STARTCHAR 03AF
ENCODING 943
SWIDTH 360 0
DWIDTH 7 0
BBX 4 16 2 1
BITMAP
60
C0
C0
80
00
80
80
80
80
80
80
80
80
80
E0
70
ENDCHAR
STARTCHAR 03B0
ENCODING 944
SWIDTH 668 0
DWIDTH 13 0
BBX 9 17 2 0
BITMAP
0400
0C00
4D00
6980
0000
0000
8080
8080
8080
8080
8080
8080
8080
8080
C180
6300
3E00
ENDCHAR
STARTCHAR 03B1
ENCODING 945
SWIDTH 771 0
DWIDTH 15 0
BBX 13 11 1 0
BITMAP
0E10
3F90
60B0
40F0
C060
C060
C060
C070
60B0
3190
1F18
ENDCHAR
STARTCHAR 03B2
ENCODING 946
SWIDTH 668 0
DWIDTH 13 0
BBX 10 20 2 -5
BITMAP
3E00
6300
C180
8180
8180
8100
9E00
9F80
80C0
8040
8040
C040
C0C0
B180
9F00
8000
8000
8000
8000
8000
ENDCHAR
STARTCHAR 03B3
ENCODING 947
SWIDTH 514 0
DWIDTH 10 0
BBX 10 15 0 -4
BITMAP
0040
C0C0
4080
6180
2180
3100
1300
1A00
0E00
0C00
0C00
0C00
0C00
0C00
0C00
ENDCHAR
STARTCHAR 03B4
ENCODING 948
SWIDTH 668 0
DWIDTH 13 0
BBX 11 15 1 0
BITMAP
7FC0
3000
1800
0C00
0700
3F80
60C0
4040
C060
C060
C060
C060
60C0
3180
1F00
ENDCHAR
STARTCHAR 03B5
ENCODING 949
SWIDTH 617 0
DWIDTH 12 0
BBX 10 11 1 0
BITMAP
1E00
7F80
40C0
4000
6000
3F00
6000
C000
C000
61C0
3F00
ENDCHAR
STARTCHAR 03B6
ENCODING 950
SWIDTH 514 0
DWIDTH 10 0
BBX 9 20 1 -5
BITMAP
FF80
0300
0600
0C00
1800
3000
6000
4000
C000
C000
8000
C000
C000
7000
3F00
0100
0180
0100
0700
0400
ENDCHAR
STARTCHAR 03B7
ENCODING 951
SWIDTH 668 0
DWIDTH 13 0
BBX 10 15 2 -5
BITMAP
9C00
BF00
C180
8080
80C0
80C0
80C0
80C0
80C0
80C0
80C0
00C0
00C0
00C0
00C0
ENDCHAR
STARTCHAR 03B8
ENCODING 952
SWIDTH 668 0
DWIDTH 13 0
BBX 11 15 1 0
BITMAP
1F00
3180
60C0
4040
C060
C060
C060
FFE0
C060
C060
4060
4040
60C0
3180
1F00
ENDCHAR
STARTCHAR 03B9
ENCODING 953
SWIDTH 360 0
DWIDTH 7 0
BBX 4 11 2 0
BITMAP
80
80
80
80
80
80
80
80
80
E0
70
ENDCHAR
STARTCHAR 03BA
ENCODING 954
SWIDTH 565 0
DWIDTH 11 0
BBX 8 11 2 0
BITMAP
81
83
8C
98
B0
F0
D8
8C
86
82
83
ENDCHAR
STARTCHAR 03BB
ENCODING 955
SWIDTH 514 0
DWIDTH 10 0
BBX 10 15 0 0
BITMAP
3000
1000
1800
0800
0C00
0C00
1E00
1E00
1200
3300
2100
6180
6080
C0C0
C0C0
ENDCHAR
STARTCHAR 03BC
ENCODING 956
SWIDTH 668 0
DWIDTH 13 0
BBX 9 16 2 -5
BITMAP
8080
8080
8080
8080
8080
8080
8080
8080
C180
E380
BE80
8000
8000
8000
8000
8000
ENDCHAR
STARTCHAR 03BD
ENCODING 957
SWIDTH 514 0
DWIDTH 10 0
BBX 10 11 0 0
BITMAP
0040
C0C0
4080
6080
2180
3100
1300
1A00
0E00
0C00
0C00
ENDCHAR
STARTCHAR 03BE
ENCODING 958
SWIDTH 565 0
DWIDTH 11 0
BBX 9 20 1 -5
BITMAP
FF80
1E00
2000
6000
4000
6000
3000
1F00
7000
4000
4000
4000
4000
7000
1F80
0180
0080
0080
0380
0200
ENDCHAR
STARTCHAR 03BF
ENCODING 959
SWIDTH 668 0
DWIDTH 13 0
BBX 11 11 1 0
BITMAP
0E00
3F80
60C0
4060
C060
C020
C060
C060
60C0
31C0
1F00
ENDCHAR
STARTCHAR 03C0
ENCODING 960
SWIDTH 771 0
DWIDTH 15 0
BBX 13 11 1 0
BITMAP
FFF8
FFF8
1040
1040
1040
1040
1040
1040
1040
1070
1038
ENDCHAR
STARTCHAR 03C1
ENCODING 961
SWIDTH 720 0
DWIDTH 14 0
BBX 11 16 2 -5
BITMAP
0E00
3F80
60C0
C0C0
8040
8060
8040
C040
C0C0
B180
9F00
8000
8000
8000
8000
8000
ENDCHAR
STARTCHAR 03C2
ENCODING 962
SWIDTH 617 0
DWIDTH 12 0
BBX 9 16 1 -5
BITMAP
0E00
3F80
6080
4000
C000
C000
C000
C000
4000
7000
1F00
0180
0180
0180
0700
0400
ENDCHAR
STARTCHAR 03C3
ENCODING 963
SWIDTH 720 0
DWIDTH 14 0
BBX 12 11 1 0
BITMAP
0FF0
3FF0
60C0
4060
C060
C020
C060
C060
60C0
31C0
1F00
ENDCHAR
STARTCHAR 03C4
ENCODING 964
SWIDTH 565 0
DWIDTH 11 0
BBX 9 11 1 0
BITMAP
FF80
FF80
1800
1800
1800
1800
1800
1800
1800
0E00
0700
ENDCHAR
STARTCHAR 03C5
ENCODING 965
SWIDTH 668 0
DWIDTH 13 0
BBX 9 11 2 0
BITMAP
8080
8080
8080
8080
8080
8080
8080
8080
C180
6300
3E00
ENDCHAR
STARTCHAR 03C6
ENCODING 966
SWIDTH 822 0
DWIDTH 16 0
BBX 13 19 1 -5
BITMAP
0200
0300
0300
0F80
3FE0
6310
4318
C308
C308
C308
C308
6318
3370
1FE0
0300
0300
0300
0300
0200
ENDCHAR
STARTCHAR 03C7
ENCODING 967
SWIDTH 565 0
DWIDTH 11 0
BBX 9 16 1 -5
BITMAP
8080
C180
C300
6300
6600
3600
1C00
1800
1C00
1C00
3600
6200
6300
C100
C180
8080
ENDCHAR
STARTCHAR 03C8
ENCODING 968
SWIDTH 771 0
DWIDTH 15 0
BBX 12 19 2 -5
BITMAP
0400
0400
0400
8400
8430
8430
8430
8430
8430
8430
8430
C460
74E0
3F80
0400
0400
0400
0400
0400
ENDCHAR
STARTCHAR 03C9
ENCODING 969
SWIDTH 874 0
DWIDTH 17 0
BBX 15 11 1 0
BITMAP
1008
300C
600C
4106
4106
C102
C102
C182
4186
62CC
3E78
ENDCHAR
STARTCHAR 03CA
ENCODING 970
SWIDTH 360 0
DWIDTH 7 0
BBX 7 15 -1 0
BITMAP
44
CC
00
00
10
10
10
10
10
10
10
10
10
1C
0E
ENDCHAR
STARTCHAR 03CB
ENCODING 971
SWIDTH 668 0
DWIDTH 13 0
BBX 9 15 2 0
BITMAP
2200
6700
0000
0000
8080
8080
8080
8080
8080
8080
8080
8080
C180
6300
3E00
ENDCHAR
STARTCHAR 03CC
ENCODING 972
SWIDTH 668 0
DWIDTH 13 0
BBX 11 16 1 1
BITMAP
0300
0600
0600
0400
0000
0E00
3F80
60C0
4060
C060
C020
C060
C060
60C0
31C0
1F00
ENDCHAR
STARTCHAR 03CD
ENCODING 973
SWIDTH 668 0
DWIDTH 13 0
BBX 9 16 2 1
BITMAP
0600
0C00
0C00
0800
0000
8080
8080
8080
8080
8080
8080
8080
8080
C180
6300
3E00
ENDCHAR
STARTCHAR 03CE
ENCODING 974
SWIDTH 874 0
DWIDTH 17 0
BBX 15 16 1 1
BITMAP
00C0
0080
0180
0000
0000
1008
300C
600C
4106
4106
C102
C102
C182
4186
62CC
3E78
ENDCHAR
STARTCHAR 03CF
ENCODING 975
SWIDTH 668 0
DWIDTH 13 0
BBX 10 19 2 -4
BITMAP
80C0
8180
8300
8600
8C00
9800
B000
F800
CC00
8600
8600
8300
8180
80C0
80C0
0180
0300
1E00
1800
ENDCHAR
STARTCHAR 03D7
ENCODING 983
SWIDTH 617 0
DWIDTH 12 0
BBX 9 15 2 -4
BITMAP
8100
8300
8C00
9800
B000
F000
D800
8C00
8600
8300
8100
0180
0080
0180
0F00
ENDCHAR
STARTCHAR 0400
ENCODING 1024
SWIDTH 668 0
DWIDTH 13 0
BBX 11 21 2 0
BITMAP
1000
1800
1C00
0C00
0000
0000
FFE0
8000
8000
8000
8000
8000
8000
FF00
8000
8000
8000
8000
8000
8000
FFE0
ENDCHAR
STARTCHAR 0401
ENCODING 1025
SWIDTH 668 0
DWIDTH 13 0
BBX 11 19 2 0
BITMAP
3300
1100
0000
0000
FFE0
8000
8000
8000
8000
8000
8000
FF00
8000
8000
8000
8000
8000
8000
FFE0
ENDCHAR
STARTCHAR 0402
ENCODING 1026
SWIDTH 771 0
DWIDTH 15 0
BBX 14 15 0 0
BITMAP
FFF0
0C00
0C00
0C00
0CE0
0FF8
0C18
0C0C
0C04
0C04
0C04
0C0C
0C08
0C38
08F0
ENDCHAR
STARTCHAR 0403
ENCODING 1027
SWIDTH 617 0
DWIDTH 12 0
BBX 10 20 2 0
BITMAP
0600
0E00
0C00
0000
0000
FFC0
8000
8000
8000
8000
8000
8000
8000
8000
8000
8000
8000
8000
8000
8000
ENDCHAR
STARTCHAR 0404
ENCODING 1028
SWIDTH 771 0
DWIDTH 15 0
BBX 13 15 1 0
BITMAP
0FE0
1C38
3000
6000
4000
C000
C000
FF80
C000
C000
4000
6000
3018
1C38
07E0
ENDCHAR
STARTCHAR 0405
ENCODING 1029
SWIDTH 668 0
DWIDTH 13 0
BBX 11 15 1 0
BITMAP
3F80
61C0
4040
4000
4000
6000
3E00
0F80
00C0
0040
0060
8060
C040
71C0
3F80
ENDCHAR
STARTCHAR 0406
ENCODING 1030
SWIDTH 257 0
DWIDTH 5 0
BBX 1 15 2 0
BITMAP
80
80
80
80
80
80
80
80
80
80
80
80
80
80
80
ENDCHAR
STARTCHAR 0407
ENCODING 1031
SWIDTH 257 0
DWIDTH 5 0
BBX 6 19 0 0
BITMAP
CC
8C
00
00
20
20
20
20
20
20
20
20
20
20
20
20
20
20
20
ENDCHAR
STARTCHAR 0408
ENCODING 1032
SWIDTH 617 0
DWIDTH 12 0
BBX 9 15 1 0
BITMAP
0180
0180
0180
0180
0180
0180
0180
0180
0180
0180
8180
8180
C180
6300
3E00
ENDCHAR
STARTCHAR 0409
ENCODING 1033
SWIDTH 1028 0
DWIDTH 20 0
BBX 19 15 0 0
BITMAP
030000
030000
078000
058000
0C8000
0CC000
087F80
1860C0
106060
302060
203060
601060
601860
4009C0
C00F80
ENDCHAR
STARTCHAR 040A
ENCODING 1034
SWIDTH 1182 0
DWIDTH 23 0
BBX 20 15 2 0
BITMAP
803000
803000
803000
803000
803000
803000
803FC0
FFF060
803020
803030
803030
803030
803020
8030E0
803F80
ENDCHAR
STARTCHAR 040B
ENCODING 1035
SWIDTH 874 0
DWIDTH 17 0
BBX 15 15 0 0
BITMAP
FFF0
0400
0400
0400
0400
05F0
079C
0604
0406
0402
0402
0402
0402
0402
0402
ENDCHAR
STARTCHAR 040C
ENCODING 1036
SWIDTH 668 0
DWIDTH 13 0
BBX 11 20 2 0
BITMAP
0600
0E00
0C00
0000
0000
8040
80C0
8180
8300
8600
8400
8C00
F800
8C00
8600
8300
8180
8080
80C0
8060
ENDCHAR
STARTCHAR 040D
ENCODING 1037
SWIDTH 822 0
DWIDTH 16 0
BBX 13 20 2 1
BITMAP
1800
0C00
0600
0000
0000
8010
8038
8078
80D8
8098
8198
8318
8618
8418
8818
9818
B018
E018
C018
8010
ENDCHAR
STARTCHAR 040E
ENCODING 1038
SWIDTH 720 0
DWIDTH 14 0
BBX 13 20 0 0
BITMAP
0840
0840
0F80
0000
0000
C018
C010
6030
2020
3060
1040
18C0
0CC0
0580
0780
0300
0300
0200
2E00
3C00
ENDCHAR
STARTCHAR 040F
ENCODING 1039
SWIDTH 822 0
DWIDTH 16 0
BBX 12 18 2 -3
BITMAP
8030
8030
8030
8030
8030
8030
8030
8030
8030
8030
8030
8030
8030
8030
FFF0
0600
0600
0600
ENDCHAR
STARTCHAR 0410
ENCODING 1040
SWIDTH 720 0
DWIDTH 14 0
BBX 13 15 0 0
BITMAP
0300
0300
0780
0580
0C80
0CC0
0840
1860
1060
3020
3FF0
6010
6018
4018
C008
ENDCHAR
STARTCHAR 0411
ENCODING 1041
SWIDTH 720 0
DWIDTH 14 0
BBX 11 15 2 0
BITMAP
FFC0
8000
8000
8000
8000
8000
FF00
81C0
8060
8060
8060
8060
8060
81C0
FF80
ENDCHAR
STARTCHAR 0412
ENCODING 1042
SWIDTH 720 0
DWIDTH 14 0
BBX 10 15 2 0
BITMAP
FF00
8180
8080
80C0
8080
8180
FF00
FF80
80C0
8040
8040
8040
80C0
8380
FF00
ENDCHAR
STARTCHAR 0413
ENCODING 1043
SWIDTH 617 0
DWIDTH 12 0
BBX 10 15 2 0
BITMAP
FFC0
8000
8000
8000
8000
8000
8000
8000
8000
8000
8000
8000
8000
8000
8000
ENDCHAR
STARTCHAR 0414
ENCODING 1044
SWIDTH 822 0
DWIDTH 16 0
BBX 16 18 0 -3
BITMAP
0180
0180
03C0
0340
0260
0660
0420
0C30
0C10
0818
1818
1008
300C
2004
FFFF
C003
C003
C003
ENDCHAR
STARTCHAR 0415
ENCODING 1045
SWIDTH 668 0
DWIDTH 13 0
BBX 11 15 2 0
BITMAP
FFE0
8000
8000
8000
8000
8000
8000
FF00
8000
8000
8000
8000
8000
8000
FFE0
ENDCHAR
STARTCHAR 0416
ENCODING 1046
SWIDTH 1028 0
DWIDTH 20 0
BBX 18 15 1 0
BITMAP
C0C0C0
40C080
60C180
30C300
18C600
08C400
0CCC00
07F800
0CCC00
18C600
30C300
20C100
60C180
C0C0C0
80C040
ENDCHAR
STARTCHAR 0417
ENCODING 1047
SWIDTH 617 0
DWIDTH 12 0
BBX 10 15 1 0
BITMAP
3F00
6180
C080
00C0
0080
0180
0F00
0F80
00C0
0040
0040
0040
C0C0
E180
3F00
ENDCHAR
STARTCHAR 0418
ENCODING 1048
SWIDTH 822 0
DWIDTH 16 0
BBX 13 15 2 0
BITMAP
8010
8038
8078
80D8
8098
8198
8318
8618
8418
8818
9818
B018
E018
C018
8010
ENDCHAR
STARTCHAR 0419
ENCODING 1049
SWIDTH 822 0
DWIDTH 16 0
BBX 13 20 2 0
BITMAP
1080
10C0
0F80
0000
0000
8010
8038
8078
80D8
8098
8198
8318
8618
8418
8818
9818
B018
E018
C018
8010
ENDCHAR
STARTCHAR 041A
ENCODING 1050
SWIDTH 668 0
DWIDTH 13 0
BBX 11 15 2 0
BITMAP
8040
80C0
8180
8300
8600
8400
8C00
F800
8C00
8600
8300
8180
8080
80C0
8060
ENDCHAR
STARTCHAR 041B
ENCODING 1051
SWIDTH 720 0
DWIDTH 14 0
BBX 13 15 0 0
BITMAP
0300
0300
0780
0580
0C80
0CC0
0840
1860
1060
3020
2030
6010
6018
4008
C008
ENDCHAR
STARTCHAR 041C
ENCODING 1052
SWIDTH 977 0
DWIDTH 19 0
BBX 15 15 2 0
BITMAP
C002
C006
E006
E00A
B00A
B01A
9812
9832
8C22
8C62
8642
86C2
8382
8382
8102
ENDCHAR
STARTCHAR 041D
ENCODING 1053
SWIDTH 822 0
DWIDTH 16 0
BBX 12 15 2 0
BITMAP
8010
8010
8010
8010
8010
8010
8010
FFF0
8010
8010
8010
8010
8010
8010
8010
ENDCHAR
STARTCHAR 041E
ENCODING 1054
SWIDTH 925 0
DWIDTH 18 0
BBX 16 15 1 0
BITMAP
0FF0
1C38
300C
6006
4002
C002
C003
C003
C003
C002
4006
6006
300C
1C38
07E0
ENDCHAR
STARTCHAR 041F
ENCODING 1055
SWIDTH 822 0
DWIDTH 16 0
BBX 12 15 2 0
BITMAP
FFF0
8030
8030
8030
8030
8030
8030
8030
8030
8030
8030
8030
8030
8030
8030
ENDCHAR
STARTCHAR 0420
ENCODING 1056
SWIDTH 617 0
DWIDTH 12 0
BBX 9 15 2 0
BITMAP
FE00
8300
8180
8080
8080
8080
8080
8180
FF00
FC00
8000
8000
8000
8000
8000
ENDCHAR
STARTCHAR 0421
ENCODING 1057
SWIDTH 771 0
DWIDTH 15 0
BBX 13 15 1 0
BITMAP
0FE0
1C38
3000
6000
4000
C000
C000
C000
C000
C000
4000
6000
3018
1C38
07E0
ENDCHAR
STARTCHAR 0422
ENCODING 1058
SWIDTH 668 0
DWIDTH 13 0
BBX 12 15 0 0
BITMAP
FFF0
0200
0200
0200
0200
0200
0200
0200
0200
0200
0200
0200
0200
0200
0200
ENDCHAR
STARTCHAR 0423
ENCODING 1059
SWIDTH 720 0
DWIDTH 14 0
BBX 13 15 0 0
BITMAP
C018
C010
6030
2020
3060
1040
18C0
0CC0
0580
0780
0300
0300
0200
2E00
3C00
ENDCHAR
STARTCHAR 0424
ENCODING 1060
SWIDTH 874 0
DWIDTH 17 0
BBX 15 15 1 0
BITMAP
0100
0100
1FF0
3138
610C
4104
C106
C106
C104
4104
610C
3938
1FE0
0100
0100
ENDCHAR
STARTCHAR 0425
ENCODING 1061
SWIDTH 720 0
DWIDTH 14 0
BBX 12 15 1 0
BITMAP
C030
6060
6040
30C0
1980
0B00
0F00
0600
0F00
1980
3180
30C0
6060
C020
8030
ENDCHAR
STARTCHAR 0426
ENCODING 1062
SWIDTH 822 0
DWIDTH 16 0
BBX 14 18 2 -3
BITMAP
8030
8030
8030
8030
8030
8030
8030
8030
8030
8030
8030
8030
8030
8030
FFFC
000C
000C
000C
ENDCHAR
STARTCHAR 0427
ENCODING 1063
SWIDTH 771 0
DWIDTH 15 0
BBX 12 15 1 0
BITMAP
C030
C030
C030
C030
4030
4030
6030
6030
3FF0
0F30
0030
0030
0030
0030
0030
ENDCHAR
STARTCHAR 0428
ENCODING 1064
SWIDTH 1080 0
DWIDTH 21 0
BBX 17 15 2 0
BITMAP
808180
808180
808180
808180
808180
808180
808180
808180
808180
808180
808180
808180
808180
808180
FFFF80
ENDCHAR
STARTCHAR 0429
ENCODING 1065
SWIDTH 1131 0
DWIDTH 22 0
BBX 19 18 2 -3
BITMAP
808180
808180
808180
808180
808180
808180
808180
808180
808180
808180
808180
808180
808180
808180
FFFFE0
000060
000060
000060
ENDCHAR
STARTCHAR 042A
ENCODING 1066
SWIDTH 822 0
DWIDTH 16 0
BBX 15 15 0 0
BITMAP
FC00
0400
0400
0400
0400
0400
07F8
040C
0406
0402
0402
0402
0406
041C
07F8
ENDCHAR
STARTCHAR 042B
ENCODING 1067
SWIDTH 925 0
DWIDTH 18 0
BBX 14 15 2 0
BITMAP
800C
800C
800C
800C
800C
800C
FF0C
818C
808C
80CC
80CC
80CC
808C
838C
FE0C
ENDCHAR
STARTCHAR 042C
ENCODING 1068
SWIDTH 668 0
DWIDTH 13 0
BBX 11 15 2 0
BITMAP
8000
8000
8000
8000
8000
8000
FF00
81C0
8040
8040
8060
8040
80C0
8180
FF00
ENDCHAR
STARTCHAR 042D
ENCODING 1069
SWIDTH 771 0
DWIDTH 15 0
BBX 13 15 1 0
BITMAP
3F80
E1C0
0060
0030
0010
0018
0018
0FF8
0018
0018
0010
0030
C060
E1C0
3F00
ENDCHAR
STARTCHAR 042E
ENCODING 1070
SWIDTH 1182 0
DWIDTH 23 0
BBX 20 15 2 0
BITMAP
80FF00
81C380
8300C0
860060
860060
840020
840030
FC0030
840030
840020
860060
820060
8300C0
81C380
807E00
ENDCHAR
STARTCHAR 042F
ENCODING 1071
SWIDTH 720 0
DWIDTH 14 0
BBX 11 15 1 0
BITMAP
1FE0
3060
6060
4060
C060
4060
6060
3060
1FE0
1860
1860
3060
2060
6060
C060
ENDCHAR
STARTCHAR 0430
ENCODING 1072
SWIDTH 668 0
DWIDTH 13 0
BBX 11 11 1 0
BITMAP
0E00
3F80
60C0
4060
C060
C020
C060
C060
60E0
31E0
1F20
ENDCHAR
STARTCHAR 0431
ENCODING 1073
SWIDTH 668 0
DWIDTH 13 0
BBX 11 16 1 0
BITMAP
00C0
0780
0E00
3800
2000
4000
5F00
F180
E0C0
C040
C060
C060
4040
60C0
3180
1F00
ENDCHAR
STARTCHAR 0432
ENCODING 1074
SWIDTH 617 0
DWIDTH 12 0
BBX 9 11 2 0
BITMAP
FC00
FF00
8100
8100
8300
FE00
8100
8180
8180
8300
FE00
ENDCHAR
STARTCHAR 0433
ENCODING 1075
SWIDTH 514 0
DWIDTH 10 0
BBX 8 11 1 0
BITMAP
3C
7E
C3
03
02
3C
60
C0
81
C3
7E
ENDCHAR
STARTCHAR 0434
ENCODING 1076
SWIDTH 668 0
DWIDTH 13 0
BBX 11 15 1 -4
BITMAP
0E00
3F80
60C0
4060
C060
C020
C060
C060
6060
31A0
1F60
0060
4040
71C0
1F00
ENDCHAR
STARTCHAR 0435
ENCODING 1077
SWIDTH 617 0
DWIDTH 12 0
BBX 10 11 1 0
BITMAP
0E00
3F80
6080
40C0
C040
FFC0
C000
C000
6000
3180
1F00
ENDCHAR
STARTCHAR 0436
ENCODING 1078
SWIDTH 771 0
DWIDTH 15 0
BBX 14 11 1 0
BITMAP
8208
C218
4210
2230
3260
1FC0
3260
2230
6210
C218
820C
ENDCHAR
STARTCHAR 0437
ENCODING 1079
SWIDTH 514 0
DWIDTH 10 0
BBX 8 11 1 0
BITMAP
3C
7E
C3
03
02
1C
03
01
81
C3
7E
ENDCHAR
STARTCHAR 0438
ENCODING 1080
SWIDTH 668 0
DWIDTH 13 0
BBX 9 11 2 0
BITMAP
8080
8080
8080
8080
8080
8080
8080
8080
C180
6380
3E80
ENDCHAR
STARTCHAR 0439
ENCODING 1081
SWIDTH 668 0
DWIDTH 13 0
BBX 9 15 2 0
BITMAP
6100
6300
1E00
0000
8080
8080
8080
8080
8080
8080
8080
8080
C180
6380
3E80
ENDCHAR
STARTCHAR 043A
ENCODING 1082
SWIDTH 565 0
DWIDTH 11 0
BBX 8 11 2 0
BITMAP
81
83
86
8C
98
F0
98
8C
86
83
81
ENDCHAR
STARTCHAR 043B
ENCODING 1083
SWIDTH 565 0
DWIDTH 11 0
BBX 10 11 1 0
BITMAP
0800
0C00
1C00
1600
3200
2300
6100
6100
C180
C080
80C0
ENDCHAR
STARTCHAR 043C
ENCODING 1084
SWIDTH 771 0
DWIDTH 15 0
BBX 11 11 2 0
BITMAP
8020
C060
C060
A0E0
B1A0
9920
8B20
8E20
8420
8020
8020
ENDCHAR
STARTCHAR 043D
ENCODING 1085
SWIDTH 668 0
DWIDTH 13 0
BBX 10 11 2 0
BITMAP
8080
80C0
80C0
80C0
80C0
FFC0
80C0
80C0
80C0
80C0
80C0
ENDCHAR
STARTCHAR 043E
ENCODING 1086
SWIDTH 668 0
DWIDTH 13 0
BBX 11 11 1 0
BITMAP
0E00
3F80
60C0
4060
C060
C020
C060
C060
60C0
31C0
1F00
ENDCHAR
STARTCHAR 043F
ENCODING 1087
SWIDTH 668 0
DWIDTH 13 0
BBX 10 11 2 0
BITMAP
9C00
BF00
C180
8080
80C0
80C0
80C0
80C0
80C0
80C0
80C0
ENDCHAR
STARTCHAR 0440
ENCODING 1088
SWIDTH 720 0
DWIDTH 14 0
BBX 11 16 2 -5
BITMAP
0E00
3F80
60C0
C0C0
8040
8060
8040
C040
C0C0
B180
9F00
8000
8000
8000
8000
8000
ENDCHAR
STARTCHAR 0441
ENCODING 1089
SWIDTH 617 0
DWIDTH 12 0
BBX 9 11 1 0
BITMAP
0E00
3F80
6080
4000
C000
C000
C000
C000
6000
3180
1F00
ENDCHAR
STARTCHAR 0442
ENCODING 1090
SWIDTH 925 0
DWIDTH 18 0
BBX 15 11 2 0
BITMAP
9C70
FEFC
C384
8306
8106
8106
8106
8106
8106
8106
8106
ENDCHAR
STARTCHAR 0443
ENCODING 1091
SWIDTH 565 0
DWIDTH 11 0
BBX 10 16 0 -5
BITMAP
4040
4040
60C0
6080
3180
3100
1300
1A00
0A00
0E00
0400
0C00
0800
1800
F000
6000
ENDCHAR
STARTCHAR 0444
ENCODING 1092
SWIDTH 771 0
DWIDTH 15 0
BBX 12 20 1 -5
BITMAP
0200
0200
0200
0200
0F80
3FE0
6230
4230
C210
C210
C210
C210
6230
3260
1FC0
0200
0200
0200
0200
0200
ENDCHAR
STARTCHAR 0445
ENCODING 1093
SWIDTH 565 0
DWIDTH 11 0
BBX 9 11 1 0
BITMAP
8000
C180
6300
2600
3C00
1800
1C00
3600
6300
C100
8180
ENDCHAR
STARTCHAR 0446
ENCODING 1094
SWIDTH 720 0
DWIDTH 14 0
BBX 11 14 2 -3
BITMAP
8080
8080
8080
8080
8080
8080
8080
8080
C180
6380
3EE0
0020
0020
0020
ENDCHAR
STARTCHAR 0447
ENCODING 1095
SWIDTH 565 0
DWIDTH 11 0
BBX 9 11 1 0
BITMAP
8100
8180
8180
8180
C180
C180
7F80
1D80
0180
0180
0180
ENDCHAR
STARTCHAR 0448
ENCODING 1096
SWIDTH 925 0
DWIDTH 18 0
BBX 15 11 2 0
BITMAP
8104
8306
8306
8306
8306
8306
8306
8306
8306
E59E
78F6
ENDCHAR
STARTCHAR 0449
ENCODING 1097
SWIDTH 977 0
DWIDTH 19 0
BBX 17 14 2 -3
BITMAP
810400
830600
830600
830600
830600
830600
830600
830600
830600
E59E00
78F780
000180
000180
000180
ENDCHAR
STARTCHAR 044A
ENCODING 1098
SWIDTH 668 0
DWIDTH 13 0
BBX 11 11 1 0
BITMAP
F000
F000
1000
1000
1FC0
1060
1020
1020
1860
0CE0
07C0
ENDCHAR
STARTCHAR 044B
ENCODING 1099
SWIDTH 771 0
DWIDTH 15 0
BBX 11 11 2 0
BITMAP
8020
8020
8020
8020
FC20
8320
8320
8120
C320
E320
7E20
ENDCHAR
STARTCHAR 044C
ENCODING 1100
SWIDTH 565 0
DWIDTH 11 0
BBX 9 11 2 0
BITMAP
8000
8000
8000
8000
FE00
8300
8180
8180
C180
E300
3E00
ENDCHAR
STARTCHAR 044D
ENCODING 1101
SWIDTH 617 0
DWIDTH 12 0
BBX 9 11 1 0
BITMAP
1C00
7F00
C100
0180
0080
1F80
0080
0080
0180
E300
3E00
ENDCHAR
STARTCHAR 044E
ENCODING 1102
SWIDTH 874 0
DWIDTH 17 0
BBX 14 11 2 0
BITMAP
81C0
87F0
8C18
880C
9804
F804
9804
880C
8C08
8638
83E0
ENDCHAR
STARTCHAR 044F
ENCODING 1103
SWIDTH 565 0
DWIDTH 11 0
BBX 9 11 1 0
BITMAP
1F00
7F80
4180
4180
4180
6180
3F80
3180
2180
6180
C100
ENDCHAR
STARTCHAR 0450
ENCODING 1104
SWIDTH 617 0
DWIDTH 12 0
BBX 10 16 1 0
BITMAP
3000
1800
0C00
0400
0000
0E00
3F80
6080
40C0
C040
FFC0
C000
C000
6000
3180
1F00
ENDCHAR
STARTCHAR 0451
ENCODING 1105
SWIDTH 617 0
DWIDTH 12 0
BBX 10 15 1 0
BITMAP
1100
3300
0000
0000
0E00
3F80
6080
40C0
C040
FFC0
C000
C000
6000
3180
1F00
ENDCHAR
STARTCHAR 0452
ENCODING 1106
SWIDTH 720 0
DWIDTH 14 0
BBX 12 20 0 -5
BITMAP
3000
3000
FF80
3000
3000
3780
3CE0
3820
3030
3010
3010
3010
3010
3010
3030
0030
0020
0060
01C0
0100
ENDCHAR
STARTCHAR 0453
ENCODING 1107
SWIDTH 514 0
DWIDTH 10 0
BBX 8 16 1 0
BITMAP
06
0E
1C
18
00
3C
7E
C3
03
02
3C
60
C0
81
C3
7E
ENDCHAR
STARTCHAR 0454
ENCODING 1108
SWIDTH 617 0
DWIDTH 12 0
BBX 9 11 1 0
BITMAP
0E00
3F80
6080
4000
C000
FE00
C000
C000
6000
3180
1F00
ENDCHAR
STARTCHAR 0455
ENCODING 1109
SWIDTH 514 0
DWIDTH 10 0
BBX 9 11 1 0
BITMAP
1C00
7F00
4100
4000
6000
3E00
0300
0180
8180
E300
3E00
ENDCHAR
STARTCHAR 0456
ENCODING 1110
SWIDTH 308 0
DWIDTH 6 0
BBX 2 15 2 0
BITMAP
C0
C0
00
00
80
C0
C0
C0
C0
C0
C0
C0
C0
C0
C0
ENDCHAR
STARTCHAR 0457
ENCODING 1111
SWIDTH 308 0
DWIDTH 6 0
BBX 6 15 0 0
BITMAP
88
CC
00
00
20
30
30
30
30
30
30
30
30
30
30
ENDCHAR
STARTCHAR 0458
ENCODING 1112
SWIDTH 308 0
DWIDTH 6 0
BBX 6 20 -2 -5
BITMAP
08
0C
00
00
08
08
08
08
08
08
08
08
08
08
08
08
08
18
F0
40
ENDCHAR
STARTCHAR 0459
ENCODING 1113
SWIDTH 822 0
DWIDTH 16 0
BBX 14 11 1 0
BITMAP
0800
0C00
1C00
1600
33F0
2318
630C
410C
C18C
C098
80F0
ENDCHAR
STARTCHAR 045A
ENCODING 1114
SWIDTH 977 0
DWIDTH 19 0
BBX 16 11 2 0
BITMAP
8080
8080
8080
8080
80FC
FF86
8083
8083
8083
80C6
807C
ENDCHAR
STARTCHAR 045B
ENCODING 1115
SWIDTH 668 0
DWIDTH 13 0
BBX 12 15 0 0
BITMAP
3000
3000
FF00
3000
3000
3FC0
3860
3030
3030
3030
3030
3030
3030
3030
2030
ENDCHAR
STARTCHAR 045C
ENCODING 1116
SWIDTH 565 0
DWIDTH 11 0
BBX 8 16 2 0
BITMAP
04
0C
18
10
00
81
83
86
8C
98
F0
98
8C
86
83
81
ENDCHAR
STARTCHAR 045D
ENCODING 1117
SWIDTH 668 0
DWIDTH 13 0
BBX 9 16 2 0
BITMAP
2000
3000
1800
0800
0000
8080
8080
8080
8080
8080
8080
8080
8080
C180
6380
3E80
ENDCHAR
STARTCHAR 045E
ENCODING 1118
SWIDTH 565 0
DWIDTH 11 0
BBX 10 20 0 -5
BITMAP
2180
3180
1F00
0000
4040
4040
60C0
6080
3180
3100
1300
1A00
0A00
0E00
0400
0C00
0800
1800
F000
6000
ENDCHAR
STARTCHAR 045F
ENCODING 1119
SWIDTH 565 0
DWIDTH 11 0
BBX 9 14 1 -3
BITMAP
8080
8180
8180
8180
8180
8180
8180
8180
8180
FF80
FF80
0800
0800
0800
ENDCHAR
STARTCHAR 0462
ENCODING 1122
SWIDTH 771 0
DWIDTH 15 0
BBX 14 15 0 0
BITMAP
1800
1800
FFC0
7FC0
1800
1800
1FF0
1818
180C
180C
1804
180C
180C
1838
1FF0
ENDCHAR
STARTCHAR 0463
ENCODING 1123
SWIDTH 617 0
DWIDTH 12 0
BBX 11 15 0 0
BITMAP
1000
1000
1000
1000
FF00
1000
1000
1000
1F80
10C0
1060
1060
1860
1CC0
0F80
ENDCHAR
STARTCHAR 046A
ENCODING 1130
SWIDTH 925 0
DWIDTH 18 0
BBX 16 15 1 0
BITMAP
3FFC
1008
1818
0C30
0420
0640
03C0
1FF0
3998
318C
6186
4186
C183
8183
8181
ENDCHAR
STARTCHAR 046B
ENCODING 1131
SWIDTH 720 0
DWIDTH 14 0
BBX 13 11 1 0
BITMAP
3FE0
3FC0
10C0
1980
0D00
1F80
7660
4620
C630
C610
8618
ENDCHAR
STARTCHAR 0472
ENCODING 1138
SWIDTH 925 0
DWIDTH 18 0
BBX 16 15 1 0
BITMAP
0FF0
1C38
300C
6006
4002
C002
C003
FFFF
C003
C002
4006
6006
300C
1C38
07E0
ENDCHAR
STARTCHAR 0473
ENCODING 1139
SWIDTH 668 0
DWIDTH 13 0
BBX 11 11 1 0
BITMAP
0E00
3F80
60C0
4060
C060
FFE0
C060
C060
60C0
31C0
1F00
ENDCHAR
STARTCHAR 0474
ENCODING 1140
SWIDTH 720 0
DWIDTH 14 0
BBX 14 15 0 0
BITMAP
C00C
4010
6030
6020
2020
3060
1040
18C0
18C0
0880
0D80
0500
0700
0700
0200
ENDCHAR
STARTCHAR 0475
ENCODING 1141
SWIDTH 565 0
DWIDTH 11 0
BBX 11 11 0 0
BITMAP
0060
C0E0
4080
6180
2100
3300
1200
1A00
0E00
0C00
0C00
ENDCHAR
STARTCHAR 0490
ENCODING 1168
SWIDTH 617 0
DWIDTH 12 0
BBX 10 18 2 1
BITMAP
00C0
00C0
00C0
FFC0
8000
8000
8000
8000
8000
8000
8000
8000
8000
8000
8000
8000
8000
8000
ENDCHAR
STARTCHAR 0491
ENCODING 1169
SWIDTH 514 0
DWIDTH 10 0
BBX 7 14 2 0
BITMAP
02
06
06
FE
FE
80
80
80
80
80
80
80
80
80
ENDCHAR
STARTCHAR 0492
ENCODING 1170
SWIDTH 617 0
DWIDTH 12 0
BBX 12 15 0 0
BITMAP
3FF0
2000
2000
2000
2000
2000
2000
FE00
2000
2000
2000
2000
2000
2000
2000
ENDCHAR
STARTCHAR 0493
ENCODING 1171
SWIDTH 462 0
DWIDTH 9 0
BBX 9 11 0 0
BITMAP
3F80
3F80
2000
2000
2000
FE00
2000
2000
2000
2000
2000
ENDCHAR
STARTCHAR 0494
ENCODING 1172
SWIDTH 668 0
DWIDTH 13 0
BBX 10 15 2 0
BITMAP
FFC0
8000
8000
8000
9E00
FF80
C180
80C0
8040
8040
8040
80C0
8080
8380
8F00
ENDCHAR
STARTCHAR 0495
ENCODING 1173
SWIDTH 565 0
DWIDTH 11 0
BBX 8 15 2 -4
BITMAP
FE
FE
80
80
BC
FE
83
81
81
81
81
03
03
1E
18
ENDCHAR
STARTCHAR 0496
ENCODING 1174
SWIDTH 1028 0
DWIDTH 20 0
BBX 19 18 1 -3
BITMAP
C0C0C0
40C080
60C180
30C300
18C600
08C400
0CCC00
07F800
0CCC00
18C600
30C200
20C300
60C180
C0C080
80C0E0
000020
000020
000020
ENDCHAR
STARTCHAR 0497
ENCODING 1175
SWIDTH 822 0
DWIDTH 16 0
BBX 14 14 1 -3
BITMAP
8208
C218
4210
6230
3260
1FC0
3260
2220
6230
C218
820C
0004
0004
0004
ENDCHAR
STARTCHAR 0498
ENCODING 1176
SWIDTH 617 0
DWIDTH 12 0
BBX 10 18 1 -3
BITMAP
3F00
6180
C080
00C0
0080
0180
0F00
0F80
00C0
0040
0040
0040
C0C0
E180
3F00
0400
0400
0400
ENDCHAR
STARTCHAR 0499
ENCODING 1177
SWIDTH 514 0
DWIDTH 10 0
BBX 8 14 1 -3
BITMAP
3C
7E
C3
03
02
1C
03
01
81
C3
7E
18
18
18
ENDCHAR
STARTCHAR 049A
ENCODING 1178
SWIDTH 668 0
DWIDTH 13 0
BBX 11 18 2 -3
BITMAP
8040
80C0
8180
8300
8600
8400
8C00
F800
8C00
8600
8200
8300
8180
80C0
8060
0020
0020
0020
ENDCHAR
STARTCHAR 049B
ENCODING 1179
SWIDTH 565 0
DWIDTH 11 0
BBX 9 14 2 -3
BITMAP
8100
8300
8600
8C00
8800
F800
9800
8C00
8600
8200
8380
0080
0080
0080
ENDCHAR
STARTCHAR 049C
ENCODING 1180
SWIDTH 668 0
DWIDTH 13 0
BBX 11 15 2 0
BITMAP
8040
80C0
8180
8300
9600
9400
9C00
F800
9C00
9600
9300
8180
8080
80C0
8060
ENDCHAR
STARTCHAR 049D
ENCODING 1181
SWIDTH 565 0
DWIDTH 11 0
BBX 9 11 2 0
BITMAP
8100
8300
8200
A600
AC00
F800
A800
AC00
8600
8300
8180
ENDCHAR
STARTCHAR 04A0
ENCODING 1184
SWIDTH 874 0
DWIDTH 17 0
BBX 16 15 0 0
BITMAP
FE02
0606
060C
0618
0610
0630
0660
07C0
0660
0630
0618
060C
0606
0603
0603
ENDCHAR
STARTCHAR 04A1
ENCODING 1185
SWIDTH 668 0
DWIDTH 13 0
BBX 11 11 1 0
BITMAP
F020
F060
10C0
1180
1300
1E00
1300
1180
10C0
1060
1020
ENDCHAR
STARTCHAR 04A2
ENCODING 1186
SWIDTH 822 0
DWIDTH 16 0
BBX 14 18 2 -3
BITMAP
8010
8010
8010
8010
8010
8010
8010
FFF0
8010
8010
8010
8010
8010
8010
801C
0004
0004
0004
ENDCHAR
STARTCHAR 04A3
ENCODING 1187
SWIDTH 668 0
DWIDTH 13 0
BBX 11 14 2 -3
BITMAP
8080
80C0
80C0
80C0
80C0
FFC0
80C0
80C0
80C0
80C0
80E0
0020
0020
0020
ENDCHAR
STARTCHAR 04A4
ENCODING 1188
SWIDTH 1131 0
DWIDTH 22 0
BBX 19 15 2 0
BITMAP
803FE0
802000
802000
802000
802000
802000
802000
FFE000
802000
802000
802000
802000
802000
802000
802000
ENDCHAR
STARTCHAR 04A5
ENCODING 1189
SWIDTH 874 0
DWIDTH 17 0
BBX 14 11 2 0
BITMAP
80FC
81FC
8180
8180
8180
FF80
8180
8180
8180
8180
8180
ENDCHAR
STARTCHAR 04AA
ENCODING 1194
SWIDTH 771 0
DWIDTH 15 0
BBX 13 18 1 -3
BITMAP
0FE0
1C38
3000
6000
4000
C000
C000
C000
C000
C000
4000
6000
3018
1C38
07E0
0180
0180
0180
ENDCHAR
STARTCHAR 04AB
ENCODING 1195
SWIDTH 617 0
DWIDTH 12 0
BBX 9 14 1 -3
BITMAP
0E00
3F80
6080
4000
C000
C000
C000
C000
6000
3180
1F00
0400
0400
0400
ENDCHAR
STARTCHAR 04AE
ENCODING 1198
SWIDTH 668 0
DWIDTH 13 0
BBX 12 15 0 0
BITMAP
C010
4030
6020
3060
30C0
18C0
0980
0D00
0700
0200
0200
0200
0200
0200
0200
ENDCHAR
STARTCHAR 04AF
ENCODING 1199
SWIDTH 514 0
DWIDTH 10 0
BBX 10 15 0 -4
BITMAP
0040
C0C0
4080
6180
2180
3100
1300
1A00
0E00
0C00
0C00
0C00
0C00
0C00
0C00
ENDCHAR
STARTCHAR 04B0
ENCODING 1200
SWIDTH 668 0
DWIDTH 13 0
BBX 12 15 0 0
BITMAP
C010
4030
6020
3060
30C0
18C0
0980
0D00
0700
1FC0
0200
0200
0200
0200
0200
ENDCHAR
STARTCHAR 04B1
ENCODING 1201
SWIDTH 565 0
DWIDTH 11 0
BBX 10 16 1 -5
BITMAP
8080
C0C0
C180
4180
6300
2300
3200
1600
1C00
0C00
7F80
7F80
0800
0800
0800
0800
ENDCHAR
STARTCHAR 04B6
ENCODING 1206
SWIDTH 771 0
DWIDTH 15 0
BBX 14 18 1 -3
BITMAP
C030
C030
C030
C030
4030
4030
6030
6030
3FF0
0F30
0030
0030
0030
0030
003C
000C
000C
000C
ENDCHAR
STARTCHAR 04B7
ENCODING 1207
SWIDTH 565 0
DWIDTH 11 0
BBX 10 14 1 -3
BITMAP
8100
8180
8180
8180
C180
C180
7F80
1D80
0180
0180
01C0
0040
0040
0040
ENDCHAR
STARTCHAR 04B8
ENCODING 1208
SWIDTH 771 0
DWIDTH 15 0
BBX 12 15 1 0
BITMAP
C030
C030
C030
C030
4030
4030
6230
6230
3FF0
0F30
0230
0230
0030
0030
0030
ENDCHAR
STARTCHAR 04B9
ENCODING 1209
SWIDTH 565 0
DWIDTH 11 0
BBX 9 11 1 0
BITMAP
8100
8180
8180
8180
C980
C980
7F80
1D80
0980
0980
0180
ENDCHAR
STARTCHAR 04BA
ENCODING 1210
SWIDTH 771 0
DWIDTH 15 0
BBX 11 15 2 0
BITMAP
8000
8000
8000
8000
8000
9F00
B1C0
C040
8060
8020
8020
8020
8020
8020
8020
ENDCHAR
STARTCHAR 04BB
ENCODING 1211
SWIDTH 668 0
DWIDTH 13 0
BBX 10 15 2 0
BITMAP
8000
8000
8000
8000
9C00
BF00
C180
8080
80C0
80C0
80C0
80C0
80C0
80C0
80C0
ENDCHAR
STARTCHAR 04C0
ENCODING 1216
SWIDTH 257 0
DWIDTH 5 0
BBX 1 15 2 0
BITMAP
80
80
80
80
80
80
80
80
80
80
80
80
80
80
80
ENDCHAR
STARTCHAR 04C1
ENCODING 1217
SWIDTH 1028 0
DWIDTH 20 0
BBX 18 20 1 0
BITMAP
021000
021000
03F000
000000
000000
C0C0C0
40C080
60C180
30C300
18C600
08C400
0CCC00
07F800
0CCC00
18C600
30C300
20C100
60C180
C0C0C0
80C040
ENDCHAR
STARTCHAR 04C2
ENCODING 1218
SWIDTH 771 0
DWIDTH 15 0
BBX 14 15 1 0
BITMAP
1840
08C0
0780
0000
8208
C218
4210
2230
3260
1FC0
3260
2230
6210
C218
820C
ENDCHAR
STARTCHAR 04CB
ENCODING 1227
SWIDTH 771 0
DWIDTH 15 0
BBX 12 18 1 -3
BITMAP
C030
C030
C030
C030
4030
4030
6030
6030
3FF0
0F30
0030
0030
0030
0030
0070
0040
0040
0040
ENDCHAR
STARTCHAR 04CC
ENCODING 1228
SWIDTH 565 0
DWIDTH 11 0
BBX 9 14 1 -3
BITMAP
8100
8180
8180
8180
C180
C180
7F80
1D80
0180
0180
0780
0600
0600
0600
ENDCHAR
STARTCHAR 04CF
ENCODING 1231
SWIDTH 257 0
DWIDTH 5 0
BBX 4 15 1 0
BITMAP
C0
C0
C0
C0
C0
C0
C0
C0
C0
C0
C0
C0
C0
60
30
ENDCHAR
STARTCHAR 04D0
ENCODING 1232
SWIDTH 720 0
DWIDTH 14 0
BBX 13 20 0 0
BITMAP
0840
0840
0F80
0000
0000
0300
0300
0780
0580
0C80
0CC0
0840
1860
1060
3020
3FF0
6010
6018
4018
C008
ENDCHAR
STARTCHAR 04D1
ENCODING 1233
SWIDTH 668 0
DWIDTH 13 0
BBX 11 15 1 0
BITMAP
3080
3180
0F00
0000
0E00
3F80
60C0
4060
C060
C020
C060
C060
60E0
31E0
1F20
ENDCHAR
STARTCHAR 04D2
ENCODING 1234
SWIDTH 720 0
DWIDTH 14 0
BBX 13 19 0 0
BITMAP
0CC0
0CC0
0000
0000
0300
0300
0780
0580
0C80
0CC0
0840
1860
1060
3020
3FF0
6010
6018
4018
C008
ENDCHAR
STARTCHAR 04D3
ENCODING 1235
SWIDTH 668 0
DWIDTH 13 0
BBX 11 15 1 0
BITMAP
1100
3980
0000
0000
0E00
3F80
60C0
4060
C060
C020
C060
C060
60E0
31E0
1F20
ENDCHAR
STARTCHAR 04D4
ENCODING 1236
SWIDTH 977 0
DWIDTH 19 0
BBX 18 15 0 0
BITMAP
007FC0
00C000
01C000
014000
034000
024000
064000
0C7E00
084000
184000
1FC000
304000
604000
404000
C07FC0
ENDCHAR
STARTCHAR 04D5
ENCODING 1237
SWIDTH 1080 0
DWIDTH 21 0
BBX 20 11 1 0
BITMAP
0E0700
3F9FC0
60D060
406020
C06020
C03FF0
C06000
C06000
60F000
31F8E0
1F2F80
ENDCHAR
STARTCHAR 04D6
ENCODING 1238
SWIDTH 668 0
DWIDTH 13 0
BBX 11 20 2 0
BITMAP
2180
3180
1F00
0000
0000
FFE0
8000
8000
8000
8000
8000
8000
FF00
8000
8000
8000
8000
8000
8000
FFE0
ENDCHAR
STARTCHAR 04D7
ENCODING 1239
SWIDTH 617 0
DWIDTH 12 0
BBX 10 15 1 0
BITMAP
2180
3100
1E00
0000
0E00
3F80
6080
40C0
C040
FFC0
C000
C000
6000
3180
1F00
ENDCHAR
STARTCHAR 04D8
ENCODING 1240
SWIDTH 822 0
DWIDTH 16 0
BBX 14 15 1 0
BITMAP
0FC0
3870
2010
6018
4008
C00C
C00C
FFFC
000C
000C
0008
0018
6030
38E0
0FC0
ENDCHAR
STARTCHAR 04D9
ENCODING 1241
SWIDTH 617 0
DWIDTH 12 0
BBX 10 11 1 0
BITMAP
1C00
7F00
4180
0080
00C0
FFC0
80C0
8080
C180
6300
3E00
ENDCHAR
STARTCHAR 04DC
ENCODING 1244
SWIDTH 1028 0
DWIDTH 20 0
BBX 18 19 1 0
BITMAP
033000
033000
000000
000000
C0C0C0
40C080
60C180
30C300
18C600
08C400
0CCC00
07F800
0CCC00
18C600
30C300
20C100
60C180
C0C0C0
80C040
ENDCHAR
STARTCHAR 04DD
ENCODING 1245
SWIDTH 771 0
DWIDTH 15 0
BBX 14 15 1 0
BITMAP
0880
0CC0
0000
0000
8208
C218
4210
2230
3260
1FC0
3260
2230
6210
C218
820C
ENDCHAR
STARTCHAR 04DE
ENCODING 1246
SWIDTH 617 0
DWIDTH 12 0
BBX 10 19 1 0
BITMAP
3300
3100
0000
0000
3F00
6180
C080
00C0
0080
0180
0F00
0F80
00C0
0040
0040
0040
C0C0
E180
3F00
ENDCHAR
STARTCHAR 04DF
ENCODING 1247
SWIDTH 514 0
DWIDTH 10 0
BBX 8 15 1 0
BITMAP
22
66
00
00
3C
7E
C3
03
02
1C
03
01
81
C3
7E
ENDCHAR
STARTCHAR 04E2
ENCODING 1250
SWIDTH 822 0
DWIDTH 16 0
BBX 13 19 2 0
BITMAP
1F80
1F80
0000
0000
8010
8038
8078
80D8
8098
8198
8318
8618
8418
8818
9818
B018
E018
C018
8010
ENDCHAR
STARTCHAR 04E3
ENCODING 1251
SWIDTH 668 0
DWIDTH 13 0
BBX 9 14 2 0
BITMAP
7F00
0000
0000
8080
8080
8080
8080
8080
8080
8080
8080
C180
6380
3E80
ENDCHAR
STARTCHAR 04E4
ENCODING 1252
SWIDTH 822 0
DWIDTH 16 0
BBX 13 19 2 0
BITMAP
1980
1980
0000
0000
8010
8038
8078
80D8
8098
8198
8318
8618
8418
8818
9818
B018
E018
C018
8010
ENDCHAR
STARTCHAR 04E5
ENCODING 1253
SWIDTH 668 0
DWIDTH 13 0
BBX 9 15 2 0
BITMAP
2200
7300
0000
0000
8080
8080
8080
8080
8080
8080
8080
8080
C180
6380
3E80
ENDCHAR
STARTCHAR 04E6
ENCODING 1254
SWIDTH 925 0
DWIDTH 18 0
BBX 16 19 1 0
BITMAP
0660
0660
0000
0000
0FF0
1C38
300C
6006
4002
C002
C003
C003
C003
C002
4006
6006
300C
1C38
07E0
ENDCHAR
STARTCHAR 04E7
ENCODING 1255
SWIDTH 668 0
DWIDTH 13 0
BBX 11 15 1 0
BITMAP
1100
3980
0000
0000
0E00
3F80
60C0
4060
C060
C020
C060
C060
60C0
31C0
1F00
ENDCHAR
STARTCHAR 04E8
ENCODING 1256
SWIDTH 925 0
DWIDTH 18 0
BBX 16 15 1 0
BITMAP
0FF0
1C38
300C
6006
4002
C002
C003
FFFF
C003
C002
4006
6006
300C
1C38
07E0
ENDCHAR
STARTCHAR 04E9
ENCODING 1257
SWIDTH 668 0
DWIDTH 13 0
BBX 11 11 1 0
BITMAP
0E00
3F80
60C0
4060
C060
FFE0
C060
C060
60C0
31C0
1F00
ENDCHAR
STARTCHAR 04EE
ENCODING 1262
SWIDTH 720 0
DWIDTH 14 0
BBX 13 19 0 0
BITMAP
0FC0
0FC0
0000
0000
C018
C010
6030
2020
3060
1040
18C0
0CC0
0580
0780
0300
0300
0200
2E00
3C00
ENDCHAR
STARTCHAR 04EF
ENCODING 1263
SWIDTH 565 0
DWIDTH 11 0
BBX 10 19 0 -5
BITMAP
3F80
0000
0000
4040
4040
60C0
6080
3180
3100
1300
1A00
0A00
0E00
0400
0C00
0800
1800
F000
6000
ENDCHAR
STARTCHAR 04F0
ENCODING 1264
SWIDTH 720 0
DWIDTH 14 0
BBX 13 19 0 0
BITMAP
0CC0
0CC0
0000
0000
C018
C010
6030
2020
3060
1040
18C0
0CC0
0580
0780
0300
0300
0200
2E00
3C00
ENDCHAR
STARTCHAR 04F1
ENCODING 1265
SWIDTH 565 0
DWIDTH 11 0
BBX 10 20 0 -5
BITMAP
1100
3380
0000
0000
4040
4040
60C0
6080
3180
3100
1300
1A00
0A00
0E00
0400
0C00
0800
1800
F000
6000
ENDCHAR
STARTCHAR 04F2
ENCODING 1266
SWIDTH 720 0
DWIDTH 14 0
BBX 13 21 0 0
BITMAP
0240
06C0
0680
0480
0000
0000
C018
C010
6030
2020
3060
1040
18C0
0CC0
0580
0780
0300
0300
0200
2E00
3C00
ENDCHAR
STARTCHAR 04F3
ENCODING 1267
SWIDTH 565 0
DWIDTH 11 0
BBX 10 21 0 -5
BITMAP
0D80
0900
0900
1200
0000
4040
4040
60C0
6080
3180
3100
1300
1A00
0A00
0E00
0400
0C00
0800
1800
F000
6000
ENDCHAR
STARTCHAR 04F4
ENCODING 1268
SWIDTH 771 0
DWIDTH 15 0
BBX 12 19 1 0
BITMAP
1980
1980
0000
0000
C030
C030
C030
C030
4030
4030
6030
6030
3FF0
0F30
0030
0030
0030
0030
0030
ENDCHAR
STARTCHAR 04F5
ENCODING 1269
SWIDTH 565 0
DWIDTH 11 0
BBX 9 15 1 0
BITMAP
2200
6600
0000
0000
8100
8180
8180
8180
C180
C180
7F80
1D80
0180
0180
0180
ENDCHAR
STARTCHAR 04F6
ENCODING 1270
SWIDTH 617 0
DWIDTH 12 0
BBX 10 18 2 -3
BITMAP
FFC0
8000
8000
8000
8000
8000
8000
8000
8000
8000
8000
8000
8000
8000
E000
2000
2000
2000
ENDCHAR
STARTCHAR 04F7
ENCODING 1271
SWIDTH 514 0
DWIDTH 10 0
BBX 8 14 1 -3
BITMAP
3C
7E
C3
03
02
3C
60
C0
81
C3
7E
18
18
18
ENDCHAR
STARTCHAR 04F8
ENCODING 1272
SWIDTH 925 0
DWIDTH 18 0
BBX 14 19 2 0
BITMAP
0CC0
0CC0
0000
0000
800C
800C
800C
800C
800C
800C
FF0C
818C
808C
80CC
80CC
80CC
808C
838C
FE0C
ENDCHAR
STARTCHAR 04F9
ENCODING 1273
SWIDTH 771 0
DWIDTH 15 0
BBX 11 15 2 0
BITMAP
1100
3300
0000
0000
8020
8020
8020
8020
FC20
8320
8320
8120
C320
E320
7E20
ENDCHAR
STARTCHAR 051A
ENCODING 1306
SWIDTH 925 0
DWIDTH 18 0
BBX 16 15 1 0
BITMAP
0FF0
1C38
300C
6006
4002
C002
C003
C003
C003
C002
4066
6036
301C
1C3C
07E6
ENDCHAR
STARTCHAR 051B
ENCODING 1307
SWIDTH 720 0
DWIDTH 14 0
BBX 11 16 1 -5
BITMAP
0E00
3F80
60C0
4060
C060
C020
C060
C060
60E0
31E0
1F60
0060
0060
0060
0060
0020
ENDCHAR
STARTCHAR 051C
ENCODING 1308
SWIDTH 925 0
DWIDTH 18 0
BBX 18 15 0 0
BITMAP
C040C0
40C0C0
40C080
60E180
61A180
212100
312100
333300
131300
121200
1A1E00
0E1E00
0C0C00
0C0C00
0C0C00
ENDCHAR
STARTCHAR 051D
ENCODING 1309
SWIDTH 720 0
DWIDTH 14 0
BBX 14 11 0 0
BITMAP
0104
C30C
430C
6388
6688
2498
34D0
3C50
1870
1860
1820
ENDCHAR
STARTCHAR 1E80
ENCODING 7808
SWIDTH 925 0
DWIDTH 18 0
BBX 18 20 0 1
BITMAP
030000
018000
00C000
000000
000000
C040C0
40C0C0
40C080
60E180
61A180
212100
312100
333300
131300
121200
1A1E00
0E1E00
0C0C00
0C0C00
0C0C00
ENDCHAR
STARTCHAR 1E81
ENCODING 7809
SWIDTH 720 0
DWIDTH 14 0
BBX 14 16 0 0
BITMAP
0C00
0600
0300
0100
0000
0104
C30C
430C
6388
6688
2498
34D0
3C50
1870
1860
1820
ENDCHAR
STARTCHAR 1E82
ENCODING 7810
SWIDTH 925 0
DWIDTH 18 0
BBX 18 20 0 0
BITMAP
003000
006000
00C000
000000
000000
C040C0
40C0C0
40C080
60E180
61A180
212100
312100
333300
131300
121200
1A1E00
0E1E00
0C0C00
0C0C00
0C0C00
ENDCHAR
STARTCHAR 1E83
ENCODING 7811
SWIDTH 720 0
DWIDTH 14 0
BBX 14 16 0 0
BITMAP
00C0
01C0
0380
0300
0000
0104
C30C
430C
6388
6688
2498
34D0
3C50
1870
1860
1820
ENDCHAR
STARTCHAR 1E84
ENCODING 7812
SWIDTH 925 0
DWIDTH 18 0
BBX 18 19 0 0
BITMAP
033000
033000
000000
000000
C040C0
40C0C0
40C080
60E180
61A180
212100
312100
333300
131300
121200
1A1E00
0E1E00
0C0C00
0C0C00
0C0C00
ENDCHAR
STARTCHAR 1E85
ENCODING 7813
SWIDTH 720 0
DWIDTH 14 0
BBX 14 15 0 0
BITMAP
0440
0CC0
0000
0000
0104
C30C
430C
6388
6688
2498
34D0
3C50
1870
1860
1820
ENDCHAR
STARTCHAR 1E9E
ENCODING 7838
SWIDTH 720 0
DWIDTH 14 0
BBX 10 15 2 0
BITMAP
3E00
6380
C080
C100
8200
8600
8F00
81C0
80C0
8040
8040
8040
80C0
9980
9F00
ENDCHAR
STARTCHAR 1EA0
ENCODING 7840
SWIDTH 720 0
DWIDTH 14 0
BBX 13 19 0 -4
BITMAP
0300
0300
0780
0580
0C80
0CC0
0840
1860
1060
3020
3FF0
6010
6018
4018
C008
0000
0000
0300
0300
ENDCHAR
STARTCHAR 1EA1
ENCODING 7841
SWIDTH 668 0
DWIDTH 13 0
BBX 11 15 1 -4
BITMAP
0E00
3F80
60C0
4060
C060
C020
C060
C060
60E0
31E0
1F20
0000
0000
0600
0600
ENDCHAR
STARTCHAR 1EA2
ENCODING 7842
SWIDTH 720 0
DWIDTH 14 0
BBX 13 21 0 0
BITMAP
0780
0080
0080
0300
0200
0000
0300
0300
0780
0580
0C80
0CC0
0840
1860
1060
3020
3FF0
6010
6018
4018
C008
ENDCHAR
STARTCHAR 1EA3
ENCODING 7843
SWIDTH 668 0
DWIDTH 13 0
BBX 11 17 1 0
BITMAP
0600
0F00
0100
0700
0400
0000
0E00
3F80
60C0
4060
C060
C020
C060
C060
60E0
31E0
1F20
ENDCHAR
STARTCHAR 1EA4
ENCODING 7844
SWIDTH 720 0
DWIDTH 14 0
BBX 13 24 0 0
BITMAP
0020
0060
00C0
0080
0300
0780
0CC0
0000
0000
0300
0300
0780
0580
0C80
0CC0
0840
1860
1060
3020
3FF0
6010
6018
4018
C008
ENDCHAR
STARTCHAR 1EA5
ENCODING 7845
SWIDTH 668 0
DWIDTH 13 0
BBX 11 19 1 0
BITMAP
00C0
01C0
0180
0000
0E00
1B00
1100
0000
0E00
3F80
60C0
4060
C060
C020
C060
C060
60E0
31E0
1F20
ENDCHAR
STARTCHAR 1EA6
ENCODING 7846
SWIDTH 720 0
DWIDTH 14 0
BBX 13 24 0 0
BITMAP
0200
0300
0180
0080
0300
0780
0CC0
0000
0000
0300
0300
0780
0580
0C80
0CC0
0840
1860
1060
3020
3FF0
6010
6018
4018
C008
ENDCHAR
STARTCHAR 1EA7
ENCODING 7847
SWIDTH 668 0
DWIDTH 13 0
BBX 11 19 1 0
BITMAP
0400
0600
0300
0000
0E00
1B00
1100
0000
0E00
3F80
60C0
4060
C060
C020
C060
C060
60E0
31E0
1F20
ENDCHAR
STARTCHAR 1EA8
ENCODING 7848
SWIDTH 720 0
DWIDTH 14 0
BBX 13 25 0 0
BITMAP
00C0
01E0
0020
0060
0080
0300
0780
0CC0
0000
0000
0300
0300
0780
0580
0C80
0CC0
0840
1860
1060
3020
3FF0
6010
6018
4018
C008
ENDCHAR
STARTCHAR 1EA9
ENCODING 7849
SWIDTH 668 0
DWIDTH 13 0
BBX 11 20 1 0
BITMAP
0380
02C0
0040
0180
0100
0E00
1B00
1100
0000
0E00
3F80
60C0
4060
C060
C020
C060
C060
60E0
31E0
1F20
ENDCHAR
STARTCHAR 1EAA
ENCODING 7850
SWIDTH 720 0
DWIDTH 14 0
BBX 13 23 0 0
BITMAP
0600
0BC0
0180
0300
0780
0CC0
0000
0000
0300
0300
0780
0580
0C80
0CC0
0840
1860
1060
3020
3FF0
6010
6018
4018
C008
ENDCHAR
STARTCHAR 1EAB
ENCODING 7851
SWIDTH 668 0
DWIDTH 13 0
BBX 11 18 1 0
BITMAP
1D00
3700
0000
0E00
1B00
1100
0000
0E00
3F80
60C0
4060
C060
C020
C060
C060
60E0
31E0
1F20
ENDCHAR
STARTCHAR 1EAC
ENCODING 7852
SWIDTH 720 0
DWIDTH 14 0
BBX 13 24 0 -4
BITMAP
0300
0780
0CC0
0000
0000
0300
0300
0780
0580
0C80
0CC0
0840
1860
1060
3020
3FF0
6010
6018
4018
C008
0000
0000
0300
0300
ENDCHAR
STARTCHAR 1EAD
ENCODING 7853
SWIDTH 668 0
DWIDTH 13 0
BBX 11 19 1 -4
BITMAP
0E00
1B00
1100
0000
0E00
3F80
60C0
4060
C060
C020
C060
C060
60E0
31E0
1F20
0000
0000
0600
0600
ENDCHAR
STARTCHAR 1EAE
ENCODING 7854
SWIDTH 720 0
DWIDTH 14 0
BBX 13 24 0 0
BITMAP
0080
0180
0300
0200
0840
0CC0
0780
0000
0000
0300
0300
0780
0580
0C80
0CC0
0840
1860
1060
3020
3FF0
6010
6018
4018
C008
ENDCHAR
STARTCHAR 1EAF
ENCODING 7855
SWIDTH 668 0
DWIDTH 13 0
BBX 11 19 1 0
BITMAP
0100
0300
0600
0000
1180
1F00
0E00
0000
0E00
3F80
60C0
4060
C060
C020
C060
C060
60E0
31E0
1F20
ENDCHAR
STARTCHAR 1EB0
ENCODING 7856
SWIDTH 720 0
DWIDTH 14 0
BBX 13 24 0 0
BITMAP
0800
0C00
0600
0200
0840
0CC0
0780
0000
0000
0300
0300
0780
0580
0C80
0CC0
0840
1860
1060
3020
3FF0
6010
6018
4018
C008
ENDCHAR
STARTCHAR 1EB1
ENCODING 7857
SWIDTH 668 0
DWIDTH 13 0
BBX 11 19 1 0
BITMAP
1800
1C00
0C00
0000
1180
1F00
0E00
0000
0E00
3F80
60C0
4060
C060
C020
C060
C060
60E0
31E0
1F20
ENDCHAR
STARTCHAR 1EB2
ENCODING 7858
SWIDTH 720 0
DWIDTH 14 0
BBX 13 25 0 0
BITMAP
0100
0780
0080
0180
0200
0840
0CC0
0780
0000
0000
0300
0300
0780
0580
0C80
0CC0
0840
1860
1060
3020
3FF0
6010
6018
4018
C008
ENDCHAR
STARTCHAR 1EB3
ENCODING 7859
SWIDTH 668 0
DWIDTH 13 0
BBX 11 20 1 0
BITMAP
0E00
0B00
0100
0600
0400
1180
1F00
0E00
0000
0E00
3F80
60C0
4060
C060
C020
C060
C060
60E0
31E0
1F20
ENDCHAR
STARTCHAR 1EB4
ENCODING 7860
SWIDTH 720 0
DWIDTH 14 0
BBX 13 23 0 0
BITMAP
0600
0FC0
0980
0840
0CC0
0780
0000
0000
0300
0300
0780
0580
0C80
0CC0
0840
1860
1060
3020
3FF0
6010
6018
4018
C008
ENDCHAR
STARTCHAR 1EB5
ENCODING 7861
SWIDTH 668 0
DWIDTH 13 0
BBX 11 18 1 0
BITMAP
1D80
3700
0000
1180
1F00
0E00
0000
0E00
3F80
60C0
4060
C060
C020
C060
C060
60E0
31E0
1F20
ENDCHAR
STARTCHAR 1EB6
ENCODING 7862
SWIDTH 720 0
DWIDTH 14 0
BBX 13 24 0 -4
BITMAP
0840
0CC0
0780
0000
0000
0300
0300
0780
0580
0C80
0CC0
0840
1860
1060
3020
3FF0
6010
6018
4018
C008
0000
0000
0300
0300
ENDCHAR
STARTCHAR 1EB7
ENCODING 7863
SWIDTH 668 0
DWIDTH 13 0
BBX 11 19 1 -4
BITMAP
1180
1F00
0E00
0000
0E00
3F80
60C0
4060
C060
C020
C060
C060
60E0
31E0
1F20
0000
0000
0600
0600
ENDCHAR
STARTCHAR 1EB8
ENCODING 7864
SWIDTH 668 0
DWIDTH 13 0
BBX 11 19 2 -4
BITMAP
FFE0
8000
8000
8000
8000
8000
8000
FF00
8000
8000
8000
8000
8000
8000
FFE0
0000
0000
0C00
0C00
ENDCHAR
STARTCHAR 1EB9
ENCODING 7865
SWIDTH 617 0
DWIDTH 12 0
BBX 10 15 1 -4
BITMAP
0E00
3F80
6080
40C0
C040
FFC0
C000
C000
6000
3180
1F00
0000
0000
0C00
0C00
ENDCHAR
STARTCHAR 1EBA
ENCODING 7866
SWIDTH 668 0
DWIDTH 13 0
BBX 11 21 2 0
BITMAP
0E00
0100
0300
0600
0400
0000
FFE0
8000
8000
8000
8000
8000
8000
FF00
8000
8000
8000
8000
8000
8000
FFE0
ENDCHAR
STARTCHAR 1EBB
ENCODING 7867
SWIDTH 617 0
DWIDTH 12 0
BBX 10 17 1 0
BITMAP
0C00
1E00
0300
0600
0C00
0000
0E00
3F80
6080
40C0
C040
FFC0
C000
C000
6000
3180
1F00
ENDCHAR
STARTCHAR 1EBC
ENCODING 7868
SWIDTH 668 0
DWIDTH 13 0
BBX 11 19 2 0
BITMAP
1C80
2780
0000
0000
FFE0
8000
8000
8000
8000
8000
8000
FF00
8000
8000
8000
8000
8000
8000
FFE0
ENDCHAR
STARTCHAR 1EBD
ENCODING 7869
SWIDTH 617 0
DWIDTH 12 0
BBX 10 15 1 0
BITMAP
0800
3F80
2380
0000
0E00
3F80
6080
40C0
C040
FFC0
C000
C000
6000
3180
1F00
ENDCHAR
STARTCHAR 1EBE
ENCODING 7870
SWIDTH 668 0
DWIDTH 13 0
BBX 11 24 2 0
BITMAP
0040
00C0
0180
0300
0400
1F00
3300
0000
0000
FFE0
8000
8000
8000
8000
8000
8000
FF00
8000
8000
8000
8000
8000
8000
FFE0
ENDCHAR
STARTCHAR 1EBF
ENCODING 7871
SWIDTH 617 0
DWIDTH 12 0
BBX 10 19 1 0
BITMAP
00C0
0180
0300
0000
0E00
3F00
2100
0000
0E00
3F80
6080
40C0
C040
FFC0
C000
C000
6000
3180
1F00
ENDCHAR
STARTCHAR 1EC0
ENCODING 7872
SWIDTH 668 0
DWIDTH 13 0
BBX 11 24 2 0
BITMAP
0C00
0600
0300
0100
0400
1F00
3300
0000
0000
FFE0
8000
8000
8000
8000
8000
8000
FF00
8000
8000
8000
8000
8000
8000
FFE0
ENDCHAR
STARTCHAR 1EC1
ENCODING 7873
SWIDTH 617 0
DWIDTH 12 0
BBX 10 19 1 0
BITMAP
0C00
0600
0300
0000
0E00
3F00
2100
0000
0E00
3F80
6080
40C0
C040
FFC0
C000
C000
6000
3180
1F00
ENDCHAR
STARTCHAR 1EC2
ENCODING 7874
SWIDTH 668 0
DWIDTH 13 0
BBX 11 25 2 0
BITMAP
0100
03C0
0040
01C0
0100
0500
1F00
3100
0000
0000
FFE0
8000
8000
8000
8000
8000
8000
FF00
8000
8000
8000
8000
8000
8000
FFE0
ENDCHAR
STARTCHAR 1EC3
ENCODING 7875
SWIDTH 617 0
DWIDTH 12 0
BBX 10 20 1 0
BITMAP
0380
0680
00C0
0380
0300
0E00
3B00
2100
0000
0E00
3F80
6080
40C0
C040
FFC0
C000
C000
6000
3180
1F00
ENDCHAR
STARTCHAR 1EC4
ENCODING 7876
SWIDTH 668 0
DWIDTH 13 0
BBX 11 23 2 0
BITMAP
1900
3700
0200
0400
1F00
3100
0000
0000
FFE0
8000
8000
8000
8000
8000
8000
FF00
8000
8000
8000
8000
8000
8000
FFE0
ENDCHAR
STARTCHAR 1EC5
ENCODING 7877
SWIDTH 617 0
DWIDTH 12 0
BBX 10 18 1 0
BITMAP
3900
2700
0000
0E00
3B00
2100
0000
0E00
3F80
6080
40C0
C040
FFC0
C000
C000
6000
3180
1F00
ENDCHAR
STARTCHAR 1EC6
ENCODING 7878
SWIDTH 668 0
DWIDTH 13 0
BBX 11 24 2 -4
BITMAP
0400
1F00
3100
0000
0000
FFE0
8000
8000
8000
8000
8000
8000
FF00
8000
8000
8000
8000
8000
8000
FFE0
0000
0000
0C00
0C00
ENDCHAR
STARTCHAR 1EC7
ENCODING 7879
SWIDTH 617 0
DWIDTH 12 0
BBX 10 19 1 -4
BITMAP
0E00
3F00
2100
0000
0E00
3F80
6080
40C0
C040
FFC0
C000
C000
6000
3180
1F00
0000
0000
0C00
0C00
ENDCHAR
STARTCHAR 1EC8
ENCODING 7880
SWIDTH 257 0
DWIDTH 5 0
BBX 4 21 1 0
BITMAP
F0
10
10
60
40
00
40
40
40
40
40
40
40
40
40
40
40
40
40
40
40
ENDCHAR
STARTCHAR 1EC9
ENCODING 7881
SWIDTH 308 0
DWIDTH 6 0
BBX 4 17 1 0
BITMAP
60
F0
10
70
40
00
40
60
60
60
60
60
60
60
60
60
60
ENDCHAR
STARTCHAR 1ECA
ENCODING 7882
SWIDTH 257 0
DWIDTH 5 0
BBX 2 19 2 -4
BITMAP
80
80
80
80
80
80
80
80
80
80
80
80
80
80
80
00
00
C0
C0
ENDCHAR
STARTCHAR 1ECB
ENCODING 7883
SWIDTH 308 0
DWIDTH 6 0
BBX 2 19 2 -4
BITMAP
C0
C0
00
00
80
C0
C0
C0
C0
C0
C0
C0
C0
C0
C0
00
00
C0
C0
ENDCHAR
STARTCHAR 1ECC
ENCODING 7884
SWIDTH 925 0
DWIDTH 18 0
BBX 16 19 1 -4
BITMAP
0FF0
1C38
300C
6006
4002
C002
C003
C003
C003
C002
4006
6006
300C
1C38
07E0
0000
0000
0180
0180
ENDCHAR
STARTCHAR 1ECD
ENCODING 7885
SWIDTH 668 0
DWIDTH 13 0
BBX 11 15 1 -4
BITMAP
0E00
3F80
60C0
4060
C060
C020
C060
C060
60C0
31C0
1F00
0000
0000
0600
0600
ENDCHAR
STARTCHAR 1ECE
ENCODING 7886
SWIDTH 925 0
DWIDTH 18 0
BBX 16 21 1 0
BITMAP
03C0
0040
0040
0180
0100
0000
0FF0
1C38
300C
6006
4002
C002
C003
C003
C003
C002
4006
6006
300C
1C38
07E0
ENDCHAR
STARTCHAR 1ECF
ENCODING 7887
SWIDTH 668 0
DWIDTH 13 0
BBX 11 17 1 0
BITMAP
0600
0F00
0100
0700
0400
0000
0E00
3F80
60C0
4060
C060
C020
C060
C060
60C0
31C0
1F00
ENDCHAR
STARTCHAR 1ED0
ENCODING 7888
SWIDTH 925 0
DWIDTH 18 0
BBX 16 24 1 0
BITMAP
0010
0030
0060
0040
0180
03C0
0660
0000
0000
0FF0
1C38
300C
6006
4002
C002
C003
C003
C003
C002
4006
6006
300C
1C38
07E0
ENDCHAR
STARTCHAR 1ED1
ENCODING 7889
SWIDTH 668 0
DWIDTH 13 0
BBX 11 19 1 0
BITMAP
00C0
01C0
0180
0000
0E00
1B00
1100
0000
0E00
3F80
60C0
4060
C060
C020
C060
C060
60C0
31C0
1F00
ENDCHAR
STARTCHAR 1ED2
ENCODING 7890
SWIDTH 925 0
DWIDTH 18 0
BBX 16 24 1 0
BITMAP
0100
0180
00C0
0040
0180
03C0
0660
0000
0000
0FF0
1C38
300C
6006
4002
C002
C003
C003
C003
C002
4006
6006
300C
1C38
07E0
ENDCHAR
STARTCHAR 1ED3
ENCODING 7891
SWIDTH 668 0
DWIDTH 13 0
BBX 11 19 1 0
BITMAP
0400
0600
0300
0000
0E00
1B00
1100
0000
0E00
3F80
60C0
4060
C060
C020
C060
C060
60C0
31C0
1F00
ENDCHAR
STARTCHAR 1ED4
ENCODING 7892
SWIDTH 925 0
DWIDTH 18 0
BBX 16 25 1 0
BITMAP
0020
00F0
0010
0030
0040
0180
03C0
0660
0000
0000
0FF0
1C38
300C
6006
4002
C002
C003
C003
C003
C002
4006
6006
300C
1C38
07E0
ENDCHAR
STARTCHAR 1ED5
ENCODING 7893
SWIDTH 668 0
DWIDTH 13 0
BBX 11 20 1 0
BITMAP
0380
02C0
0040
0180
0100
0E00
1B00
1100
0000
0E00
3F80
60C0
4060
C060
C020
C060
C060
60C0
31C0
1F00
ENDCHAR
STARTCHAR 1ED6
ENCODING 7894
SWIDTH 925 0
DWIDTH 18 0
BBX 16 23 1 0
BITMAP
0300
05E0
04C0
0180
03C0
0660
0000
0000
0FF0
1C38
300C
6006
4002
C002
C003
C003
C003
C002
4006
6006
300C
1C38
07E0
ENDCHAR
STARTCHAR 1ED7
ENCODING 7895
SWIDTH 668 0
DWIDTH 13 0
BBX 11 18 1 0
BITMAP
1D00
3700
0000
0E00
1B00
1100
0000
0E00
3F80
60C0
4060
C060
C020
C060
C060
60C0
31C0
1F00
ENDCHAR
STARTCHAR 1ED8
ENCODING 7896
SWIDTH 925 0
DWIDTH 18 0
BBX 16 24 1 -4
BITMAP
0180
03C0
0660
0000
0000
0FF0
1C38
300C
6006
4002
C002
C003
C003
C003
C002
4006
6006
300C
1C38
07E0
0000
0000
0180
0180
ENDCHAR
STARTCHAR 1ED9
ENCODING 7897
SWIDTH 668 0
DWIDTH 13 0
BBX 11 19 1 -4
BITMAP
0E00
1B00
1100
0000
0E00
3F80
60C0
4060
C060
C020
C060
C060
60C0
31C0
1F00
0000
0000
0600
0600
ENDCHAR
STARTCHAR 1EDA
ENCODING 7898
SWIDTH 925 0
DWIDTH 18 0
BBX 16 20 1 0
BITMAP
0060
00C0
0180
0004
0006
0FFC
1C3C
300C
6006
4002
C002
C003
C003
C003
C002
4006
6006
300C
1C38
07E0
ENDCHAR
STARTCHAR 1EDB
ENCODING 7899
SWIDTH 668 0
DWIDTH 13 0
BBX 11 16 1 0
BITMAP
0100
0300
0600
0400
0020
0E60
3FC0
60C0
4060
C060
C020
C060
C060
60C0
31C0
1F00
ENDCHAR
STARTCHAR 1EDC
ENCODING 7900
SWIDTH 925 0
DWIDTH 18 0
BBX 16 21 1 0
BITMAP
0400
0600
0300
0180
0004
0006
0FFC
1C3C
300C
6006
4002
C002
C003
C003
C003
C002
4006
6006
300C
1C38
07E0
ENDCHAR
STARTCHAR 1EDD
ENCODING 7901
SWIDTH 668 0
DWIDTH 13 0
BBX 11 16 1 0
BITMAP
1000
1800
0C00
0400
0020
0E60
3FC0
60C0
4060
C060
C020
C060
C060
60C0
31C0
1F00
ENDCHAR
STARTCHAR 1EDE
ENCODING 7902
SWIDTH 925 0
DWIDTH 18 0
BBX 16 21 1 0
BITMAP
03C0
0040
0040
0180
0104
0006
0FFC
1C3C
300C
6006
4002
C002
C003
C003
C003
C002
4006
6006
300C
1C38
07E0
ENDCHAR
STARTCHAR 1EDF
ENCODING 7903
SWIDTH 668 0
DWIDTH 13 0
BBX 11 17 1 0
BITMAP
0600
0F00
0100
0700
0400
0020
0E60
3FC0
60C0
4060
C060
C020
C060
C060
60C0
31C0
1F00
ENDCHAR
STARTCHAR 1EE0
ENCODING 7904
SWIDTH 925 0
DWIDTH 18 0
BBX 16 19 1 0
BITMAP
0790
0CF0
0004
0006
0FFC
1C3C
300C
6006
4002
C002
C003
C003
C003
C002
4006
6006
300C
1C38
07E0
ENDCHAR
STARTCHAR 1EE1
ENCODING 7905
SWIDTH 668 0
DWIDTH 13 0
BBX 11 15 1 0
BITMAP
0800
3EC0
2380
0020
0E60
3FC0
60C0
4060
C060
C020
C060
C060
60C0
31C0
1F00
ENDCHAR
STARTCHAR 1EE2
ENCODING 7906
SWIDTH 925 0
DWIDTH 18 0
BBX 16 21 1 -4
BITMAP
0004
0006
0FFC
1C3C
300C
6006
4002
C002
C003
C003
C003
C002
4006
6006
300C
1C38
07E0
0000
0000
0180
0180
ENDCHAR
STARTCHAR 1EE3
ENCODING 7907
SWIDTH 668 0
DWIDTH 13 0
BBX 11 16 1 -4
BITMAP
0020
0E60
3FC0
60C0
4060
C060
C020
C060
C060
60C0
31C0
1F00
0000
0000
0600
0600
ENDCHAR
STARTCHAR 1EE4
ENCODING 7908
SWIDTH 822 0
DWIDTH 16 0
BBX 12 19 2 -4
BITMAP
8030
8030
8030
8030
8030
8030
8030
8030
8030
8030
8030
C030
4020
70E0
1F80
0000
0000
0600
0600
ENDCHAR
STARTCHAR 1EE5
ENCODING 7909
SWIDTH 668 0
DWIDTH 13 0
BBX 9 15 2 -4
BITMAP
8080
8080
8080
8080
8080
8080
8080
8080
C180
6380
3E80
0000
0000
0C00
0C00
ENDCHAR
STARTCHAR 1EE6
ENCODING 7910
SWIDTH 822 0
DWIDTH 16 0
BBX 12 21 2 0
BITMAP
0F00
0100
0100
0600
0400
0000
8030
8030
8030
8030
8030
8030
8030
8030
8030
8030
8030
C030
4020
70E0
1F80
ENDCHAR
STARTCHAR 1EE7
ENCODING 7911
SWIDTH 668 0
DWIDTH 13 0
BBX 9 17 2 0
BITMAP
0C00
1E00
0200
0E00
0800
0000
8080
8080
8080
8080
8080
8080
8080
8080
C180
6380
3E80
ENDCHAR
STARTCHAR 1EE8
ENCODING 7912
SWIDTH 822 0
DWIDTH 16 0
BBX 14 20 2 0
BITMAP
0180
0300
0600
0004
0004
803C
8030
8030
8030
8030
8030
8030
8030
8030
8030
8030
C030
4020
70E0
1F80
ENDCHAR
STARTCHAR 1EE9
ENCODING 7913
SWIDTH 668 0
DWIDTH 13 0
BBX 12 16 2 0
BITMAP
0200
0600
0C00
0830
0030
80E0
80C0
8080
8080
8080
8080
8080
8080
C180
6380
3E80
ENDCHAR
STARTCHAR 1EEA
ENCODING 7914
SWIDTH 822 0
DWIDTH 16 0
BBX 14 21 2 0
BITMAP
1000
1800
0C00
0600
0004
0004
803C
8030
8030
8030
8030
8030
8030
8030
8030
8030
8030
C030
4020
70E0
1F80
ENDCHAR
STARTCHAR 1EEB
ENCODING 7915
SWIDTH 668 0
DWIDTH 13 0
BBX 12 16 2 0
BITMAP
2000
3000
1800
0830
0030
80E0
80C0
8080
8080
8080
8080
8080
8080
C180
6380
3E80
ENDCHAR
STARTCHAR 1EEC
ENCODING 7916
SWIDTH 822 0
DWIDTH 16 0
BBX 14 21 2 0
BITMAP
0F00
0100
0100
0600
0404
0004
803C
8030
8030
8030
8030
8030
8030
8030
8030
8030
8030
C030
4020
70E0
1F80
ENDCHAR
STARTCHAR 1EED
ENCODING 7917
SWIDTH 668 0
DWIDTH 13 0
BBX 12 17 2 0
BITMAP
0C00
1E00
0200
0E00
0830
0030
80E0
80C0
8080
8080
8080
8080
8080
8080
C180
6380
3E80
ENDCHAR
STARTCHAR 1EEE
ENCODING 7918
SWIDTH 822 0
DWIDTH 16 0
BBX 14 19 2 0
BITMAP
1E40
33C0
0004
0004
803C
8030
8030
8030
8030
8030
8030
8030
8030
8030
8030
C030
4020
70E0
1F80
ENDCHAR
STARTCHAR 1EEF
ENCODING 7919
SWIDTH 668 0
DWIDTH 13 0
BBX 12 15 2 0
BITMAP
1000
7D80
4730
0030
80E0
80C0
8080
8080
8080
8080
8080
8080
C180
6380
3E80
ENDCHAR
STARTCHAR 1EF0
ENCODING 7920
SWIDTH 822 0
DWIDTH 16 0
BBX 14 21 2 -4
BITMAP
0004
0004
803C
8030
8030
8030
8030
8030
8030
8030
8030
8030
8030
C030
4020
70E0
1F80
0000
0000
0600
0600
ENDCHAR
STARTCHAR 1EF1
ENCODING 7921
SWIDTH 668 0
DWIDTH 13 0
BBX 12 17 2 -4
BITMAP
0030
0030
80E0
80C0
8080
8080
8080
8080
8080
8080
C180
6380
3E80
0000
0000
0C00
0C00
ENDCHAR
STARTCHAR 1EF2
ENCODING 7922
SWIDTH 668 0
DWIDTH 13 0
BBX 12 20 0 1
BITMAP
1C00
0E00
0600
0000
0000
C010
4030
6020
3060
30C0
18C0
0980
0D00
0700
0200
0200
0200
0200
0200
0200
ENDCHAR
STARTCHAR 1EF3
ENCODING 7923
SWIDTH 565 0
DWIDTH 11 0
BBX 9 21 1 -5
BITMAP
2000
3000
1800
0800
0000
8080
8080
C180
C100
4300
6300
2200
3600
1400
1C00
0800
1800
1000
3000
2000
2000
ENDCHAR
STARTCHAR 1EF4
ENCODING 7924
SWIDTH 668 0
DWIDTH 13 0
BBX 12 19 0 -4
BITMAP
C010
4030
6020
3060
30C0
18C0
0980
0D00
0700
0200
0200
0200
0200
0200
0200
0000
0000
0600
0600
ENDCHAR
STARTCHAR 1EF5
ENCODING 7925
SWIDTH 565 0
DWIDTH 11 0
BBX 9 16 1 -5
BITMAP
8080
8080
C180
C100
4300
6300
2200
3600
1400
1C00
0800
1800
1000
3200
2200
2000
ENDCHAR
STARTCHAR 1EF6
ENCODING 7926
SWIDTH 668 0
DWIDTH 13 0
BBX 12 21 0 0
BITMAP
0700
0180
0180
0300
0200
0000
C010
4030
6020
3060
30C0
18C0
0980
0D00
0700
0200
0200
0200
0200
0200
0200
ENDCHAR
STARTCHAR 1EF7
ENCODING 7927
SWIDTH 565 0
DWIDTH 11 0
BBX 9 22 1 -5
BITMAP
0C00
1E00
0200
0E00
0800
0000
8080
8080
C180
C100
4300
6300
2200
3600
1400
1C00
0800
1800
1000
3000
2000
2000
ENDCHAR
STARTCHAR 1EF8
ENCODING 7928
SWIDTH 668 0
DWIDTH 13 0
BBX 12 19 0 0
BITMAP
0E40
13C0
0000
0000
C010
4030
6020
3060
30C0
18C0
0980
0D00
0700
0200
0200
0200
0200
0200
0200
ENDCHAR
STARTCHAR 1EF9
ENCODING 7929
SWIDTH 565 0
DWIDTH 11 0
BBX 9 20 1 -5
BITMAP
1000
7D80
4700
0000
8080
8080
C180
C100
4300
6300
2200
3600
1400
1C00
0800
1800
1000
3000
2000
2000
ENDCHAR
STARTCHAR 2010
ENCODING 8208
SWIDTH 411 0
DWIDTH 8 0
BBX 6 1 1 5
BITMAP
FC
ENDCHAR
STARTCHAR 2013
ENCODING 8211
SWIDTH 411 0
DWIDTH 8 0
BBX 9 1 -1 5
BITMAP
FF80
ENDCHAR
STARTCHAR 2014
ENCODING 8212
SWIDTH 925 0
DWIDTH 18 0
BBX 20 1 -1 5
BITMAP
FFFFF0
ENDCHAR
STARTCHAR 2015
ENCODING 8213
SWIDTH 720 0
DWIDTH 14 0
BBX 16 1 -1 5
BITMAP
FFFF
ENDCHAR
STARTCHAR 2017
ENCODING 8215
SWIDTH 462 0
DWIDTH 9 0
BBX 11 4 -1 -4
BITMAP
FFE0
7FC0
0000
FFE0
ENDCHAR
STARTCHAR 2018
ENCODING 8216
SWIDTH 205 0
DWIDTH 4 0
BBX 2 5 1 11
BITMAP
40
40
C0
C0
C0
ENDCHAR
STARTCHAR 2019
ENCODING 8217
SWIDTH 154 0
DWIDTH 3 0
BBX 2 5 0 10
BITMAP
C0
C0
C0
C0
80
ENDCHAR
STARTCHAR 201A
ENCODING 8218
SWIDTH 257 0
DWIDTH 5 0
BBX 2 5 1 -3
BITMAP
40
C0
C0
C0
80
ENDCHAR
STARTCHAR 201B
ENCODING 8219
SWIDTH 205 0
DWIDTH 4 0
BBX 2 4 1 10
BITMAP
C0
C0
C0
40
ENDCHAR
STARTCHAR 201C
ENCODING 8220
SWIDTH 257 0
DWIDTH 5 0
BBX 5 5 0 11
BITMAP
28
48
58
D8
D8
ENDCHAR
STARTCHAR 201D
ENCODING 8221
SWIDTH 257 0
DWIDTH 5 0
BBX 5 5 0 11
BITMAP
90
D0
D8
D8
D8
ENDCHAR
STARTCHAR 201E
ENCODING 8222
SWIDTH 257 0
DWIDTH 5 0
BBX 4 5 1 -3
BITMAP
D0
F0
D0
90
A0
ENDCHAR
STARTCHAR 2020
ENCODING 8224
SWIDTH 565 0
DWIDTH 11 0
BBX 9 20 1 -5
BITMAP
0800
0800
0800
0800
FF80
FF80
0800
0800
0800
0800
0800
0800
0800
0800
0800
0800
0800
0800
0800
0800
ENDCHAR
STARTCHAR 2021
ENCODING 8225
SWIDTH 565 0
DWIDTH 11 0
BBX 9 20 1 -5
BITMAP
0800
0800
0800
0800
FF80
FF80
0800
0800
0800
0800
0800
0800
0800
FF00
FF80
0800
0800
0800
0800
0800
ENDCHAR
STARTCHAR 2022
ENCODING 8226
SWIDTH 411 0
DWIDTH 8 0
BBX 4 5 2 5
BITMAP
60
F0
F0
F0
60
ENDCHAR
STARTCHAR 2026
ENCODING 8230
SWIDTH 720 0
DWIDTH 14 0
BBX 11 2 1 0
BITMAP
CC60
CC60
ENDCHAR
STARTCHAR 2030
ENCODING 8240
SWIDTH 1285 0
DWIDTH 25 0
BBX 24 15 1 0
BITMAP
7C0C00
EE1800
823000
822000
826000
C6C000
7D8000
031018
037C7E
06C646
0C82C3
1882C3
3086C2
30EC7E
60783C
ENDCHAR
STARTCHAR 2032
ENCODING 8242
SWIDTH 205 0
DWIDTH 4 0
BBX 2 4 1 11
BITMAP
C0
C0
80
80
ENDCHAR
STARTCHAR 2033
ENCODING 8243
SWIDTH 360 0
DWIDTH 7 0
BBX 5 4 1 11
BITMAP
48
D8
90
90
ENDCHAR
STARTCHAR 2039
ENCODING 8249
SWIDTH 257 0
DWIDTH 5 0
BBX 4 11 1 0
BITMAP
20
20
60
40
C0
80
C0
40
60
20
30
ENDCHAR
STARTCHAR 203A
ENCODING 8250
SWIDTH 257 0
DWIDTH 5 0
BBX 4 11 1 0
BITMAP
80
C0
C0
60
60
30
20
60
40
C0
80
ENDCHAR
STARTCHAR 203C
ENCODING 8252
SWIDTH 411 0
DWIDTH 8 0
BBX 6 15 1 0
BITMAP
CC
CC
CC
CC
CC
CC
CC
CC
CC
CC
CC
00
00
CC
CC
ENDCHAR
STARTCHAR 203E
ENCODING 8254
SWIDTH 462 0
DWIDTH 9 0
BBX 11 1 -1 17
BITMAP
FFE0
ENDCHAR
STARTCHAR 2044
ENCODING 8260
SWIDTH 308 0
DWIDTH 6 0
BBX 10 15 -2 0
BITMAP
0040
00C0
0080
0100
0300
0200
0400
0C00
0800
1000
3000
2000
4000
C000
8000
ENDCHAR
STARTCHAR 2052
ENCODING 8274
SWIDTH 771 0
DWIDTH 15 0
BBX 13 15 2 0
BITMAP
7018
7030
7060
2040
00C0
0180
0300
0600
0600
0C00
1800
3060
6070
60F0
C070
ENDCHAR
STARTCHAR 2074
ENCODING 8308
SWIDTH 411 0
DWIDTH 8 0
BBX 6 8 1 7
BITMAP
18
38
28
48
88
FC
08
08
ENDCHAR
STARTCHAR 20A1
ENCODING 8353
SWIDTH 771 0
DWIDTH 15 0
BBX 13 18 1 -1
BITMAP
0020
0020
0FE0
1C78
3040
60C0
4080
C180
C180
C100
C300
C200
4600
6600
3418
1C38
0FE0
1800
ENDCHAR
STARTCHAR 20A3
ENCODING 8355
SWIDTH 720 0
DWIDTH 14 0
BBX 13 15 1 0
BITMAP
3FF8
3000
3000
3000
3000
3000
3000
3FC0
3000
3000
7E00
FF00
3000
3000
3000
ENDCHAR
STARTCHAR 20A4
ENCODING 8356
SWIDTH 514 0
DWIDTH 10 0
BBX 9 15 1 0
BITMAP
3E00
6700
4100
4000
4000
4000
FE00
2000
FC00
FC00
2000
6000
6080
4180
7F00
ENDCHAR
STARTCHAR 20A6
ENCODING 8358
SWIDTH 822 0
DWIDTH 16 0
BBX 16 15 0 0
BITMAP
3004
3004
3804
2C04
2604
2204
2304
FFFF
20C4
2044
2024
2034
201C
200C
2004
ENDCHAR
STARTCHAR 20A7
ENCODING 8359
SWIDTH 668 0
DWIDTH 13 0
BBX 12 15 1 0
BITMAP
7F00
4180
40C0
4040
FFF0
4040
4040
40C0
7F80
7E00
4000
4000
4000
4000
4000
ENDCHAR
STARTCHAR 20A9
ENCODING 8361
SWIDTH 925 0
DWIDTH 18 0
BBX 16 15 1 0
BITMAP
C083
4183
4182
61C2
63C6
2346
2244
FFFF
366C
162C
1428
1428
1C38
0C18
0810
ENDCHAR
STARTCHAR 20AB
ENCODING 8363
SWIDTH 668 0
DWIDTH 13 0
BBX 11 15 1 0
BITMAP
00C0
0FE0
00C0
3EC0
73C0
C1C0
C0C0
80C0
80C0
C080
6180
7F00
1C00
0000
FFC0
ENDCHAR
STARTCHAR 20AC
ENCODING 8364
SWIDTH 822 0
DWIDTH 16 0
BBX 14 15 1 0
BITMAP
03F8
0E1C
1804
1000
3000
FFF0
2000
2000
FFC0
FFC0
3000
1000
1804
0E1C
03F0
ENDCHAR
STARTCHAR 20AD
ENCODING 8365
SWIDTH 668 0
DWIDTH 13 0
BBX 12 15 0 0
BITMAP
2030
2060
20C0
2180
2300
2600
EFE0
3E00
3300
2180
2180
20C0
2060
2020
2030
ENDCHAR
STARTCHAR 20AE
ENCODING 8366
SWIDTH 668 0
DWIDTH 13 0
BBX 12 15 0 0
BITMAP
FFF0
0200
0200
0200
0200
03E0
1F00
3200
02E0
0F80
3E00
0200
0200
0200
0200
ENDCHAR
STARTCHAR 20B1
ENCODING 8369
SWIDTH 668 0
DWIDTH 13 0
BBX 12 15 1 0
BITMAP
7F00
4180
40C0
FFF0
4040
FFF0
4040
40C0
7F80
7E00
4000
4000
4000
4000
4000
ENDCHAR
STARTCHAR 20B2
ENCODING 8370
SWIDTH 771 0
DWIDTH 15 0
BBX 13 20 1 -2
BITMAP
0100
0100
0100
0FE0
1C38
3000
6000
4000
C000
C000
C0F0
C0F8
C018
4018
6018
3018
1C38
07E0
0100
0100
ENDCHAR
STARTCHAR 20B4
ENCODING 8372
SWIDTH 720 0
DWIDTH 14 0
BBX 11 15 1 0
BITMAP
1F80
30C0
6040
0060
0040
00C0
FFE0
0000
FFE0
2000
6000
6020
6060
30C0
1F80
ENDCHAR
STARTCHAR 20B5
ENCODING 8373
SWIDTH 771 0
DWIDTH 15 0
BBX 13 19 1 -1
BITMAP
0100
0100
0FE0
1C38
3000
6000
4000
C000
C000
C000
C000
C000
4000
6000
3018
1C38
07E0
0100
0100
ENDCHAR
STARTCHAR 20B8
ENCODING 8376
SWIDTH 668 0
DWIDTH 13 0
BBX 12 15 0 0
BITMAP
FFF0
0000
0000
FFF0
0200
0200
0200
0200
0200
0200
0200
0200
0200
0200
0200
ENDCHAR
STARTCHAR 20B9
ENCODING 8377
SWIDTH 514 0
DWIDTH 10 0
BBX 9 15 1 0
BITMAP
FF80
0C00
0600
FF80
FF80
0600
0E00
FC00
3000
1800
0800
0C00
0600
0200
0300
ENDCHAR
STARTCHAR 20BA
ENCODING 8378
SWIDTH 565 0
DWIDTH 11 0
BBX 10 15 1 0
BITMAP
2000
2000
2600
3C00
7000
AE00
3800
E000
2000
20C0
20C0
2080
2180
2700
3E00
ENDCHAR
STARTCHAR 20BC
ENCODING 8380
SWIDTH 822 0
DWIDTH 16 0
BBX 12 15 2 0
BITMAP
0400
0F00
3FC0
6460
C420
C420
8430
8430
8430
8430
8430
8430
8430
8030
8030
ENDCHAR
STARTCHAR 20BD
ENCODING 8381
SWIDTH 617 0
DWIDTH 12 0
BBX 12 15 0 0
BITMAP
3F80
30E0
3060
3030
3030
3030
3020
3060
FFC0
FF00
3000
FF00
3000
3000
3000
ENDCHAR
STARTCHAR 2105
ENCODING 8453
SWIDTH 925 0
DWIDTH 18 0
BBX 18 15 0 0
BITMAP
3C0400
620C00
C01800
C01000
C03000
606000
3C4000
00C600
019F80
011080
0330C0
0630C0
0430C0
0C1980
080F00
ENDCHAR
STARTCHAR 2113
ENCODING 8467
SWIDTH 411 0
DWIDTH 8 0
BBX 6 15 1 0
BITMAP
38
6C
6C
68
78
70
70
60
60
E0
E0
E0
60
78
38
ENDCHAR
STARTCHAR 2116
ENCODING 8470
SWIDTH 1234 0
DWIDTH 24 0
BBX 21 15 2 0
BITMAP
C011F0
C01398
E01308
B01208
981308
8C1318
8C11F0
861000
8313F8
8193F8
809000
80D000
807000
803000
801000
ENDCHAR
STARTCHAR 2122
ENCODING 8482
SWIDTH 771 0
DWIDTH 15 0
BBX 14 6 0 9
BITMAP
FD0C
118C
1194
1154
1164
1124
ENDCHAR
STARTCHAR 2126
ENCODING 8486
SWIDTH 874 0
DWIDTH 17 0
BBX 15 15 1 0
BITMAP
1FE0
3838
600C
400C
C004
C006
C006
C006
4004
600C
2018
3830
0C60
0440
FC7E
ENDCHAR
STARTCHAR 212E
ENCODING 8494
SWIDTH 617 0
DWIDTH 12 0
BBX 10 11 1 0
BITMAP
0C00
3F00
6180
C0C0
C0C0
FFC0
C000
C000
4000
7F80
1E00
ENDCHAR
STARTCHAR 215B
ENCODING 8539
SWIDTH 771 0
DWIDTH 15 0
BBX 14 15 0 0
BITMAP
7018
D030
1020
1060
1040
1080
1180
0138
026C
0664
0438
086C
1844
1044
203C
ENDCHAR
STARTCHAR 215C
ENCODING 8540
SWIDTH 822 0
DWIDTH 16 0
BBX 14 15 1 0
BITMAP
F010
8830
1860
3040
08C0
8980
F900
3338
026C
044C
0C38
087C
1044
3044
2078
ENDCHAR
STARTCHAR 215D
ENCODING 8541
SWIDTH 822 0
DWIDTH 16 0
BBX 13 15 1 0
BITMAP
F830
C060
E040
78C0
0880
8900
FB00
2270
04D8
0C88
0870
10D8
3088
2088
40F0
ENDCHAR
STARTCHAR 215E
ENCODING 8542
SWIDTH 771 0
DWIDTH 15 0
BBX 14 15 0 0
BITMAP
FC10
0830
0820
1840
10C0
3080
2100
2338
0248
044C
0C78
0878
18C4
30CC
2078
ENDCHAR
STARTCHAR 2190
ENCODING 8592
SWIDTH 925 0
DWIDTH 18 0
BBX 17 8 1 1
BITMAP
100000
300000
600000
FFFF80
C00000
600000
300000
100000
ENDCHAR
STARTCHAR 2191
ENCODING 8593
SWIDTH 462 0
DWIDTH 9 0
BBX 7 17 1 -3
BITMAP
10
38
7C
D6
92
10
10
10
10
10
10
10
10
10
10
10
10
ENDCHAR
STARTCHAR 2192
ENCODING 8594
SWIDTH 925 0
DWIDTH 18 0
BBX 17 7 1 1
BITMAP
000C00
000E00
000700
FFFF80
000300
000600
000C00
ENDCHAR
STARTCHAR 2193
ENCODING 8595
SWIDTH 462 0
DWIDTH 9 0
BBX 7 17 1 -3
BITMAP
10
10
10
10
10
10
10
10
10
10
10
10
10
D6
7C
38
10
ENDCHAR
STARTCHAR 2194
ENCODING 8596
SWIDTH 925 0
DWIDTH 18 0
BBX 17 8 1 1
BITMAP
100C00
300600
600300
FFFF80
C00300
600600
300C00
100000
ENDCHAR
STARTCHAR 2195
ENCODING 8597
SWIDTH 462 0
DWIDTH 9 0
BBX 7 17 1 -3
BITMAP
10
38
7C
D6
92
10
10
10
10
10
10
10
10
D6
7C
38
10
ENDCHAR
STARTCHAR 21A8
ENCODING 8616
SWIDTH 462 0
DWIDTH 9 0
BBX 7 17 1 -3
BITMAP
10
38
7C
D6
92
10
10
10
10
10
92
D6
7C
38
10
00
FE
ENDCHAR
STARTCHAR 2202
ENCODING 8706
SWIDTH 617 0
DWIDTH 12 0
BBX 10 15 1 0
BITMAP
7E00
4700
0180
00C0
0CC0
3F40
61C0
C0C0
8040
8040
8040
C0C0
60C0
7F80
1E00
ENDCHAR
STARTCHAR 2206
ENCODING 8710
SWIDTH 720 0
DWIDTH 14 0
BBX 13 15 0 0
BITMAP
0300
0300
0780
0580
0C80
0CC0
0840
1860
1060
3020
3030
6010
6018
7FF8
FFF8
ENDCHAR
STARTCHAR 220F
ENCODING 8719
SWIDTH 720 0
DWIDTH 14 0
BBX 12 20 1 -5
BITMAP
FFF0
8030
8030
8030
8030
8030
8030
8030
8030
8030
8030
8030
8030
8030
8030
8030
8030
8030
8030
8010
ENDCHAR
STARTCHAR 2211
ENCODING 8721
SWIDTH 720 0
DWIDTH 14 0
BBX 12 20 1 -5
BITMAP
FFF0
C000
6000
3000
1800
0C00
0C00
0600
0300
0180
0300
0300
0600
0C00
1800
3000
6000
6000
FFF0
FFF0
ENDCHAR
STARTCHAR 2212
ENCODING 8722
SWIDTH 565 0
DWIDTH 11 0
BBX 9 2 1 6
BITMAP
FF00
FF80
ENDCHAR
STARTCHAR 2215
ENCODING 8725
SWIDTH 462 0
DWIDTH 9 0
BBX 7 17 1 -2
BITMAP
02
06
06
04
0C
08
18
18
10
30
20
60
60
40
C0
80
80
ENDCHAR
STARTCHAR 2219
ENCODING 8729
SWIDTH 308 0
DWIDTH 6 0
BBX 4 4 1 4
BITMAP
F0
F0
F0
60
ENDCHAR
STARTCHAR 221A
ENCODING 8730
SWIDTH 771 0
DWIDTH 15 0
BBX 13 17 1 0
BITMAP
0018
0038
0020
0060
0040
00C0
0080
0180
0100
8300
C200
C600
6400
6C00
3800
3800
1000
ENDCHAR
STARTCHAR 221E
ENCODING 8734
SWIDTH 771 0
DWIDTH 15 0
BBX 14 8 1 2
BITMAP
1860
7DF8
C718
820C
820C
C308
6FB8
3CF0
ENDCHAR
STARTCHAR 221F
ENCODING 8735
SWIDTH 720 0
DWIDTH 14 0
BBX 12 12 1 0
BITMAP
8000
8000
8000
8000
8000
8000
8000
8000
8000
8000
FFE0
FFF0
ENDCHAR
STARTCHAR 2229
ENCODING 8745
SWIDTH 822 0
DWIDTH 16 0
BBX 12 15 2 0
BITMAP
3FC0
70E0
C020
C030
8030
8030
8030
8030
8030
8030
8030
8030
8030
8030
8030
ENDCHAR
STARTCHAR 222B
ENCODING 8747
SWIDTH 565 0
DWIDTH 11 0
BBX 9 19 1 -2
BITMAP
0700
0D80
0C00
0C00
0C00
0800
0800
0800
0800
0800
1800
1800
1800
1800
1800
1000
9000
F000
F000
ENDCHAR
STARTCHAR 2248
ENCODING 8776
SWIDTH 462 0
DWIDTH 9 0
BBX 8 6 1 4
BITMAP
60
FF
8C
00
FB
8E
ENDCHAR
STARTCHAR 2260
ENCODING 8800
SWIDTH 514 0
DWIDTH 10 0
BBX 8 14 1 0
BITMAP
04
04
04
0C
FF
FF
18
18
10
FF
30
20
60
60
ENDCHAR
STARTCHAR 2261
ENCODING 8801
SWIDTH 514 0
DWIDTH 10 0
BBX 8 9 1 2
BITMAP
FF
00
00
FF
FF
00
00
FF
FF
ENDCHAR
STARTCHAR 2264
ENCODING 8804
SWIDTH 565 0
DWIDTH 11 0
BBX 9 13 1 1
BITMAP
0080
0380
0E00
1C00
7000
C000
6000
3800
0E00
0300
0180
0000
FF80
ENDCHAR
STARTCHAR 2265
ENCODING 8805
SWIDTH 565 0
DWIDTH 11 0
BBX 9 13 1 1
BITMAP
8000
E000
3000
1C00
0700
0180
0700
0E00
3800
E000
C000
0000
FF80
ENDCHAR
STARTCHAR 27E8
ENCODING 10216
SWIDTH 257 0
DWIDTH 5 0
BBX 5 15 0 0
BITMAP
18
10
20
20
40
40
80
80
C0
40
60
20
30
10
18
ENDCHAR
STARTCHAR 27E9
ENCODING 10217
SWIDTH 257 0
DWIDTH 5 0
BBX 4 15 1 0
BITMAP
80
80
40
40
20
20
10
10
10
20
20
40
C0
80
80
ENDCHAR
STARTCHAR FB01
ENCODING 64257
SWIDTH 617 0
DWIDTH 12 0
BBX 10 15 0 0
BITMAP
0FC0
18C0
1000
3000
3040
FEC0
30C0
30C0
30C0
30C0
30C0
30C0
30C0
30C0
30C0
ENDCHAR
STARTCHAR FB02
ENCODING 64258
SWIDTH 617 0
DWIDTH 12 0
BBX 12 15 0 0
BITMAP
0FC0
18C0
10C0
30C0
30C0
FEC0
30C0
30C0
30C0
30C0
30C0
30C0
30C0
3060
3030
ENDCHAR
ENDFONT
